<svg height="16.3" viewBox="0 0 14.4 16.3" width="14.4" xmlns="http://www.w3.org/2000/svg"><g fill="#111" stroke="#000" stroke-width=".3"><path d="m534.934 449.167a2.445 2.445 0 0 1 -2.443-2.443v-.358h.716v.358a1.726 1.726 0 1 0 3.451 0v-.358h.716v.358a2.445 2.445 0 0 1 -2.44 2.443z" transform="translate(-527.734 -433.017)"/><path d="m540.976 446.465h-13.176l.37-.556a9.334 9.334 0 0 0 1.33-4.665v-3.473a5.221 5.221 0 1 1 10.441 0v3.473a9.334 9.334 0 0 0 1.33 4.665l.37.556zm-11.887-.716h11.268a10 10 0 0 1 -1.129-4.5v-3.473a4.5 4.5 0 1 0 -9.008 0v3.473a9.983 9.983 0 0 1 -1.13 4.499z" transform="translate(-527.524 -432.399)"/></g></svg>