<svg xmlns="http://www.w3.org/2000/svg" width="9.082" height="16.003" viewBox="0 0 9.082 16.003"><path d="M119.665,313.475H117.1a.776.776,0,0,1-.776-.776V306.92h-1.5a.776.776,0,0,1-.776-.777v-2.476a.777.777,0,0,1,.776-.776h1.5v-1.24a4.22,4.22,0,0,1,1.116-3.025,4.02,4.02,0,0,1,2.965-1.151h1.955a.777.777,0,0,1,.775.776v2.3a.777.777,0,0,1-.776.776h-1.316c-.4,0-.5.08-.525.105-.036.041-.079.156-.079.476v.98h1.821a.8.8,0,0,1,.384.1.781.781,0,0,1,.4.679v2.477a.777.777,0,0,1-.776.776h-1.829V312.7A.777.777,0,0,1,119.665,313.475Zm-2.4-.938H119.5V306.5a.519.519,0,0,1,.518-.518h2.085v-2.153h-2.085a.518.518,0,0,1-.518-.518v-1.4a1.318,1.318,0,0,1,1.542-1.519H122.2v-1.976h-1.792a2.961,2.961,0,0,0-3.149,2.761,3,3,0,0,0,.007.474v1.66a.519.519,0,0,1-.518.518h-1.753v2.152h1.753a.519.519,0,0,1,.518.518Zm5.091-14.121" transform="translate(-114.056 -297.472)"/></svg>