<svg height="25.433" viewBox="0 0 25.414 25.433" width="25.414" xmlns="http://www.w3.org/2000/svg"><path d="m267.787 7248.6h-11.532c0 1.2 0 3.6-.008 4.8h6.683a6.477 6.477 0 0 1 -2.447 3.725s0 .007 0 .006a7.894 7.894 0 0 1 -5.628 1.045 7.421 7.421 0 0 1 -5.535-4.832s.008-.037.012-.04a7.175 7.175 0 0 1 0-4.7 7.366 7.366 0 0 1 5.436-4.767 7 7 0 0 1 6.243 1.676c.233-.229 3.222-3.146 3.447-3.384a12.353 12.353 0 0 0 -19.144 3.483l-.007.014a11.719 11.719 0 0 0 .012 10.756l-.012.01a12.211 12.211 0 0 0 7.776 6.2 12.55 12.55 0 0 0 11.292-2.486c2.61-2.35 4.235-6.355 3.414-11.5" fill="none" stroke="#000" stroke-width="1.3" transform="translate(-243.264 -7238.317)"/></svg>