<svg xmlns="http://www.w3.org/2000/svg" width="144" height="136.5" viewBox="0 0 144 136.5"><defs><style>.a{fill:#fbbebe;}.b{opacity:0.1;}.c{fill:#6c63ff;}.d{fill:#3f3d56;}.e,.h{fill:none;stroke:#3f3d56;}.e{stroke-miterlimit:10;}.f{fill:#57b894;}.g{opacity:0.3;}</style></defs><path class="a" d="M510.843,524.02s25.915-2.937,34.986-7.587,76.45-6.853,76.45,7.587-77.487,20.8-77.487,20.8l-40.687-2.2Z" transform="translate(-478.797 -431.331)"/><path class="b" d="M510.843,524.02s25.915-2.937,34.986-7.587,76.45-6.853,76.45,7.587-77.487,20.8-77.487,20.8l-40.687-2.2Z" transform="translate(-478.797 -431.331)"/><path class="c" d="M247.7,523.731l-5.442,14.93L157,539.641V517.613s32.653-7.1,58.569,8.077C215.569,525.69,246.149,522.263,247.7,523.731Z" transform="translate(-157 -433.735)"/><path class="b" d="M247.7,523.616l-5.442,14.93L157,539.525V517.5s32.653-7.1,58.569,8.077C215.569,525.574,246.149,522.147,247.7,523.616Z" transform="translate(-157 -433.643)"/><path class="d" d="M771.84,450.7c0,.834-1.981,1.453-2.175,2.258s.984,2.012.611,2.774a14.906,14.906,0,0,1-1.359,2.233c-.488.66-1.995.563-2.613,1.182a20.48,20.48,0,0,1-1.919,1.576c-.656.515-1.544.623-2.289,1.1-.709.451-.623,2.1-1.407,2.515-.749.392-1.9.077-2.709.429-.78.338-1.192,1.562-2.026,1.862-.8.289-1.8.164-2.65.414-.823.242-1.744.2-2.607.406-.837.2-1.477,1.383-2.348,1.543-.849.156-1.844-.26-2.721-.142-.857.115-1.854-.909-2.736-.832-.863.076-1.676.55-2.56.589-.867.038-1.724.4-2.607.4s-1.8.783-2.663.746c-.884-.038-1.684-1.225-2.547-1.3-.882-.078-1.934,1.162-2.791,1.047-.878-.118-1.573-1.332-2.422-1.488-.871-.16-2,.708-2.835.51-.863-.2-1.375-1.616-2.2-1.858-.85-.25-1.9.089-2.709-.2-.834-.3-1.85-.251-2.631-.59-.813-.353-1.4-1.187-2.146-1.579-.784-.41-1.146-1.429-1.855-1.879-.746-.474-1.882-.414-2.537-.929-.692-.544-1.989-.572-2.573-1.157a18.074,18.074,0,0,1-1.356-2.317c-.514-.695.495-2.164.136-2.9-.372-.762-1.928-1.072-2.121-1.87a11.116,11.116,0,0,1-.3-2.539c0-.834,1.331-1.472,1.526-2.276s-.786-1.944-.414-2.707c.359-.735.313-1.864.827-2.559.488-.66,1.705-.918,2.323-1.537.584-.585,1.63-.748,2.322-1.292.656-.515.572-2.068,1.318-2.542.709-.451,1.7-.656,2.483-1.067.749-.392,1.81-.326,2.623-.679.78-.339,2,.328,2.836.029.8-.289,1.457-.92,2.307-1.17.823-.242,1.21-2.087,2.072-2.291.838-.2,1.868.131,2.739-.029.849-.156,1.991,1.3,2.869,1.182.857-.115,1.5-2.059,2.38-2.136.863-.076,1.836.931,2.72.892.867-.038,1.737.552,2.621.552s1.765-.809,2.631-.772c.884.038,1.663,1.108,2.526,1.184.882.078,1.964-1.55,2.821-1.434.878.118,1.556,1.376,2.4,1.532.872.16,1.963-.621,2.8-.423.863.2,1.382,1.541,2.2,1.783.85.25,1.374,1.193,2.179,1.482.834.3,2.384-1.1,3.164-.763.813.353,1.515.963,2.264,1.355.784.411,2.031.2,2.74.655.746.474.929,1.747,1.585,2.262.692.544,1.834.707,2.418,1.292.618.619.7,1.727,1.192,2.387.514.695.5,1.658.856,2.392.372.762,1.366,1.339,1.559,2.137A12.26,12.26,0,0,1,771.84,450.7Z" transform="translate(-634.799 -366.949)"/><path class="a" d="M579.388,557.94s29.284-14.2,48.2-8.811,45.352-3.916,48.462-.734,7.515,37.448-29.8,39.406a265.72,265.72,0,0,1-69.194-5.874Z" transform="translate(-535.68 -458.888)"/><path class="c" d="M244.954,558.389s11.561-.691,11.043,3.225-1.037,34.266-4.146,35-27.729.734-37.836.734H157V550.426s40.428-2.273,60.642,7.272C217.642,557.7,241.945,557.366,244.954,558.389Z" transform="translate(-157 -460.848)"/><path class="e" d="M782.485,236.779a5.954,5.954,0,0,0-5.134,3.39c-1.284,2.931.369,6.373,2.85,8.51s5.669,3.359,8.565,4.964c3.89,2.157,7.385,5.15,9.331,8.993a12.652,12.652,0,0,1-.134,12.274c-2.123,3.408-5.985,5.447-9.667,7.328" transform="translate(-680.867 -212.632)"/><path class="e" d="M829.551,150.885a5.954,5.954,0,0,0-5.134,3.39c-1.284,2.931.369,6.373,2.85,8.51s5.669,3.359,8.565,4.964c3.89,2.157,7.385,5.15,9.331,8.993a12.652,12.652,0,0,1-.135,12.274c-2.123,3.408-5.985,5.447-9.667,7.328" transform="translate(-728.212 -144.605)"/><path class="e" d="M916,166.87a6.253,6.253,0,0,0-6.257-.288c-2.915,1.575-3.839,5.253-3.262,8.377s2.305,5.933,3.555,8.877a20.578,20.578,0,0,1,1.549,12.506,13.473,13.473,0,0,1-8.063,9.628c-3.888,1.467-8.263.847-12.394.205" transform="translate(-780.576 -156.481)"/><ellipse class="f" cx="6.22" cy="2.853" rx="6.22" ry="2.853" transform="translate(108.234 41.619)"/><ellipse class="e" cx="6.22" cy="2.853" rx="6.22" ry="2.853" transform="translate(107.674 41.129)"/><ellipse class="f" cx="6.22" cy="2.853" rx="6.22" ry="2.853" transform="translate(112.642 39.171)"/><ellipse class="e" cx="6.22" cy="2.853" rx="6.22" ry="2.853" transform="translate(111.865 38.682)"/><ellipse class="f" cx="6.22" cy="2.853" rx="6.22" ry="2.853" transform="translate(114.716 49.941)"/><ellipse class="e" cx="6.22" cy="2.853" rx="6.22" ry="2.853" transform="translate(113.938 49.451)"/><ellipse class="f" cx="6.22" cy="2.853" rx="6.22" ry="2.853" transform="translate(113.42 23.018)"/><ellipse class="e" cx="6.22" cy="2.853" rx="6.22" ry="2.853" transform="translate(112.642 22.528)"/><ellipse class="f" cx="6.22" cy="2.853" rx="6.22" ry="2.853" transform="translate(107.301 21.304)"/><ellipse class="e" cx="6.22" cy="2.853" rx="6.22" ry="2.853" transform="translate(106.741 20.815)"/><ellipse class="f" cx="6.22" cy="2.853" rx="6.22" ry="2.853" transform="translate(104.868 15.185)"/><ellipse class="e" cx="6.22" cy="2.853" rx="6.22" ry="2.853" transform="translate(104.09 14.696)"/><ellipse class="f" cx="6.22" cy="2.853" rx="6.22" ry="2.853" transform="translate(120.158 16.409)"/><ellipse class="e" cx="6.22" cy="2.853" rx="6.22" ry="2.853" transform="translate(119.38 15.92)"/><ellipse class="f" cx="6.22" cy="2.853" rx="6.22" ry="2.853" transform="translate(131.561 24.486)"/><ellipse class="e" cx="6.22" cy="2.853" rx="6.22" ry="2.853" transform="translate(130.783 23.997)"/><ellipse class="f" cx="6.22" cy="2.853" rx="6.22" ry="2.853" transform="translate(102.636 10.29)"/><ellipse class="e" cx="6.22" cy="2.853" rx="6.22" ry="2.853" transform="translate(102.076 9.801)"/><ellipse class="f" cx="6.22" cy="2.853" rx="6.22" ry="2.853" transform="translate(105.435 0.99)"/><ellipse class="e" cx="6.22" cy="2.853" rx="6.22" ry="2.853" transform="translate(104.875 0.5)"/><ellipse class="f" cx="6.22" cy="2.853" rx="6.22" ry="2.853" transform="translate(131.301 7.843)"/><ellipse class="e" cx="6.22" cy="2.853" rx="6.22" ry="2.853" transform="translate(130.524 7.353)"/><ellipse class="f" cx="6.22" cy="2.853" rx="6.22" ry="2.853" transform="translate(90.133 30.36)"/><ellipse class="e" cx="6.22" cy="2.853" rx="6.22" ry="2.853" transform="translate(89.573 29.871)"/><ellipse class="f" cx="6.22" cy="2.853" rx="6.22" ry="2.853" transform="translate(105.622 28.892)"/><ellipse class="e" cx="6.22" cy="2.853" rx="6.22" ry="2.853" transform="translate(105.062 28.402)"/><ellipse class="f" cx="6.22" cy="2.853" rx="6.22" ry="2.853" transform="translate(123.786 31.094)"/><ellipse class="e" cx="6.22" cy="2.853" rx="6.22" ry="2.853" transform="translate(123.009 30.605)"/><ellipse class="f" cx="6.22" cy="2.853" rx="6.22" ry="2.853" transform="translate(108.755 32.073)"/><ellipse class="e" cx="6.22" cy="2.853" rx="6.22" ry="2.853" transform="translate(107.978 31.584)"/><ellipse class="f" cx="6.22" cy="2.853" rx="6.22" ry="2.853" transform="translate(109.792 7.598)"/><ellipse class="e" cx="6.22" cy="2.853" rx="6.22" ry="2.853" transform="translate(109.014 7.108)"/><ellipse class="f" cx="6.22" cy="2.853" rx="6.22" ry="2.853" transform="translate(96.664 22.773)"/><ellipse class="e" cx="6.22" cy="2.853" rx="6.22" ry="2.853" transform="translate(96.105 22.283)"/><ellipse class="f" cx="6.22" cy="2.853" rx="6.22" ry="2.853" transform="translate(99.277 33.787)"/><ellipse class="e" cx="6.22" cy="2.853" rx="6.22" ry="2.853" transform="translate(98.717 33.297)"/><g class="g" transform="translate(101.968 52.134)"><path class="f" d="M3.12.077c1.723.043,3.135.7,3.154,1.47S4.911,2.9,3.187,2.862.052,2.161.033,1.392,1.4.035,3.12.077Z" transform="translate(0.41 5.373) rotate(-60.799)"/><path class="h" d="M3.12.077c1.723.043,3.135.7,3.154,1.47S4.911,2.9,3.187,2.862.052,2.161.033,1.392,1.4.035,3.12.077Z" transform="translate(0 5.597) rotate(-60.799)"/></g><g class="g" transform="translate(119.571 57.709)"><path class="f" d="M1.368.039C2.123.06,2.775,1.5,2.825,3.256S2.3,6.416,1.547,6.395.14,4.933.09,3.178.612.017,1.368.039Z" transform="matrix(0.667, -0.745, 0.745, 0.667, 0.142, 2.413)"/><path class="h" d="M1.368.039C2.123.06,2.775,1.5,2.825,3.256S2.3,6.416,1.547,6.395.14,4.933.09,3.178.612.017,1.368.039Z" transform="matrix(0.667, -0.745, 0.745, 0.667, 0, 1.986)"/></g><g class="g" transform="translate(103.198 42.29)"><path class="f" d="M1.368.039C2.123.06,2.775,1.5,2.825,3.256S2.3,6.416,1.547,6.395.14,4.933.09,3.178.612.017,1.368.039Z" transform="matrix(0.667, -0.745, 0.745, 0.667, 0.142, 2.413)"/><path class="h" d="M1.368.039C2.123.06,2.775,1.5,2.825,3.256S2.3,6.416,1.547,6.395.14,4.933.09,3.178.612.017,1.368.039Z" transform="matrix(0.667, -0.745, 0.745, 0.667, 0, 1.986)"/></g></svg>