<svg height="19.953" viewBox="0 0 21.283 19.953" width="21.283" xmlns="http://www.w3.org/2000/svg"><path d="m2.987 128.143 2 1v2.237a.416.416 0 0 0 .416.416h4.407a.416.416 0 0 0 .416-.416v-5.427a2.46 2.46 0 0 0 -2.22-2.453 5.616 5.616 0 0 1 -2.572-1.089l-.934-.933a1.652 1.652 0 0 0 -1.176-.487v-3.325a1.663 1.663 0 1 0 -3.325 0v5.647a5.4 5.4 0 0 0 2.987 4.833zm-2.156-10.48a.831.831 0 1 1 1.663 0v3.548a1.662 1.662 0 0 0 -.344 2.615l2.129 2.129a.416.416 0 1 0 .588-.588l-2.129-2.129a.831.831 0 0 1 .311-1.372.83.83 0 0 1 .865.2l.934.933a6.942 6.942 0 0 0 3.074 1.328 1.632 1.632 0 0 1 1.474 1.629v5.011h-3.576v-2.078a.416.416 0 0 0 -.23-.372l-2.231-1.117a4.548 4.548 0 0 1 -2.527-4.09z" transform="translate(0 -111.843)"/><path d="m111.819 25.56a.416.416 0 0 0 .831 0v-1.247h1.591a4.233 4.233 0 0 0 4.228-4.228v-2.008a.416.416 0 0 0 -.71-.294 2.406 2.406 0 0 1 -1.713.71 4.225 4.225 0 0 0 -3.4 1.713v-3.791a.416.416 0 0 0 -.831 0v2.129a4.225 4.225 0 0 0 -3.4-1.713 2.407 2.407 0 0 1 -1.713-.71.416.416 0 0 0 -.71.294v2.007a4.233 4.233 0 0 0 4.228 4.228h1.591zm4.228-6.235a3.236 3.236 0 0 0 1.591-.414v1.174a3.4 3.4 0 0 1 -3.4 3.4h-.76l2.328-1.746a.416.416 0 1 0 -.5-.665l-2.66 2v-.344a3.4 3.4 0 0 1 3.402-3.405zm-9.216-.9v-1.177a3.236 3.236 0 0 0 1.591.414 3.4 3.4 0 0 1 3.4 3.4v.338l-2.66-2a.416.416 0 1 0 -.5.665l2.328 1.746h-.76a3.4 3.4 0 0 1 -3.399-3.389z" transform="translate(-101.594 -15.999)"/><circle cx="19.08" cy="15.297" r=".416"/><path d="m274.563 116a1.665 1.665 0 0 0 -1.663 1.663v3.325a1.652 1.652 0 0 0 -1.176.487l-.934.933a5.751 5.751 0 0 1 -2.569 1.088 2.461 2.461 0 0 0 -2.221 2.457v5.427a.416.416 0 0 0 .416.416h4.406a.416.416 0 0 0 .416-.416v-2.237l1.361-.68a.416.416 0 0 0 -.372-.744l-1.59.795a.416.416 0 0 0 -.23.372v2.078h-3.575v-5.011a1.633 1.633 0 0 1 1.477-1.63 6.527 6.527 0 0 0 3.07-1.323l.934-.933a.831.831 0 0 1 .864-.2.831.831 0 0 1 .311 1.372l-2.129 2.129a.416.416 0 1 0 .588.588l2.129-2.129a1.662 1.662 0 0 0 -.344-2.615v-3.548a.831.831 0 1 1 1.663 0v5.647a4.585 4.585 0 0 1 -.555 2.183.416.416 0 1 0 .73.4 5.418 5.418 0 0 0 .656-2.581v-5.647a1.665 1.665 0 0 0 -1.663-1.666z" transform="translate(-254.943 -111.843)"/></svg>