<svg xmlns="http://www.w3.org/2000/svg" width="290" height="280" viewBox="0 0 290 280"><defs><style>.a{fill:none;stroke:#575756;stroke-width:4px;}.b{fill:#333;font-size:12px;font-family:Poppins-Regular, Poppins;}.c{fill:#c6c6c6;}</style></defs><g transform="translate(-80 -680)"><path class="a" d="M-631,4056.01l200,.175s40-2.936,40,40.8-40,41.146-40,41.146l-184,.247s-56-9.282-56,54.205,56,55.05,56,55.05l88-.422" transform="translate(759 -3344)"/><g transform="translate(0 16)"><text class="b" transform="translate(80 728)"><tspan x="26.996" y="13">Step 1</tspan></text><circle class="c" cx="28" cy="28" r="28" transform="translate(96 664)"/><g transform="translate(107 665.333)"><g transform="translate(0 10.667)"><path d="M33.391,29.8a3.091,3.091,0,0,0-.906-2.19,3.454,3.454,0,0,0,.89-2.656A3.6,3.6,0,0,0,29.748,21.8H21.153a20,20,0,0,0,1.107-5.565c0-3.018-2.564-5.565-4.174-5.565a4.37,4.37,0,0,0-2.521.847.7.7,0,0,0-.262.544v4.718L11.3,25.457l-.166.085v-.266a.7.7,0,0,0-.7-.7H3.478A3.481,3.481,0,0,0,0,28.058v11.13a3.481,3.481,0,0,0,3.478,3.478H7.652a3.486,3.486,0,0,0,3.274-2.3,9.07,9.07,0,0,0,3.683.909H27.38a3.2,3.2,0,0,0,3.153-2.429,3.141,3.141,0,0,0-.25-2.091,3.119,3.119,0,0,0,1.393-4.174A3.118,3.118,0,0,0,33.391,29.8Zm-2.934,1.717a.7.7,0,0,0-.4,1.2,1.724,1.724,0,0,1-.992,2.976.7.7,0,0,0-.4,1.2,1.72,1.72,0,0,1,.5,1.66,1.8,1.8,0,0,1-1.793,1.338H14.609A6.6,6.6,0,0,1,10.927,38.7a.7.7,0,0,0-1.188.493,2.089,2.089,0,0,1-2.087,2.087H3.478a2.089,2.089,0,0,1-2.087-2.087V28.058a2.089,2.089,0,0,1,2.087-2.087H9.739v.7a.7.7,0,0,0,.331.593.711.711,0,0,0,.676.029l1.391-.7a.7.7,0,0,0,.32-.33l4.174-9.044a.709.709,0,0,0,.064-.292V12.435a2.934,2.934,0,0,1,1.391-.377c.762,0,2.783,1.895,2.783,4.174a21.664,21.664,0,0,1-1.345,6.013.695.695,0,0,0,.65.943h9.574A2.2,2.2,0,0,1,31.99,25.08,2.078,2.078,0,0,1,31,27.048a.7.7,0,0,0,.047,1.212,1.723,1.723,0,0,1-.59,3.254Z" transform="translate(0 -10.667)"/></g><g transform="translate(9.739 25.971)"><path d="M150.029,245.333a.7.7,0,0,0-.7.7V258.55a.7.7,0,0,0,1.391,0V246.029A.7.7,0,0,0,150.029,245.333Z" transform="translate(-149.333 -245.333)"/></g></g></g><g transform="translate(-40 112)"><text class="b" transform="translate(288 728)"><tspan x="25.382" y="13">Step 3</tspan></text><circle class="c" cx="28" cy="28" r="28" transform="translate(304 664)"/><g transform="translate(296.83 672)"><g transform="translate(16.17 0)"><g transform="translate(0 0)"><path d="M52.7,16.207l-.989-1.428A8.562,8.562,0,0,0,44.937,11.1L34.494.653a2.2,2.2,0,0,0-3.67,2.2A15.93,15.93,0,0,0,34.9,9.567l-5.21-1.4a2.2,2.2,0,0,0-2.08,3.737A16.1,16.1,0,0,0,38.147,16.2a6.712,6.712,0,0,0-.2,1.617c0,.037,0,.075,0,.112H30.3a10.936,10.936,0,0,0-4.769,1.081.781.781,0,1,0,.676,1.409,9.386,9.386,0,0,1,4.093-.927H38.16a6.735,6.735,0,0,0,6.512,5.048h3.516a13.049,13.049,0,0,1-2.815,6.7v-.8a.781.781,0,1,0-1.562,0v5.17a.781.781,0,0,0,.781.781,2.83,2.83,0,0,1,2.715,2.044h-4.55l-1.845-7.311a.781.781,0,0,0-1.515.382l.9,3.582a13.052,13.052,0,0,1-2.3.744,4.375,4.375,0,0,0-1.825-.9,6,6,0,0,0,.049-1.512,5.913,5.913,0,0,0-5.754-5.412,6.272,6.272,0,0,0-4.344,1.711,5.832,5.832,0,0,0-1.836,4.266,5.972,5.972,0,0,0,.7,2.812A9.476,9.476,0,0,1,21.71,24.969a.781.781,0,0,0-1.416-.66,11.065,11.065,0,0,0-.752,7.1A4.348,4.348,0,1,0,24.114,38.1,10.973,10.973,0,0,0,30.292,40h8.522a.781.781,0,0,0,.781-.781,4.359,4.359,0,0,0-.508-2.047,14.614,14.614,0,0,0,1.6-.549l.7,2.787a.781.781,0,0,0,.757.59H48.2a.781.781,0,0,0,.781-.781A4.394,4.394,0,0,0,45.373,34.9V33.555a14.626,14.626,0,0,0,4.407-9.218,5.308,5.308,0,0,0,2.92-8.129Zm-32.18,22.23A2.786,2.786,0,0,1,20,32.914a11.077,11.077,0,0,0,2.883,4.211A2.806,2.806,0,0,1,20.519,38.437Zm9.784,0h-.012a4.433,4.433,0,1,1,.176-8.862,4.339,4.339,0,0,1,4.2,4,4.415,4.415,0,0,1-.2,1.8.781.781,0,0,0,.742,1.025h0a2.83,2.83,0,0,1,2.715,2.044H30.3ZM32.319,2.393a.612.612,0,0,1,.282-.731.62.62,0,0,1,.788.1l9.559,9.559a6.654,6.654,0,0,0-.686.224l-3.448-.924a14.4,14.4,0,0,1-6.5-8.223Zm-3.647,8.372a.612.612,0,0,1-.121-.774.62.62,0,0,1,.73-.312l11.091,2.972a6.769,6.769,0,0,0-1.623,1.986,14.525,14.525,0,0,1-10.078-3.872Zm19.663,12.21H44.672a5.16,5.16,0,1,1,0-10.321,7,7,0,0,1,5.754,3.014l.989,1.428a3.746,3.746,0,0,1-3.08,5.879Z" transform="translate(-16.17 0)"/><path d="M390.953,209.005a.782.782,0,1,0,.552.229A.789.789,0,0,0,390.953,209.005Z" transform="translate(-360.953 -192.677)"/></g></g><g transform="translate(22.229 20.973)"><path d="M94.5,270.016a.782.782,0,1,1,.552-.229A.787.787,0,0,1,94.5,270.016Z" transform="translate(-93.722 -268.454)"/></g></g></g><g transform="translate(-152 112)"><text class="b" transform="translate(288 728)"><tspan x="25.142" y="13">Step 4</tspan></text><circle class="c" cx="28" cy="28" r="28" transform="translate(304 664)"/><g transform="translate(316 638.998)"><g transform="translate(11 40.002)"><g transform="translate(0 0)"><path d="M149.339,51.889,130.089,40.2A1.375,1.375,0,0,0,128,41.376V53.064a1.375,1.375,0,1,0,2.75,0V43.82l15.225,9.244L130.75,62.308V58.564a1.375,1.375,0,0,0-2.75,0v6.188a1.375,1.375,0,0,0,2.089,1.175l19.25-11.688a1.374,1.374,0,0,0,0-2.35Z" transform="translate(-128 -40.002)"/></g></g><g transform="translate(0 60.626)"><g transform="translate(0 0)"><path d="M7.562,280H1.375a1.375,1.375,0,0,0,0,2.75H7.562a1.375,1.375,0,0,0,0-2.75Z" transform="translate(0 -279.999)"/></g></g><g transform="translate(0 42.751)"><g transform="translate(0 0)"><path d="M4.812,72H1.375a1.375,1.375,0,0,0,0,2.75H4.812a1.375,1.375,0,0,0,0-2.75Z" transform="translate(0 -71.999)"/></g></g><g transform="translate(5.5 48.251)"><path d="M66.063,136h-.688a1.375,1.375,0,1,0,0,2.75h.688a1.375,1.375,0,1,0,0-2.75Z" transform="translate(-64 -135.999)"/></g><g transform="translate(2.75 54.439)"><g transform="translate(0 0)"><path d="M35.438,208H33.375a1.375,1.375,0,1,0,0,2.75h2.062a1.375,1.375,0,0,0,0-2.75Z" transform="translate(-32 -207.999)"/></g></g></g></g><g transform="translate(0 16)"><text class="b" transform="translate(184 728)"><tspan x="25.466" y="13">Step 2</tspan></text><circle class="c" cx="28" cy="28" r="28" transform="translate(200 664)"/><g transform="translate(208 672)"><circle cx="1.953" cy="1.953" r="1.953" transform="translate(18.047 27.617)"/><path d="M20,0A20,20,0,1,0,40,20,19.989,19.989,0,0,0,20,0Zm0,36.875A16.875,16.875,0,1,1,36.875,20,16.866,16.866,0,0,1,20,36.875Z"/><path d="M182.25,128.5a6.257,6.257,0,0,0-6.25,6.25,1.563,1.563,0,0,0,3.125,0,3.125,3.125,0,1,1,3.125,3.125,1.562,1.562,0,0,0-1.562,1.563v3.906a1.563,1.563,0,0,0,3.125,0V140.8a6.25,6.25,0,0,0-1.562-12.3Z" transform="translate(-162.25 -118.461)"/></g></g><g transform="translate(0 208)"><text class="b" transform="translate(184 728)"><tspan x="25.148" y="13">Step 5</tspan></text><circle class="c" cx="28" cy="28" r="28" transform="translate(200 664)"/><g transform="translate(208 677)"><path d="M202.185,111.56l-8.837-4.835a1.623,1.623,0,0,0-2.4,1.424v9.587a1.62,1.62,0,0,0,2.392,1.429l8.837-4.752a1.623,1.623,0,0,0,.01-2.854Zm-8.9,4.97v-7.165l6.6,3.614Zm0,0" transform="translate(-176.028 -98.201)"/><path d="M39.706,7.151l0-.018c-.034-.322-.371-3.186-1.763-4.642A6.509,6.509,0,0,0,33.63.469l-.2-.024-.07-.007C28.073.053,20.087,0,20.007,0h-.014c-.08,0-8.066.053-13.4.437l-.07.007L6.333.468A6.345,6.345,0,0,0,2.047,2.551C.721,3.992.338,6.795.3,7.11l0,.041C.282,7.284,0,10.474,0,13.676v2.993c0,3.2.282,6.391.294,6.526l0,.02c.034.317.371,3.128,1.757,4.585a6.642,6.642,0,0,0,4.455,1.993c.163.019.3.034.4.051L7,29.857c3.053.291,12.626.434,13.032.439h.024c.08,0,8.066-.053,13.354-.437l.07-.007c.067-.009.142-.017.224-.025a6.2,6.2,0,0,0,4.249-2.033c1.326-1.441,1.71-4.244,1.749-4.558l0-.041c.012-.134.294-3.323.294-6.525V13.676C40,10.474,39.717,7.285,39.706,7.151Zm-2.05,9.518c0,2.964-.259,6.016-.283,6.3a7.442,7.442,0,0,1-1.15,3.247A3.855,3.855,0,0,1,33.456,27.5l-.25.028c-5.115.37-12.8.427-13.153.429-.4-.006-9.83-.15-12.79-.425-.152-.025-.316-.044-.488-.063a4.383,4.383,0,0,1-3-1.252l-.022-.023a6.752,6.752,0,0,1-1.127-3.215c-.019-.212-.284-3.3-.284-6.3V13.676c0-2.96.258-6.009.283-6.295a7.29,7.29,0,0,1,1.15-3.248A4.044,4.044,0,0,1,6.6,2.8l.191-.023C11.982,2.4,19.722,2.346,20,2.344s8.015.057,13.158.429l.206.024a4.2,4.2,0,0,1,2.871,1.3l.009.01A6.861,6.861,0,0,1,37.372,7.37c.018.2.284,3.295.284,6.306Zm0,0"/></g></g></g></svg>