<svg height="16" viewBox="0 0 19.187 16" width="19.187" xmlns="http://www.w3.org/2000/svg"><g transform="translate(-546.923 -477.232)"><path d="m556.53 477.232a9.6 9.6 0 0 0 -7.38 15.742.727.727 0 0 0 1.036.077l.011-.01a.754.754 0 0 0 .087-1.047 8.094 8.094 0 1 1 12.453.013.727.727 0 0 0 .076 1.016l.012.01a.755.755 0 0 0 1.077-.083 9.6 9.6 0 0 0 -7.373-15.717z"/><path d="m559.876 481.907-2.3 2.3a.86.86 0 0 0 -.074.089 2.69 2.69 0 1 0 1.14.966l2.3-2.3a.749.749 0 0 0 -1.06-1.06zm-3.474 6.417a1.574 1.574 0 1 1 1.574-1.574 1.575 1.575 0 0 1 -1.576 1.574z" transform="translate(.115 .076)"/></g></svg>