<svg height="23.212" viewBox="0 0 28.949 23.212" width="28.949" xmlns="http://www.w3.org/2000/svg"><path d="m3.431 14.649-3.185-2.975a.779.779 0 0 1 -.046-1.094.762.762 0 0 1 1.085-.042l1.749 1.636a11.584 11.584 0 0 1 2.681-8.025 11.394 11.394 0 0 1 7.812-4.1 11.6 11.6 0 0 1 12.445 10.277l2.776 3.056a.772.772 0 0 1 -.566 1.3.764.764 0 0 1 -.566-.251l-1.616-1.783a11.584 11.584 0 0 1 -2.648 6.416 11.385 11.385 0 0 1 -7.812 4.1c-.344.031-.683.045-1.02.045a11.609 11.609 0 0 1 -11.089-8.56zm11.087 7.017c.292 0 .588-.012.882-.037a9.894 9.894 0 0 0 6.773-3.557 10.034 10.034 0 0 0 2.3-5.685l-1.973 1.789a.762.762 0 0 1 -1.082-.059.778.778 0 0 1 .057-1.092l2.951-2.67a10.064 10.064 0 0 0 -9.882-8.805q-.44 0-.884.039a9.883 9.883 0 0 0 -6.772 3.557 10.041 10.041 0 0 0 -2.306 7.167l1.824-1.944a.765.765 0 0 1 1.085-.031.779.779 0 0 1 .031 1.094l-2.622 2.788a10.062 10.062 0 0 0 9.617 7.446z"/><path d="m10.863 5.261a5.6 5.6 0 1 1 -5.6 5.6 5.61 5.61 0 0 1 5.6-5.6m0-.261a5.863 5.863 0 1 0 5.863 5.863 5.855 5.855 0 0 0 -5.863-5.863z" transform="translate(3.563 .634)"/><path d="m35.069 40.894-.406-.811a.278.278 0 0 0 -.5 0l-1.262 2.546a.122.122 0 0 1 -.225-.023l-1.352-3.628a.283.283 0 0 0 -.518-.023l-.969 1.938a.277.277 0 0 1 -.248.158h-1.619a.274.274 0 0 0 -.27.27.274.274 0 0 0 .27.27h1.961a.277.277 0 0 0 .248-.158l.744-1.51a.087.087 0 0 1 .158 0l1.4 3.718a.283.283 0 0 0 .518.023l1.352-2.7a.105.105 0 0 1 .18 0l.225.451a.277.277 0 0 0 .244.155h2.524a.274.274 0 0 0 .27-.27.274.274 0 0 0 -.27-.27h-2.185a.3.3 0 0 1 -.27-.136z" stroke="#000" transform="translate(-18.235 -29.784)"/></svg>