<svg xmlns="http://www.w3.org/2000/svg" width="15.974" height="16.001" viewBox="0 0 15.974 16.001"><g transform="translate(-54.343 -254.116)"><path d="M61.01,254.116a4,4,0,0,0-4,4v1.333a3.977,3.977,0,0,0,.681,2.231,6.661,6.661,0,0,0-3.348,5.769v.667a2,2,0,0,0,2,2h6a.667.667,0,1,0,.052-1.333H56.343a.667.667,0,0,1-.667-.667v-.667a5.34,5.34,0,0,1,2.967-4.779,3.992,3.992,0,0,0,6.363-3.221v-1.333A4,4,0,0,0,61.01,254.116Zm2.666,5.333a2.667,2.667,0,0,1-5.333,0v-1.333a2.667,2.667,0,0,1,5.333,0Z"/><path d="M69.676,265.449H67.009v-2.667a.667.667,0,0,0-1.333,0v2.667H63.009a.667.667,0,0,0-.051,1.333h2.718v2.667a.667.667,0,0,0,1.333,0v-2.667h2.667a.667.667,0,0,0,0-1.333Z"/></g></svg>