<svg height="16" viewBox="0 0 19.955 16" width="19.955" xmlns="http://www.w3.org/2000/svg"><path d="m2.365 10.1-2.196-2.053a.537.537 0 0 1 -.029-.754.525.525 0 0 1 .748-.029l1.206 1.127a7.985 7.985 0 0 1 1.845-5.531 7.854 7.854 0 0 1 5.385-2.829 8 8 0 0 1 8.576 7.087l1.913 2.106a.532.532 0 0 1 -.39.893.527.527 0 0 1 -.39-.173l-1.112-1.226a7.985 7.985 0 0 1 -1.821 4.423 7.848 7.848 0 0 1 -5.385 2.828c-.237.021-.47.031-.7.031a8 8 0 0 1 -7.65-5.9zm7.642 4.837c.2 0 .405-.008.608-.025a6.82 6.82 0 0 0 4.669-2.452 6.917 6.917 0 0 0 1.588-3.919l-1.363 1.23a.525.525 0 0 1 -.746-.041.536.536 0 0 1 .039-.753l2.034-1.84a6.937 6.937 0 0 0 -6.812-6.069q-.3 0-.609.027a6.813 6.813 0 0 0 -4.667 2.452 6.922 6.922 0 0 0 -1.59 4.94l1.257-1.34a.527.527 0 0 1 .748-.021.537.537 0 0 1 .021.754l-1.804 1.92a6.936 6.936 0 0 0 6.627 5.134z"/><g transform="translate(6.169 4.136)"><path d="m3.7911365 4.57842636-.78729009-.78728986.78729009-.78729009.78728986.78729009z"/><path d="m4.2127142 7.58226967h-.84315539v-3.36955547h-3.36955564v-.84315539h3.36955564v-3.36955564h.84315539v3.36955564h3.36955547v.84315539h-3.36955547z"/></g></svg>