<svg height="16" viewBox="0 0 21.333 16" width="21.333" xmlns="http://www.w3.org/2000/svg"><path d="m216.656 6692.166 5.683-5.934a.5.5 0 0 1 .866.39v2.55c0 .609.517 1.655 1.105 1.655h-.021c.589 0 1.044-1.045 1.044-1.655v-5.516c0-1.219-.873-1.655-2.047-1.655h-5.318c-.587 0-1.145.219-1.145.827v.139a1.283 1.283 0 0 0 1.145 1.241h2.6c.475 0 .711.319.377.666l-5.04 5.088a1.039 1.039 0 0 1 -1.5-.067l-.438-.491a2.075 2.075 0 0 0 -3.009-.016l-6.7 6.737c-.416.43-.2 1.125-.2 1.555 1.063.432 1.285.431 1.7 0l5.849-5.965a1.1 1.1 0 0 1 1.554 0l.459.453a2.1 2.1 0 0 0 3.036 0" fill="#111" fill-rule="evenodd" transform="translate(-204 -6682.001)"/></svg>