<svg height="16" viewBox="0 0 14.4 16" width="14.4" xmlns="http://www.w3.org/2000/svg"><path d="m338.058 6490.878-1.18 1.13a.392.392 0 0 1 -.663-.29v-11.918a.811.811 0 0 0 -.813-.8h.006a.794.794 0 0 0 -.794.8v11.905a.41.41 0 0 1 -.691.288l-1.17-1.123a.8.8 0 0 0 -1.129.031.794.794 0 0 0 .034 1.118l2.672 2.541a1.6 1.6 0 0 0 2.2-.006l2.624-2.519a.791.791 0 0 0 .034-1.112l-.008-.008a.792.792 0 0 0 -1.122-.04m-12.838-7.8-.008-.008a.791.791 0 0 1 .034-1.111l2.624-2.52a1.6 1.6 0 0 1 2.2-.006l2.672 2.542a.792.792 0 0 1 .035 1.116.792.792 0 0 1 -1.126.032l-1.163-1.123a.4.4 0 0 0 -.679.288v11.9a.8.8 0 1 1 -1.6 0v-11.917a.4.4 0 0 0 -.676-.29l-1.193 1.13a.793.793 0 0 1 -1.122-.041" fill="#111" fill-rule="evenodd" transform="translate(-325 -6479)"/></svg>