<svg height="13.844" viewBox="0 0 16 13.844" width="16" xmlns="http://www.w3.org/2000/svg"><g transform="translate(-166.876 -255.195)"><path d="m181.907 257.055h-.7v-1.141a.719.719 0 0 0 -.719-.719h-.5a.719.719 0 0 0 -.719.719v1.142h-1.63v-1.142a.719.719 0 0 0 -.719-.719h-.5a.72.72 0 0 0 -.719.719v1.142h-1.64v-1.142a.719.719 0 0 0 -.719-.719h-.5a.72.72 0 0 0 -.719.719v1.142h-1.633v-1.142a.719.719 0 0 0 -.719-.719h-.5a.72.72 0 0 0 -.719.719v1.142h-.7a.97.97 0 0 0 -.976.964v10.18a.845.845 0 0 0 .844.844h14.312a.845.845 0 0 0 .844-.844v-10.176a.969.969 0 0 0 -.969-.969zm-2.207-1.141a.282.282 0 0 1 .281-.281h.5a.281.281 0 0 1 .281.281v1.142h-1.062zm-3.571 0a.282.282 0 0 1 .281-.281h.5a.281.281 0 0 1 .281.281v1.142h-1.063zm-3.572 0a.282.282 0 0 1 .281-.281h.5a.281.281 0 0 1 .281.281v1.142h-1.062zm-3.572 0a.282.282 0 0 1 .281-.281h.5a.281.281 0 0 1 .281.281v1.142h-1.062zm-1.672 2.11a.532.532 0 0 1 .531-.531h14.063a.531.531 0 0 1 .531.531v1.422h-15.125zm15.126 10.176a.407.407 0 0 1 -.406.406h-14.313a.408.408 0 0 1 -.406-.406v-8.311h15.125z"/><path d="m168.6 262.624h1.342a.469.469 0 0 0 .469-.469v-.994a.469.469 0 0 0 -.469-.469h-1.342a.469.469 0 0 0 -.469.469v.991a.469.469 0 0 0 .469.469zm-.031-1.46a.031.031 0 0 1 .031-.031h1.342a.031.031 0 0 1 .031.031v.991a.031.031 0 0 1 -.031.031h-1.342a.031.031 0 0 1 -.031-.031z"/><path d="m172.335 262.624h1.342a.469.469 0 0 0 .469-.469v-.994a.469.469 0 0 0 -.469-.469h-1.342a.469.469 0 0 0 -.469.469v.991a.469.469 0 0 0 .469.469zm-.031-1.46a.031.031 0 0 1 .031-.031h1.342a.031.031 0 0 1 .031.031v.991a.031.031 0 0 1 -.031.031h-1.342a.031.031 0 0 1 -.031-.031z"/><path d="m176.075 262.624h1.342a.469.469 0 0 0 .469-.469v-.994a.469.469 0 0 0 -.469-.469h-1.342a.469.469 0 0 0 -.469.469v.991a.47.47 0 0 0 .466.472zm-.032-1.463a.031.031 0 0 1 .031-.031h1.342a.031.031 0 0 1 .031.031v.991a.031.031 0 0 1 -.031.031h-1.341a.031.031 0 0 1 -.031-.031z"/><path d="m179.816 262.624h1.342a.469.469 0 0 0 .469-.469v-.994a.469.469 0 0 0 -.469-.469h-1.342a.469.469 0 0 0 -.469.469v.991a.47.47 0 0 0 .466.472zm-.033-1.463a.031.031 0 0 1 .031-.031h1.342a.031.031 0 0 1 .031.031v.991a.031.031 0 0 1 -.031.031h-1.342a.031.031 0 0 1 -.031-.031z"/><path d="m168.6 265.206h1.342a.469.469 0 0 0 .469-.469v-.99a.469.469 0 0 0 -.469-.469h-1.342a.469.469 0 0 0 -.469.469v.991a.47.47 0 0 0 .469.468zm-.031-1.46a.031.031 0 0 1 .031-.031h1.342a.031.031 0 0 1 .031.031v.991a.031.031 0 0 1 -.031.031h-1.342a.031.031 0 0 1 -.031-.031z"/><path d="m172.335 265.206h1.342a.469.469 0 0 0 .469-.469v-.99a.469.469 0 0 0 -.469-.469h-1.342a.469.469 0 0 0 -.469.469v.991a.47.47 0 0 0 .469.468zm-.031-1.46a.031.031 0 0 1 .031-.031h1.342a.031.031 0 0 1 .031.031v.991a.031.031 0 0 1 -.031.031h-1.342a.031.031 0 0 1 -.031-.031z"/><path d="m176.075 265.206h1.342a.469.469 0 0 0 .469-.469v-.99a.469.469 0 0 0 -.469-.469h-1.342a.469.469 0 0 0 -.469.469v.991a.47.47 0 0 0 .469.468zm-.031-1.46a.031.031 0 0 1 .031-.031h1.342a.031.031 0 0 1 .031.031v.991a.031.031 0 0 1 -.031.031h-1.342a.031.031 0 0 1 -.031-.031z"/><path d="m179.815 265.206h1.342a.469.469 0 0 0 .469-.469v-.99a.469.469 0 0 0 -.469-.469h-1.342a.469.469 0 0 0 -.469.469v.991a.47.47 0 0 0 .469.468zm-.031-1.46a.031.031 0 0 1 .031-.031h1.342a.031.031 0 0 1 .031.031v.991a.031.031 0 0 1 -.031.031h-1.342a.031.031 0 0 1 -.031-.031z"/><path d="m168.6 267.789h1.342a.469.469 0 0 0 .469-.469v-.991a.469.469 0 0 0 -.469-.469h-1.342a.469.469 0 0 0 -.469.469v.991a.469.469 0 0 0 .469.469zm-.031-1.459a.031.031 0 0 1 .031-.031h1.342a.031.031 0 0 1 .031.031v.991a.031.031 0 0 1 -.031.031h-1.342a.031.031 0 0 1 -.031-.031z"/><path d="m172.335 267.789h1.342a.469.469 0 0 0 .469-.469v-.991a.469.469 0 0 0 -.469-.469h-1.342a.469.469 0 0 0 -.469.469v.991a.469.469 0 0 0 .469.469zm-.031-1.459a.031.031 0 0 1 .031-.031h1.342a.031.031 0 0 1 .031.031v.991a.031.031 0 0 1 -.031.031h-1.342a.031.031 0 0 1 -.031-.031z"/><path d="m177.728 265.98a.219.219 0 0 0 -.307.041l-.912 1.193-.512-.647a.219.219 0 0 0 -.352.26l.009.012.688.868a.224.224 0 0 0 .171.083.221.221 0 0 0 .172-.086l1.084-1.414a.219.219 0 0 0 -.037-.308z"/><path d="m181.469 265.98a.219.219 0 0 0 -.307.041l-.912 1.193-.512-.647a.219.219 0 0 0 -.352.26l.009.012.688.868a.222.222 0 0 0 .172.083.221.221 0 0 0 .172-.086l1.082-1.416a.22.22 0 0 0 -.039-.308z"/></g></svg>