<svg height="15.999" viewBox="0 0 10.811 15.999" width="10.811" xmlns="http://www.w3.org/2000/svg"><g transform="translate(-169.471 -432.677)"><path d="m179.812 432.677h-9.872a.469.469 0 0 0 -.469.469v13.163a.469.469 0 0 0 .469.469h3.526v1.429a.469.469 0 0 0 .47.468.479.479 0 0 0 .119-.015l.821-.218.821.218a.469.469 0 0 0 .573-.334.437.437 0 0 0 .016-.119v-1.432h3.527a.469.469 0 0 0 .469-.469v-13.16a.469.469 0 0 0 -.469-.469zm-4.812 14.823a.469.469 0 0 0 -.241 0l-.352.094v-.867a1.8 1.8 0 0 0 .945 0v.867zm.759-2.528a.879.879 0 1 1 -.879-.879.88.88 0 0 1 .875.882zm3.589.864h-2.87a1.817 1.817 0 1 0 -3.2 0h-2.865v-12.221h8.939v12.225z"/><path d="m172.053 442.087h5.647a.469.469 0 0 0 0-.937h-5.647a.469.469 0 0 0 0 .938z"/><path d="m172.053 440.2h5.647a.469.469 0 0 0 0-.937h-5.647a.469.469 0 1 0 0 .938z"/><path d="m172.053 438.321h5.647a.469.469 0 0 0 0-.937h-5.647a.469.469 0 1 0 0 .938z"/><path d="m172.053 436.438h3.765a.469.469 0 0 0 0-.937h-3.765a.469.469 0 1 0 0 .938z"/></g></svg>