<svg height="18" viewBox="0 0 18 18" width="18" xmlns="http://www.w3.org/2000/svg" xmlns:xlink="http://www.w3.org/1999/xlink"><clipPath id="a"><path clip-rule="evenodd" d="m19 3h-14a2.006 2.006 0 0 0 -2 2v14a2.006 2.006 0 0 0 2 2h14a2.006 2.006 0 0 0 2-2v-14a2.006 2.006 0 0 0 -2-2zm-9 14-5-4.808 1.4-1.346 3.6 3.462 7.6-7.308 1.4 1.346z"/></clipPath><g clip-path="url(#a)" transform="translate(-3 -3)"><path d="m19 3h-14a2.006 2.006 0 0 0 -2 2v14a2.006 2.006 0 0 0 2 2h14a2.006 2.006 0 0 0 2-2v-14a2.006 2.006 0 0 0 -2-2zm-9 14-5-4.808 1.4-1.346 3.6 3.462 7.6-7.308 1.4 1.346z" fill-rule="evenodd"/></g></svg>