<svg height="14.722" viewBox="0 0 16 14.722" width="16" xmlns="http://www.w3.org/2000/svg"><g transform="translate(-54.33 -341.475)"><path d="m68.13 341.475h-11.6a2.2 2.2 0 0 0 -2.2 2.2v7.1a2.2 2.2 0 0 0 2.192 2.2v3.225l4.63-3.222h6.978a2.2 2.2 0 0 0 2.2-2.2v-7.1a2.2 2.2 0 0 0 -2.2-2.203zm1.262 9.3a1.263 1.263 0 0 1 -1.262 1.261h-7.272l-3.4 2.365v-2.365h-.928a1.264 1.264 0 0 1 -1.262-1.262v-7.1a1.264 1.264 0 0 1 1.262-1.263h11.6a1.264 1.264 0 0 1 1.263 1.263z"/><path d="m58.612 344.788h7.435v.938h-7.435z"/><path d="m58.612 346.788h7.435v.938h-7.435z"/><path d="m58.612 348.788h7.435v.938h-7.435z"/></g></svg>