<svg xmlns="http://www.w3.org/2000/svg" width="15.999" height="15.88" viewBox="0 0 15.999 15.88"><g transform="translate(-223.156 -254.177)"><path d="M232.489,260.116l5.873,1.167a.986.986,0,0,1,.793.973v6.8a1,1,0,0,1-1,1h-6a.33.33,0,0,0,.333-.327v-.339h5.668a.334.334,0,0,0,.333-.333v-6.8a.336.336,0,0,0-.26-.327l-5.74-1.134Z"/><path d="M236.156,263.39a.333.333,0,0,1,0,.667h-1.334a.333.333,0,1,1,0-.667Z"/><path d="M236.156,265.39a.333.333,0,0,1,0,.667h-1.334a.333.333,0,1,1,0-.667Z"/><path d="M236.156,267.39a.333.333,0,0,1,0,.667h-1.334a.333.333,0,1,1,0-.667Z"/><path d="M232.49,269.723a.334.334,0,1,1-.667,0h0v-9.334a.329.329,0,0,1,.4-.327l.267.053v9.607Z"/><path d="M231.822,269.39v.333a.329.329,0,0,0,.326.333h-2.659a.33.33,0,0,0,.333-.327v-.339Z"/><path d="M230.156,257.39a.333.333,0,0,1,0,.667h-1.334a.333.333,0,1,1,0-.667Z"/><path d="M230.489,259.723a.33.33,0,0,1-.327.333h-1.34a.333.333,0,1,1,0-.667h1.334a.331.331,0,0,1,.333.327Z"/><path d="M230.156,261.39a.333.333,0,0,1,0,.667h-1.334a.333.333,0,1,1,0-.667Z"/><path d="M230.156,263.39a.333.333,0,0,1,0,.667h-1.334a.333.333,0,1,1,0-.667Z"/><path d="M227.156,263.723a.33.33,0,0,1-.327.333h-1.34a.333.333,0,1,1,0-.667h1.334a.331.331,0,0,1,.333.327Z"/><path d="M226.823,257.39a.333.333,0,0,1,0,.667h-1.334a.333.333,0,1,1,0-.667Z"/><path d="M226.823,259.39a.333.333,0,0,1,0,.667h-1.334a.333.333,0,1,1,0-.667Z"/><path d="M226.823,261.39a.333.333,0,0,1,0,.667h-1.334a.333.333,0,1,1,0-.667Z"/><path d="M229.156,266.39a.335.335,0,0,0-.333-.333h-2a.33.33,0,0,0-.333.327v3.006h-.667v-3a1,1,0,0,1,1-1h2a1,1,0,0,1,1,1v3h-.667Z"/><path d="M226.49,269.39h3.333v.333a.33.33,0,0,1-.327.333h-3.34a.329.329,0,0,1-.333-.327v-.339Z"/><path d="M224.323,254.19l7.326,1.113a1,1,0,0,1,.84.987v3.826l-.267-.053a.329.329,0,0,0-.4.327v-4.1a.338.338,0,0,0-.28-.333l-7.326-1.107a.2.2,0,0,0-.06-.007.313.313,0,0,0-.213.08.317.317,0,0,0-.12.253v13.88a.333.333,0,0,0,.333.334h1.667v.333a.329.329,0,0,0,.326.333h-1.993a1,1,0,0,1-1-1v-13.88a.98.98,0,0,1,.353-.76A1,1,0,0,1,224.323,254.19Z"/></g></svg>