<svg height="16" viewBox="0 0 17.152 16" width="17.152" xmlns="http://www.w3.org/2000/svg"><path d="m16.314 31.513h-.214v-4.148a.251.251 0 1 0 -.5 0v4.149h-5.33v-6.83h5.125a.206.206 0 0 1 .205.205v1.292a.251.251 0 0 0 .5 0v-1.292a.709.709 0 0 0 -.708-.708h-5.123v-4.566a.711.711 0 0 0 -.648-.705v-.5a.711.711 0 0 0 -.653-.706l-6.507-.51a.708.708 0 0 0 -.761.706v.4a.708.708 0 0 0 -.65.7v12.51h-.213a.837.837 0 0 0 0 1.675h15.477a.837.837 0 1 0 0-1.675zm-14.114-13.613a.205.205 0 0 1 .221-.2l6.507.51a.206.206 0 0 1 .189.2v.464l-6.917-.545zm-.647 1.1a.205.205 0 0 1 .221-.2l7.8.612a.206.206 0 0 1 .189.2v11.9h-.7v-3.6a.415.415 0 0 0 -.413-.412h-2.334a.415.415 0 0 0 -.415.415v1.63a.251.251 0 0 0 .5 0v-1.545h2.161v3.509h-2.162v-.793a.251.251 0 0 0 -.5 0v.793h-4.347zm14.761 13.686h-15.477a.335.335 0 0 1 0-.67h15.477a.335.335 0 1 1 0 .67z" transform="translate(0 -17.188)"/><path d="m63.4 115.352h1.017a.434.434 0 0 0 .434-.434v-.782a.434.434 0 0 0 -.434-.434h-1.017a.434.434 0 0 0 -.434.434v.782a.434.434 0 0 0 .434.434zm.069-1.147h.879v.645h-.879z" transform="translate(-60.854 -110.469)"/><path d="m139.091 115.352h1.017a.434.434 0 0 0 .434-.434v-.782a.434.434 0 0 0 -.434-.434h-1.017a.434.434 0 0 0 -.434.434v.782a.434.434 0 0 0 .434.434zm.069-1.147h.879v.645h-.879z" transform="translate(-134.012 -110.469)"/><path d="m214.784 115.352h1.016a.434.434 0 0 0 .434-.434v-.782a.434.434 0 0 0 -.434-.434h-1.017a.434.434 0 0 0 -.434.434v.782a.434.434 0 0 0 .435.434zm.069-1.147h.879v.645h-.879z" transform="translate(-207.169 -110.469)"/><path d="m63.4 182.788h1.017a.434.434 0 0 0 .434-.434v-.782a.434.434 0 0 0 -.434-.434h-1.017a.434.434 0 0 0 -.434.434v.782a.434.434 0 0 0 .434.434zm.069-1.147h.879v.645h-.879z" transform="translate(-60.854 -175.646)"/><path d="m139.091 182.788h1.017a.434.434 0 0 0 .434-.434v-.782a.434.434 0 0 0 -.434-.434h-1.017a.434.434 0 0 0 -.434.434v.782a.434.434 0 0 0 .434.434zm.069-1.147h.879v.645h-.879z" transform="translate(-134.012 -175.646)"/><path d="m214.784 182.788h1.016a.434.434 0 0 0 .434-.434v-.782a.434.434 0 0 0 -.434-.434h-1.017a.434.434 0 0 0 -.434.434v.782a.434.434 0 0 0 .435.434zm.069-1.147h.879v.645h-.879z" transform="translate(-207.169 -175.646)"/><path d="m63.4 250.225h1.017a.434.434 0 0 0 .434-.434v-.782a.434.434 0 0 0 -.434-.434h-1.017a.434.434 0 0 0 -.434.434v.782a.434.434 0 0 0 .434.434zm.069-1.147h.879v.645h-.879z" transform="translate(-60.854 -240.824)"/><path d="m65.7 325.052h-2.255a.483.483 0 0 0 -.482.482v.685a.483.483 0 0 0 .482.482h2.255a.483.483 0 0 0 .482-.482v-.685a.483.483 0 0 0 -.482-.482zm-.02 1.147h-2.215v-.645h2.211z" transform="translate(-60.854 -314.739)"/><path d="m139.091 250.225h1.017a.434.434 0 0 0 .434-.434v-.782a.434.434 0 0 0 -.434-.434h-1.017a.434.434 0 0 0 -.434.434v.782a.434.434 0 0 0 .434.434zm.069-1.147h.879v.645h-.879z" transform="translate(-134.012 -240.824)"/><path d="m214.784 250.225h1.016a.434.434 0 0 0 .434-.434v-.782a.434.434 0 0 0 -.434-.434h-1.017a.434.434 0 0 0 -.434.434v.782a.434.434 0 0 0 .435.434zm.069-1.147h.879v.645h-.879z" transform="translate(-207.169 -240.824)"/><path d="m324.3 277.962a.463.463 0 0 0 -.462-.462h-1.026a.463.463 0 0 0 -.462.462v.814a.463.463 0 0 0 .462.462h1.026a.463.463 0 0 0 .462-.462zm-.5.773h-.945v-.735h.945z" transform="translate(-311.552 -268.78)"/><path d="m323.839 346.717h-1.026a.463.463 0 0 0 -.462.462v.814a.463.463 0 0 0 .462.462h1.026a.463.463 0 0 0 .462-.462v-.814a.463.463 0 0 0 -.462-.462zm-.04 1.236h-.945v-.733h.945z" transform="translate(-311.552 -335.678)"/><path d="m394.062 277.962a.463.463 0 0 0 -.462-.462h-1.026a.463.463 0 0 0 -.462.462v.814a.463.463 0 0 0 .462.462h1.026a.463.463 0 0 0 .462-.462zm-.5.773h-.945v-.735h.945z" transform="translate(-378.977 -268.78)"/><path d="m393.6 346.717h-1.026a.463.463 0 0 0 -.462.462v.814a.463.463 0 0 0 .462.462h1.026a.463.463 0 0 0 .462-.462v-.814a.463.463 0 0 0 -.462-.462zm-.04 1.236h-.945v-.733h.945z" transform="translate(-378.977 -335.678)"/></svg>