<svg xmlns="http://www.w3.org/2000/svg" width="15.996" height="15.197" viewBox="0 0 15.996 15.197"><g transform="translate(-110.599 -480.435)"><path d="M125.915,480.435H114.739a.681.681,0,0,0-.68.68V484.2l-.511-.767a.79.79,0,0,0-1.067-.24l-1.052.631a1.537,1.537,0,0,0-.7.914c-.384,1.4-.1,3.8,3.433,7.335,2.809,2.806,4.9,3.561,6.346,3.561a3.721,3.721,0,0,0,.99-.129,1.548,1.548,0,0,0,.914-.7l.631-1.053a.791.791,0,0,0-.24-1.066l-2.522-1.679a.8.8,0,0,0-1.064.173l-.733.944a.255.255,0,0,1-.326.069l-.14-.077a8.369,8.369,0,0,1-2.184-1.718c-.125-.125-.238-.242-.344-.353h10.425a.681.681,0,0,0,.68-.677v-8.251A.682.682,0,0,0,125.915,480.435Zm-8.152,12.145.136.074a.786.786,0,0,0,1.007-.208l.733-.942a.259.259,0,0,1,.347-.056l2.517,1.674a.259.259,0,0,1,.078.347l-.631,1.053a1.018,1.018,0,0,1-.6.464c-1.261.347-3.468.053-6.817-3.3s-3.639-5.548-3.293-6.807a1.011,1.011,0,0,1,.464-.6l1.053-.632a.258.258,0,0,1,.347.078l1.679,2.518a.26.26,0,0,1-.056.347l-.943.733a.785.785,0,0,0-.208,1.007l.075.136a12.186,12.186,0,0,0,4.112,4.114Zm8.3-3.214a.146.146,0,0,1-.147.144H115.009a6.667,6.667,0,0,1-.89-1.3l-.077-.14a.253.253,0,0,1,.069-.326l.943-.733a.794.794,0,0,0,.173-1.064l-.633-.949v-3.883a.145.145,0,0,1,.143-.147h11.178a.145.145,0,0,1,.147.143v8.255Z"/><path d="M125,481.67l-4.458,3.381a.359.359,0,0,1-.423,0l-4.456-3.381a.267.267,0,0,0-.322.425l4.457,3.381a.9.9,0,0,0,1.067,0l4.458-3.381a.267.267,0,0,0-.322-.425Z"/><path d="M118.051,485.5l-2.732,2.926a.267.267,0,1,0,.374.381l.016-.017,2.728-2.927a.267.267,0,0,0-.39-.363Z"/><path d="M122.62,485.5a.267.267,0,0,0-.39.364l2.732,2.926a.267.267,0,0,0,.39-.364Z"/></g></svg>