<svg height="16" viewBox="0 0 14.945 16" width="14.945" xmlns="http://www.w3.org/2000/svg"><g transform="translate(-1161.895 -337.473)"><path d="m1166.442 337.473h-1.833a2.721 2.721 0 0 0 -2.713 2.713v4.346a2.721 2.721 0 0 0 2.714 2.713h1.833a2.721 2.721 0 0 0 2.713-2.713v-4.346a2.721 2.721 0 0 0 -2.714-2.713zm1.86 2.713v4.345a1.868 1.868 0 0 1 -1.861 1.861h-1.833a1.869 1.869 0 0 1 -1.861-1.861v-4.345a1.868 1.868 0 0 1 1.861-1.861h1.833a1.868 1.868 0 0 1 1.859 1.861z"/><path d="m1424.981 337.473h-1.833a2.721 2.721 0 0 0 -2.713 2.713v1.373a2.721 2.721 0 0 0 2.714 2.713h1.833a2.721 2.721 0 0 0 2.713-2.713v-1.373a2.721 2.721 0 0 0 -2.714-2.713zm1.86 2.713v1.373a1.869 1.869 0 0 1 -1.861 1.861h-1.833a1.869 1.869 0 0 1 -1.861-1.861v-1.373a1.869 1.869 0 0 1 1.861-1.861h1.833a1.869 1.869 0 0 1 1.861 1.861z" transform="translate(-250.854)"/><path d="m1424.981 581.987h-1.833a2.721 2.721 0 0 0 -2.713 2.713v3.305a2.721 2.721 0 0 0 2.714 2.713h1.833a2.721 2.721 0 0 0 2.713-2.713v-3.305a2.721 2.721 0 0 0 -2.714-2.713zm1.86 2.713v3.305a1.869 1.869 0 0 1 -1.861 1.861h-1.833a1.869 1.869 0 0 1 -1.861-1.861v-3.3a1.869 1.869 0 0 1 1.861-1.861h1.833a1.869 1.869 0 0 1 1.861 1.856z" transform="translate(-250.854 -237.246)"/><path d="m1166.442 679.6h-1.833a2.721 2.721 0 0 0 -2.713 2.713v.4a2.721 2.721 0 0 0 2.714 2.713h1.833a2.721 2.721 0 0 0 2.713-2.713v-.4a2.721 2.721 0 0 0 -2.714-2.713zm1.86 2.713v.4a1.868 1.868 0 0 1 -1.861 1.861h-1.833a1.869 1.869 0 0 1 -1.861-1.861v-.4a1.868 1.868 0 0 1 1.861-1.861h1.833a1.868 1.868 0 0 1 1.859 1.862z" transform="translate(0 -331.959)"/></g></svg>