<svg height="15.999" viewBox="0 0 16 15.999" width="16" xmlns="http://www.w3.org/2000/svg"><g transform="translate(-166.876 -480.034)"><path d="m182.611 493.633h-.267v-8.267a1.335 1.335 0 0 0 -1.333-1.333h-1.866v-.8a.264.264 0 0 0 -.11-.213l-4-2.935a.269.269 0 0 0 -.315 0l-4 2.933a.269.269 0 0 0 -.11.213v.8h-1.866a1.335 1.335 0 0 0 -1.334 1.333v8.267h-.266a.268.268 0 0 0 -.269.265v.8a1.335 1.335 0 0 0 1.335 1.333h13.334a1.335 1.335 0 0 0 1.331-1.333v-.8a.267.267 0 0 0 -.264-.263zm-3.466-6.933a.533.533 0 1 1 0 1.067zm-4.269-6.067 3.537 2.59-.868.579v-.569a.267.267 0 0 0 -.267-.267h-4.8a.268.268 0 0 0 -.267.267v.568l-.866-.578zm2.133 2.869v.657l-2.133 1.42-2.131-1.422v-.657zm-5.864.231 3.585 2.39a.265.265 0 0 0 .3 0l3.581-2.39v4.033h-7.466zm-.269 4.567h8.267a1.067 1.067 0 0 0 0-2.133v-.534h1.6v6.933h-11.732v-6.933h1.6v.533a1.067 1.067 0 0 0 0 2.133zm-.267-1.6v1.066a.533.533 0 0 1 0-1.067zm-2.664-1.334a.8.8 0 0 1 .8-.8h1.866v.533h-1.866a.268.268 0 0 0 -.267.267v7.467a.267.267 0 0 0 .267.267h12.266a.267.267 0 0 0 .265-.267v-7.467a.267.267 0 0 0 -.267-.267h-1.864v-.533h1.867a.8.8 0 0 1 .8.8v8.267h-5.336a.268.268 0 0 0 -.267.267.266.266 0 0 1 -.267.267h-2.131a.267.267 0 0 1 -.267-.267.267.267 0 0 0 -.267-.267h-5.332zm14.4 9.333a.8.8 0 0 1 -.8.8h-13.334a.8.8 0 0 1 -.8-.8v-.533h5.646a.8.8 0 0 0 .754.533h2.134a.8.8 0 0 0 .754-.533h5.646z"/><path d="m174.611 488.833h.533v.533h-.533z"/><path d="m174.611 489.9h.533v.533h-.533z"/><path d="m173.545 489.9h.533v.533h-.533z"/><path d="m175.678 489.9h.533v.533h-.533z"/><path d="m174.611 490.966h.533v.533h-.533z"/><path d="m173.545 490.966h.533v.533h-.533z"/><path d="m172.478 490.966h.533v.533h-.533z"/><path d="m175.678 490.966h.533v.533h-.533z"/><path d="m176.745 490.966h.533v.533h-.533z"/></g></svg>