<svg height="15.919" viewBox="0 0 15.997 15.919" width="15.997" xmlns="http://www.w3.org/2000/svg"><g transform="translate(-279.434 -254.157)"><path d="m294.2 264.148a.4.4 0 0 0 -.4.4v3.538a1.2 1.2 0 0 1 -1.2 1.2h-11.174a1.2 1.2 0 0 1 -1.2-1.2v-10.386a1.2 1.2 0 0 1 1.2-1.2h3.538a.4.4 0 0 0 0-.8h-3.538a2 2 0 0 0 -1.992 2v10.384a2 2 0 0 0 1.992 1.992h11.181a2 2 0 0 0 1.992-1.992v-3.538a.4.4 0 0 0 -.399-.398z"/><path d="m294.442 254.683a1.793 1.793 0 0 0 -2.536 0l-7.106 7.117a.4.4 0 0 0 -.1.175l-.935 3.375a.4.4 0 0 0 .49.49l3.374-.94a.4.4 0 0 0 .175-.1l7.109-7.109a1.8 1.8 0 0 0 0-2.536zm-8.777 7.368 5.818-5.818 1.872 1.876-5.818 5.818zm-.375.752 1.5 1.5-2.074.575zm9.056-5.68-.423.423-1.877-1.877.423-.423a1 1 0 0 1 1.409 0l.468.468a1 1 0 0 1 0 1.409z"/></g></svg>