<svg height="16" viewBox="0 0 17.355 16" width="17.355" xmlns="http://www.w3.org/2000/svg"><path d="m59.158 76.567h4.835a.339.339 0 0 0 0-.678h-3.577l5.084-2.954 5.086 2.954h-3.62a.339.339 0 0 0 0 .678h4.878a.339.339 0 0 0 .17-.632l-6.341-3.685a.339.339 0 0 0 -.34 0l-6.345 3.685a.339.339 0 0 0 .17.632z" transform="translate(-56.825 -70.434)"/><path d="m17.355 27.326v-2.267a.339.339 0 0 0 -.172-.295l-8.338-4.737a.339.339 0 0 0 -.335 0l-8.338 4.737a.339.339 0 0 0 -.172.295v2.267a.339.339 0 0 0 .339.339h.336a1.174 1.174 0 0 0 .725 1.621v4.4a1.174 1.174 0 0 0 -.725 1.622h-.336a.339.339 0 0 0 0 .678h16.677a.339.339 0 0 0 0-.678h-.325a1.174 1.174 0 0 0 -.725-1.621v-4.4a1.174 1.174 0 0 0 .725-1.621h.325a.339.339 0 0 0 .339-.339zm-16.677-2.07 8-4.544 8 4.544v1.731h-16zm14.61 8.378h-.748v-4.3h.748zm-1.426 0h-.748v-4.3h.748zm-11.783 0v-4.3h.748v4.3zm1.426-4.3h.748v4.3h-.753zm8.205-1.671-.008.018a1.172 1.172 0 0 0 .733 1.6v4.4a1.174 1.174 0 0 0 -.725 1.619h-1.375v-2.956a.982.982 0 0 0 -.982-.982h-1.34a.982.982 0 0 0 -.982.982v2.956h-1.375a1.175 1.175 0 0 0 -.726-1.621v-4.4a1.175 1.175 0 0 0 .726-1.622h6.054zm-2.053 7.637h-1.948v-2.956a.3.3 0 0 1 .3-.3h1.343a.3.3 0 0 1 .3.3v2.956zm-8.415-7.139a.5.5 0 0 1 .5-.5h2.85a.5.5 0 1 1 0 .993h-2.853a.5.5 0 0 1 -.5-.5zm0 6.647a.5.5 0 0 1 .5-.5h2.85a.5.5 0 1 1 0 .993h-2.853a.5.5 0 0 1 -.5-.5zm14.881 0a.5.5 0 0 1 -.5.5h-2.849a.5.5 0 1 1 0-.993h2.854a.5.5 0 0 1 .495.493zm0-6.647a.5.5 0 0 1 -.5.5h-2.85a.5.5 0 0 1 -.5-.5.5.5 0 0 1 .5-.5h2.854a.5.5 0 0 1 .496.5z" transform="translate(0 -19.983)"/><path d="m246.818 181.158a.339.339 0 1 0 -.183.443.341.341 0 0 0 .183-.443z" transform="translate(-237.822 -175.493)"/></svg>