<svg height="17.185" viewBox="0 0 26.963 17.185" width="26.963" xmlns="http://www.w3.org/2000/svg"><path d="m26.792 100.9c-.241-.329-5.98-8.068-13.31-8.068s-13.07 7.742-13.311 8.068a.89.89 0 0 0 0 1.049c.241.329 5.98 8.068 13.31 8.068s13.069-7.739 13.31-8.068a.889.889 0 0 0 .001-1.049zm-13.31 7.339c-5.4 0-10.076-5.136-11.46-6.815 1.383-1.681 6.049-6.814 11.46-6.814s10.075 5.135 11.46 6.815c-1.383 1.684-6.05 6.817-11.461 6.817z" transform="translate(0 -92.835)"/><path d="m160.055 154.725a5.333 5.333 0 1 0 5.333 5.333 5.339 5.339 0 0 0 -5.333-5.333zm0 8.889a3.556 3.556 0 1 1 3.556-3.556 3.559 3.559 0 0 1 -3.556 3.556z" transform="translate(-146.574 -151.466)"/></svg>