<svg height="15.999" viewBox="0 0 12.186 15.999" width="12.186" xmlns="http://www.w3.org/2000/svg"><g transform="translate(-557.662 -340.837)"><path d="m569.711 344.724-3.749-3.75a.473.473 0 0 0 -.332-.137h-6.562a1.408 1.408 0 0 0 -1.406 1.406v13.187a1.408 1.408 0 0 0 1.406 1.406h9.374a1.407 1.407 0 0 0 1.406-1.406v-10.375a.473.473 0 0 0 -.137-.331zm-3.612-2.287 2.149 2.15h-1.681a.469.469 0 0 1 -.468-.469zm2.343 13.461h-9.374a.469.469 0 0 1 -.469-.468v-13.187a.47.47 0 0 1 .469-.469h6.093v2.344a1.408 1.408 0 0 0 1.406 1.406h2.344v9.906a.469.469 0 0 1 -.469.47z"/><path d="m566.567 348.4h-4.687a.469.469 0 0 0 0 .937h4.687a.469.469 0 1 0 0-.937z"/><path d="m566.567 350.274h-4.687a.469.469 0 0 0 0 .937h4.687a.469.469 0 1 0 0-.937z"/><path d="m566.567 352.149h-4.687a.469.469 0 0 0 0 .937h4.687a.469.469 0 1 0 0-.937z"/><circle cx="560.006" cy="348.868" r=".469"/><circle cx="560.006" cy="350.743" r=".469"/><circle cx="560.006" cy="352.618" r=".469"/></g></svg>