<svg height="14.124" viewBox="0 0 15.999 14.124" width="15.999" xmlns="http://www.w3.org/2000/svg"><path d="m512.11 342.712a1.239 1.239 0 0 1 -.932-.469 1.243 1.243 0 0 0 -.933-.469h-5.135a.622.622 0 0 0 -.62.62v12.884a.622.622 0 0 0 .62.62h14.758a.622.622 0 0 0 .621-.62v-11.946a.622.622 0 0 0 -.621-.62zm7.441 11.629a.622.622 0 0 1 -.62.62h-12.884a.622.622 0 0 1 -.62-.62v-11.009a.622.622 0 0 1 .62-.62h3.7a1.3 1.3 0 0 1 .964.516l1.187 1.78a1.3 1.3 0 0 0 .964.516h6.073a.622.622 0 0 1 .62.62zm0-10.223a.562.562 0 0 1 -.62.469h-5.942c-.341 0-.408-.208-.561-.469s-.034-.469.307-.469h6.2a.562.562 0 0 1 .616.469z" transform="translate(-504.49 -341.774)"/></svg>