<svg xmlns="http://www.w3.org/2000/svg" width="16" height="16" viewBox="0 0 16 16"><path d="M399.99,254.117a8,8,0,1,0,5.657,2.343A8,8,0,0,0,399.99,254.117ZM394.6,256.73a7.633,7.633,0,0,1,1.744-1.308l.916.689a2.9,2.9,0,0,0,.252.168,2.273,2.273,0,0,1,.715.662l.53.764a.639.639,0,0,1-.019.757l-.246.319a.378.378,0,0,1-.344.143l-.279-.036a1.2,1.2,0,0,0-1.188.587.381.381,0,0,1-.38.179l-.638-.081a1.229,1.229,0,0,0-1.18.534,1.115,1.115,0,0,0-.019,1.223l.425.671a1.056,1.056,0,0,0,1.385.364l.438-.235a.613.613,0,0,1,.605.015l.831.5a.4.4,0,0,0,.214.056.977.977,0,0,1,.81.432l.406.567c.032.044.065.087.1.128l.532.626a.081.081,0,0,1,.018.067.1.1,0,0,1-.038.057l-.8.613a1.469,1.469,0,0,0-.516.743l-.268.871a.359.359,0,0,1-.067.123l-.261.314a1.668,1.668,0,0,0-.388.921.226.226,0,0,1-.136.186.017.017,0,0,1-.019,0,.026.026,0,0,1-.006-.016l-.245-1.47a1.336,1.336,0,0,0-.254-.588l-.9-1.182a.845.845,0,0,1-.145-.291l-.3-1.074a1.321,1.321,0,0,0-.922-.918l-.065-.018a.639.639,0,0,1-.271-.152l-.555-.523a1.065,1.065,0,0,1-.19-.239,1.428,1.428,0,0,0-1.457-.693A7.554,7.554,0,0,1,394.6,256.73ZM405.377,267.5a7.617,7.617,0,0,1-13-5.385c0-.182.006-.362.019-.541l.061-.012a1.046,1.046,0,0,1,1.1.5,1.471,1.471,0,0,0,.258.325l.555.522a1.04,1.04,0,0,0,.432.242l.065.018a.937.937,0,0,1,.654.651l.3,1.074a1.24,1.24,0,0,0,.209.421l.9,1.182a.96.96,0,0,1,.181.419l.245,1.471a.4.4,0,0,0,.455.335.447.447,0,0,0,.1-.026.607.607,0,0,0,.369-.5,1.291,1.291,0,0,1,.3-.711l.261-.314a.752.752,0,0,0,.138-.255l.268-.871a1.092,1.092,0,0,1,.384-.552l.8-.613a.48.48,0,0,0,.183-.3.465.465,0,0,0-.1-.375l-.532-.626c-.028-.033-.055-.068-.081-.1l-.406-.567a1.361,1.361,0,0,0-1.131-.591h-.007l-.831-.5a1,1,0,0,0-.983-.024l-.438.234a.672.672,0,0,1-.881-.232l-.425-.671a.733.733,0,0,1,.012-.8.847.847,0,0,1,.815-.369l.638.081a.763.763,0,0,0,.759-.367.815.815,0,0,1,.81-.4l.279.036a.762.762,0,0,0,.7-.294l.246-.319a1.021,1.021,0,0,0,.031-1.209l-.53-.764a2.657,2.657,0,0,0-.837-.774,2.447,2.447,0,0,1-.216-.143l-.767-.577a7.633,7.633,0,0,1,7.964.886l-.2.278a9.991,9.991,0,0,0-1.268,1.722l-.289.494a.572.572,0,0,0,.069.661.87.87,0,0,0,.549.291l.139.017a1.189,1.189,0,0,1,.993.836,1.164,1.164,0,0,1-.343,1.207l-1.369,1.215a.813.813,0,0,0-.271.616v.323a.643.643,0,0,0,.292.549,1.113,1.113,0,0,1,.5.831l.03.314a.555.555,0,0,0,.561.5h.8a1.221,1.221,0,0,0,1.123-.726l.048-.106a1.119,1.119,0,0,1,.982-.672l.189-.008h.006a7.6,7.6,0,0,1-1.865,3.042Zm1.98-3.435-.094.01h-.044l-.189.009a1.5,1.5,0,0,0-1.315.9l-.048.1a.839.839,0,0,1-.773.5h-.805a.176.176,0,0,1-.182-.157l-.034-.312a1.486,1.486,0,0,0-.674-1.112.259.259,0,0,1-.117-.225v-.323a.43.43,0,0,1,.142-.33l1.374-1.217a1.55,1.55,0,0,0,.454-1.6,1.574,1.574,0,0,0-1.313-1.1l-.139-.017a.49.49,0,0,1-.308-.163.193.193,0,0,1-.025-.218l.288-.493a9.651,9.651,0,0,1,1.225-1.672l.015-.018.19-.265q.2.174.392.366a7.57,7.57,0,0,1,2.231,5.387,7.7,7.7,0,0,1-.251,1.951Z" transform="translate(-391.99 -254.117)"/></svg>