<svg height="15.999" viewBox="0 0 15.999 15.999" width="15.999" xmlns="http://www.w3.org/2000/svg"><g transform="translate(-335.711 -340.837)"><circle cx="343.71" cy="352.664" r=".781"/><path d="m343.711 340.837a8 8 0 1 0 8 8 8 8 0 0 0 -8-8zm0 14.749a6.749 6.749 0 1 1 6.749-6.75 6.746 6.746 0 0 1 -6.749 6.75z"/><path d="m343.711 344.852a2.5 2.5 0 0 0 -2.5 2.5.625.625 0 0 0 1.25 0 1.25 1.25 0 1 1 1.25 1.25.625.625 0 0 0 -.625.625v1.562a.625.625 0 0 0 1.25 0v-1.016a2.5 2.5 0 0 0 -.625-4.921z"/></g></svg>