<svg height="16.011" viewBox="0 0 14.315 16.011" width="14.315" xmlns="http://www.w3.org/2000/svg"><path d="m294.329 346.657-5.635-5.33a1.87 1.87 0 0 0 -2.532-.005l-5.624 5.276a.819.819 0 0 0 -.263.6v8.131a1.6 1.6 0 0 0 1.685 1.51c.035 0 .07 0 .1-.009h2.685a1.6 1.6 0 0 0 1.78-1.4c0-.036.007-.073.009-.109v-.842a.9.9 0 0 1 1.789 0v.842a1.6 1.6 0 0 0 1.68 1.516c.037 0 .074-.005.11-.01h2.687a1.6 1.6 0 0 0 1.78-1.4c0-.036.007-.073.009-.109v-8.073a.823.823 0 0 0 -.26-.588zm-1.162.909v6.765c0 .029 0 .058-.007.087a1.283 1.283 0 0 1 -1.426 1.12h-.6c-.03 0-.059.006-.088.007a1.282 1.282 0 0 1 -1.347-1.214v-.971a.72.72 0 0 0 -.637-.637c-.029 0-3.2-.005-3.23-.005a.721.721 0 0 0 -.709.642v.971c0 .029 0 .058-.008.087-.084.7-.2 1.2-.9 1.12h-1.091c-.027 0-.055.006-.083.007a1.282 1.282 0 0 1 -1.35-1.21v-6.811a.656.656 0 0 1 .211-.481l4.506-4.227a1.5 1.5 0 0 1 2.028 0l4.515 4.27a.657.657 0 0 1 .209.476z" fill="#111" fill-rule="evenodd" transform="translate(-280.275 -340.831)"/></svg>