<svg height="11.199" viewBox="0 0 15.998 11.199" width="15.998" xmlns="http://www.w3.org/2000/svg"><g transform="translate(-444.814 -299.874)"><path d="m459.479 299.874h-13.332a1.335 1.335 0 0 0 -1.333 1.334v8.532a1.333 1.333 0 0 0 1.333 1.333h13.332a1.185 1.185 0 0 0 .223-.019 1.328 1.328 0 0 0 1.11-1.314v-8.532a1.335 1.335 0 0 0 -1.333-1.334zm-13.332 10.666a.8.8 0 0 1 -.8-.729l5.316-3.476 5.407 4.205zm14.132-.8a.8.8 0 0 1 -.669.789.815.815 0 0 1 -.131.011h-2.538l-3.532-2.749 3.159-2.526 3.711 2.226zm0-2.87-3.6-2.158a.269.269 0 0 0 -.3.02l-3.4 2.723-2.132-1.658a.266.266 0 0 0 -.309-.013l-5.187 3.391v-7.967a.8.8 0 0 1 .8-.8h13.332a.8.8 0 0 1 .8.8z"/><path d="m452.813 301.474a1.6 1.6 0 1 0 1.6 1.6 1.6 1.6 0 0 0 -1.6-1.6zm0 2.667a1.067 1.067 0 1 1 1.067-1.067 1.067 1.067 0 0 1 -1.067 1.067z"/></g></svg>