<svg height="16" viewBox="0 0 16 16" width="16" xmlns="http://www.w3.org/2000/svg"><g transform="translate(-223.155 -297.474)"><path d="m234.824 297.474h-7.338a4.336 4.336 0 0 0 -4.331 4.331v7.338a4.336 4.336 0 0 0 4.331 4.331h7.338a4.336 4.336 0 0 0 4.331-4.331v-7.343a4.336 4.336 0 0 0 -4.331-4.326zm3.393 11.669a3.4 3.4 0 0 1 -3.393 3.393h-7.338a3.4 3.4 0 0 1 -3.393-3.393v-7.343a3.4 3.4 0 0 1 3.393-3.393h7.338a3.4 3.4 0 0 1 3.393 3.393z"/><path d="m231.155 301.1a4.375 4.375 0 1 0 4.375 4.375 4.38 4.38 0 0 0 -4.375-4.375zm0 7.812a3.437 3.437 0 1 1 3.437-3.437 3.441 3.441 0 0 1 -3.437 3.441z"/><path d="m235.634 299.545a1.293 1.293 0 1 0 1.293 1.293 1.294 1.294 0 0 0 -1.293-1.293zm0 1.647a.355.355 0 1 1 .355-.355.355.355 0 0 1 -.355.355z"/></g></svg>