<svg xmlns="http://www.w3.org/2000/svg" width="17.802" height="23.995" viewBox="0 0 17.802 23.995"><g transform="translate(-53.429 -428.679)"><path d="M62.21,433.117a8.186,8.186,0,0,0-3.039,3.127c-1.17,2.552,2.394,5.335,2.546,5.452a.2.2,0,0,0,.278-.053.2.2,0,0,0,.017-.194,11.346,11.346,0,0,1-1.244-4.292c.017-.621.886-1.325,1.805-2.07a10.436,10.436,0,0,0,2.356-2.362,3.8,3.8,0,0,0-.151-3.972.2.2,0,0,0-.281-.029.2.2,0,0,0-.072.184,4.185,4.185,0,0,1-.47,2.644A5.721,5.721,0,0,1,62.21,433.117Z"/><path d="M66.882,434a.2.2,0,0,0-.188-.341c-.188.072-4.613,1.777-4.613,3.838a3.935,3.935,0,0,0,1.05,2.719,2.062,2.062,0,0,1,.373.559,2.794,2.794,0,0,1-.329,1.562.2.2,0,0,0,.288.249c.076-.053,1.859-1.314,1.54-2.833a3.723,3.723,0,0,0-.653-1.372c-.388-.577-.668-.993-.243-1.763A15,15,0,0,1,66.882,434Z"/><path d="M55.364,442.65a.7.7,0,0,0,.1.652c.48.666,2.179,1.033,4.784,1.033h0c.353,0,.726-.007,1.108-.021,4.166-.149,5.711-1.447,5.775-1.5a.2.2,0,0,0-.181-.339,28.637,28.637,0,0,1-6.107.543,13.466,13.466,0,0,1-3.474-.266,4.873,4.873,0,0,1,2.015-.725.2.2,0,0,0-.038-.39C58.74,441.635,55.683,441.684,55.364,442.65Z"/><path d="M69.3,441.314a4.107,4.107,0,0,0-1.708.449.2.2,0,0,0,.093.37c.018,0,1.833.015,2,1.052.146.894-1.717,2.344-2.447,2.827a.2.2,0,0,0-.042.279.2.2,0,0,0,.15.082.278.278,0,0,0,.041,0c.173-.037,4.238-.933,3.808-3.3A1.831,1.831,0,0,0,69.3,441.314Z"/><path d="M66.517,445.725a.2.2,0,0,0-.08-.2l-.975-.683a.2.2,0,0,0-.163-.029,19.153,19.153,0,0,1-2.509.435,17.464,17.464,0,0,1-1.9.1,6.953,6.953,0,0,1-2.587-.3c-.019-.036-.013-.052-.009-.061a.5.5,0,0,1,.251-.189.2.2,0,0,0-.114-.376c-.978.236-1.456.566-1.421.981.062.735,1.765,1.113,3.2,1.212.207.014.431.021.665.021h0a27.964,27.964,0,0,0,5.494-.759A.2.2,0,0,0,66.517,445.725Z"/><path d="M59.169,447.3a.2.2,0,0,0,.043-.28.2.2,0,0,0-.156-.081c-.131,0-1.282.055-1.363.788a.765.765,0,0,0,.186.6c.413.49,1.529.781,3.41.89.223.013.449.02.672.02a10.265,10.265,0,0,0,4.069-.781.2.2,0,0,0,.088-.269.192.192,0,0,0-.07-.077l-1.232-.752a.2.2,0,0,0-.143-.025c-.008,0-.79.164-1.97.324a6.4,6.4,0,0,1-.831.046,10.306,10.306,0,0,1-2.742-.319A.081.081,0,0,1,59.169,447.3Z"/><path d="M60.848,451.492c5.478,0,8.417-.979,8.984-1.592a.676.676,0,0,0,.205-.556.856.856,0,0,0-.377-.554.2.2,0,0,0-.257.035.2.2,0,0,0,0,.256c.035.044.055.119-.047.22-.226.211-2.51.853-6.312,1.046-.521.027-1.067.041-1.624.041-3.4,0-5.9-.466-6.223-.738a4.861,4.861,0,0,1,1.944-.634.2.2,0,0,0-.06-.389c-.026,0-.116.009-.22.015-1.546.094-3.333.3-3.426,1.1a.815.815,0,0,0,.215.655c.418.469,1.618,1.093,7.2,1.093Z"/><path d="M70.91,450.073a.2.2,0,0,0-.227.045,6.568,6.568,0,0,1-3.308,1.375,32.141,32.141,0,0,1-5.289.286c-2.566,0-5.008-.1-5.032-.1a.2.2,0,0,0-.054.388,29.249,29.249,0,0,0,6.083.606,28.4,28.4,0,0,0,4.854-.4c2.876-.5,3.078-1.93,3.085-1.991A.2.2,0,0,0,70.91,450.073Z"/></g></svg>