<svg xmlns="http://www.w3.org/2000/svg" width="17.696" height="17" viewBox="0 0 17.696 17"><path stroke="#000000" class="a" d="M461.509,350.735a1.544,1.544,0,0,0-.453-1.095,1.727,1.727,0,0,0,.446-1.328,1.8,1.8,0,0,0-1.815-1.577h-4.3a10,10,0,0,0,.553-2.782c0-1.509-1.281-2.783-2.086-2.783a2.183,2.183,0,0,0-1.261.424.349.349,0,0,0-.131.272v2.358l-2,4.34-.083.043v-.133a.348.348,0,0,0-.347-.349h-3.478a1.741,1.741,0,0,0-1.739,1.74v5.565a1.74,1.74,0,0,0,1.739,1.739h2.087a1.741,1.741,0,0,0,1.636-1.15,4.529,4.529,0,0,0,1.842.455H458.5a1.6,1.6,0,0,0,1.576-1.215,2.043,2.043,0,0,1,.735-2.438,1.56,1.56,0,0,1,.7-2.087Zm-12.869,5.74h-2.087a1.045,1.045,0,0,1-1.044-1.044v-5.565a1.045,1.045,0,0,1,1.044-1.044h3.131v6.609A1.045,1.045,0,0,1,448.64,356.475Zm11.4-4.881a.348.348,0,0,0-.2.6.862.862,0,0,1-.5,1.488.348.348,0,0,0-.2.6.86.86,0,0,1,.252.83.9.9,0,0,1-.9.669h-6.386a3.574,3.574,0,0,1-1.739-.508v-5.886l.5-.251a.345.345,0,0,0,.16-.165l2.087-4.522a.355.355,0,0,0,.032-.146v-2.246a1.463,1.463,0,0,1,.7-.189,2.3,2.3,0,0,1,1.391,2.087,10.83,10.83,0,0,1-.673,3.007.348.348,0,0,0,.325.472h4.787a1.1,1.1,0,0,1,1.122.945,1.038,1.038,0,0,1-.5.984.349.349,0,0,0,.024.606.861.861,0,0,1-.3,1.627Z" transform="translate(-444.314 -340.67)"/></svg>
