<svg height="13.099" viewBox="0 0 15.94 13.099" width="15.94" xmlns="http://www.w3.org/2000/svg"><g transform="translate(-279.462 -481.484)"><path d="m294.529 482.363a3 3 0 0 0 -2.122-.879 2.98 2.98 0 0 0 -2.12.878l-3.874 3.874a3 3 0 0 0 -.766 2.933.572.572 0 0 0 1.1-.311 1.858 1.858 0 0 1 .474-1.814l3.874-3.873a1.855 1.855 0 0 1 2.623 2.623l-3.872 3.869a1.85 1.85 0 0 1 -.928.5.572.572 0 0 0 .118 1.132.531.531 0 0 0 .119-.013 2.985 2.985 0 0 0 1.5-.813l3.874-3.873a3 3 0 0 0 0-4.233z"/><path d="m289.149 486.971a.572.572 0 0 0 -1.1.311 1.858 1.858 0 0 1 -.474 1.814l-3.875 3.874a1.855 1.855 0 0 1 -2.623-2.623l3.874-3.874a1.847 1.847 0 0 1 .927-.5.572.572 0 1 0 -.224-1.122h-.011a3 3 0 0 0 -1.5.813l-3.876 3.873a3 3 0 0 0 4.239 4.241l3.874-3.874a3 3 0 0 0 .769-2.933z"/></g></svg>