<svg height="19.977" viewBox="0 0 18.161 19.977" width="18.161" xmlns="http://www.w3.org/2000/svg"><path d="m17.908 24.977a.908.908 0 1 1 0-1.816h4.54a.908.908 0 0 0 .908-.908v-14.529a.908.908 0 0 0 -.908-.908h-4.54a.908.908 0 1 1 0-1.816h4.54a2.724 2.724 0 0 1 2.724 2.724v14.529a2.724 2.724 0 0 1 -2.724 2.724z" fill-rule="evenodd" transform="translate(-7.011 -5)"/><path d="m462.531-1392.208a.908.908 0 0 1 0-1.284l2.082-2.082h-8.7a.908.908 0 0 1 -.907-.908.908.908 0 0 1 .907-.908h8.7l-2.082-2.082a.908.908 0 0 1 0-1.284.908.908 0 0 1 1.284 0l3.632 3.632a.908.908 0 0 1 .134.171l.009.015v.006l.006.011.006.01v.007l.008.016a.9.9 0 0 1 .094.4.905.905 0 0 1 -.286.661l-3.612 3.613a.905.905 0 0 1 -.642.266.905.905 0 0 1 -.633-.26z" transform="translate(-455 1406.471)"/></svg>