<svg height="19.977" viewBox="0 0 18.161 19.977" width="18.161" xmlns="http://www.w3.org/2000/svg"><path d="m17.908 24.977a.908.908 0 1 1 0-1.816h4.54a.908.908 0 0 0 .908-.908v-14.529a.908.908 0 0 0 -.908-.908h-4.54a.908.908 0 1 1 0-1.816h4.54a2.724 2.724 0 0 1 2.724 2.724v14.529a2.724 2.724 0 0 1 -2.724 2.724z" fill-rule="evenodd" transform="translate(-7.011 -5)"/><path d="m7.53 8.815a.908.908 0 0 1 0-1.284l2.083-2.082h-8.705a.908.908 0 0 1 0-1.816h8.7l-2.078-2.083a.908.908 0 1 1 1.285-1.284l3.628 3.628a.908.908 0 0 1 -.016 1.306l-3.612 3.615a.908.908 0 0 1 -1.284 0z" transform="matrix(-1 0 0 -1 12.713 14.529)"/></svg>