<svg height="10.665" viewBox="0 0 15.998 10.665" width="15.998" xmlns="http://www.w3.org/2000/svg"><path d="m238.334 482.7h-14.358a.822.822 0 0 0 -.82.82v9.025a.822.822 0 0 0 .82.82h14.358a.822.822 0 0 0 .82-.82v-9.025a.822.822 0 0 0 -.82-.82zm-.308.615-6.4 4.8a.861.861 0 0 1 -.944 0l-6.4-4.8zm-3.418 5.116 3.487 4.308.011.011h-13.906l.011-.011 3.487-4.308a.308.308 0 1 0 -.478-.387l-3.453 4.265v-8.609l6.543 4.908a1.472 1.472 0 0 0 1.682 0l6.543-4.908v8.61l-3.453-4.265a.308.308 0 1 0 -.478.387z" transform="translate(-223.156 -482.701)"/></svg>