<svg height="15.999" viewBox="0 0 10.434 15.999" width="10.434" xmlns="http://www.w3.org/2000/svg"><g transform="translate(-507.272 -432.677)"><path d="m512.489 443.931a3.2 3.2 0 0 0 3.13-3.255v-4.745a3.132 3.132 0 1 0 -6.26 0v4.745a3.2 3.2 0 0 0 3.13 3.255zm-2.434-8a2.438 2.438 0 1 1 4.869 0v4.4h-4.869zm4.843 5.093a2.418 2.418 0 0 1 -4.818 0z"/><path d="m517.358 438.937a.347.347 0 0 0 -.347.348v1.391a4.521 4.521 0 1 1 -9.043 0v-1.391a.348.348 0 0 0 -.7 0v1.391a5.219 5.219 0 0 0 4.869 5.2v2.105h-1.737a.348.348 0 0 0 0 .7h4.174a.348.348 0 1 0 0-.7h-1.739v-2.105a5.219 5.219 0 0 0 4.869-5.2v-1.391a.348.348 0 0 0 -.346-.348z"/></g></svg>