<svg height="16" viewBox="0 0 15.998 16" width="15.998" xmlns="http://www.w3.org/2000/svg"><path d="m58.4 7009.4a.8.8 0 0 1 -.8.8h-11.2a.8.8 0 0 1 -.8-.8v-8a.8.8 0 0 1 .8-.8h11.2a.8.8 0 0 1 .8.8zm-.008-10.4h-12.8a1.609 1.609 0 0 0 -1.592 1.616l.006.016v9.6l-.006-.017a1.582 1.582 0 0 0 1.594 1.584h4.8a.823.823 0 0 1 .811.816v-.008a.8.8 0 0 1 -.811.792h-2.4a.8.8 0 0 0 -.788.816v-.008a.783.783 0 0 0 .788.791h8a.8.8 0 0 0 .81-.783v-.008a.815.815 0 0 0 -.81-.808h-2.4a.777.777 0 0 1 -.788-.784v-.008a.8.8 0 0 1 .789-.808h4.8l.006.016a1.588 1.588 0 0 0 1.6-1.581v-9.6a1.615 1.615 0 0 0 -1.6-1.613l-.006-.017z" fill-rule="evenodd" transform="translate(-44.001 -6998.999)"/></svg>