<svg height="16" viewBox="0 0 15.437 16" width="15.437" xmlns="http://www.w3.org/2000/svg"><g transform="translate(-110.878 -432.676)"><path d="m114.589 439.207h-.989a.469.469 0 0 0 -.469.469l.007 3.561a.469.469 0 0 0 .938 0v-1.081h.516a1.474 1.474 0 1 0 0-2.948zm0 2.011h-.519v-1.075h.522a.537.537 0 0 1 .047 1.073.366.366 0 0 1 -.047 0z"/><path d="m118.576 439.207h-.976a.469.469 0 0 0 -.469.469s.007 3.445.007 3.458a.469.469 0 0 0 .469.467c.03 0 .728 0 1.007-.008a1.987 1.987 0 0 0 1.834-2.129l-.006-.061a1.941 1.941 0 0 0 -1.667-2.181c-.068-.007-.133-.013-.199-.015zm.02 3.449-.525.005v-2.517h.509c.86 0 .927.964.927 1.26-.007.616-.284 1.241-.907 1.252z"/><path d="m123.528 440.108a.469.469 0 0 0 0-.937h-1.428a.469.469 0 0 0 -.469.469v3.536a.469.469 0 0 0 .938 0v-1.333h.851a.469.469 0 0 0 0-.937h-.851v-.8z"/><path d="m124.909 437.207h-.344v-.131a2.334 2.334 0 0 0 -.643-1.613l-1.944-2.056a2.358 2.358 0 0 0 -1.7-.731h-6.24a1.409 1.409 0 0 0 -1.41 1.406v3.125h-.344a1.408 1.408 0 0 0 -1.406 1.406v5.625a1.408 1.408 0 0 0 1.406 1.406h.344v1.625a1.408 1.408 0 0 0 1.406 1.407h9.125a1.408 1.408 0 0 0 1.406-1.406v-1.625h.344a1.408 1.408 0 0 0 1.406-1.406v-5.626a1.408 1.408 0 0 0 -1.406-1.406zm-11.343-3.125a.469.469 0 0 1 .469-.469h6.243a1.413 1.413 0 0 1 1.021.439l1.943 2.054a1.394 1.394 0 0 1 .386.967v.134h-10.062zm10.062 13.188a.469.469 0 0 1 -.469.469h-9.125a.469.469 0 0 1 -.469-.469v-1.625h10.063zm1.75-3.031a.469.469 0 0 1 -.469.469h-12.625a.469.469 0 0 1 -.469-.469v-5.626a.469.469 0 0 1 .469-.469h12.625a.469.469 0 0 1 .469.469z"/></g></svg>