<svg height="16" viewBox="0 0 15.045 16" width="15.045" xmlns="http://www.w3.org/2000/svg"><path d="m419.795 307.7h-15.045v-2.944a2.747 2.747 0 0 1 1.807-2.582 18.165 18.165 0 0 1 11.419 0 2.752 2.752 0 0 1 1.819 2.588zm-13.373-1.672h11.7v-1.274a1.072 1.072 0 0 0 -.7-1.008 16.5 16.5 0 0 0 -10.3 0 1.068 1.068 0 0 0 -.692 1z" transform="translate(-404.75 -291.696)"/><path d="m415.929 290.563a4.184 4.184 0 0 1 -4.179-4.179v-.955a4.179 4.179 0 0 1 8.358 0v.955a4.184 4.184 0 0 1 -4.179 4.179zm0-7.642a2.51 2.51 0 0 0 -2.507 2.507v.955a2.507 2.507 0 0 0 5.015 0v-.955a2.51 2.51 0 0 0 -2.508-2.506z" transform="translate(-408.407 -281.25)"/></svg>