<svg height="16.009" viewBox="0 0 12.191 16.009" width="12.191" xmlns="http://www.w3.org/2000/svg"><g transform="translate(-56.235 -480.029)"><path d="m68.125 484.23a5.967 5.967 0 0 0 -3.864-3.9 6.129 6.129 0 0 0 -8.026 5.829 6.043 6.043 0 0 0 1.216 3.654l4.876 6.224 4.873-6.215.006-.008a6.165 6.165 0 0 0 .919-5.584zm-1.664 5.018-4.134 5.27-4.131-5.27a5.109 5.109 0 0 1 -1.026-3.088 5.194 5.194 0 0 1 6.811-4.933 5.016 5.016 0 0 1 3.249 3.28 5.236 5.236 0 0 1 -.769 4.741z"/><path d="m62.327 482.878a3.282 3.282 0 1 0 3.282 3.282 3.287 3.287 0 0 0 -3.282-3.282zm0 5.626a2.344 2.344 0 1 1 2.344-2.344 2.348 2.348 0 0 1 -2.344 2.34z"/></g></svg>