<svg height="16" viewBox="0 0 15.652 16" width="15.652" xmlns="http://www.w3.org/2000/svg"><path d="m367.2 291.084a4.665 4.665 0 0 1 -1.344-.22.175.175 0 0 1 -.124-.153c-.018-.2-.028-.384-.028-.565a3.738 3.738 0 0 1 .206-1.284 2.229 2.229 0 0 1 .658-.949 2.107 2.107 0 0 1 .715-.388 2.82 2.82 0 0 1 .85-.124 4.62 4.62 0 0 1 1.337.22.18.18 0 0 1 .124.153 5.608 5.608 0 0 1 .032.587 3.7 3.7 0 0 1 -.206 1.273 2.22 2.22 0 0 1 -.654.942 2.107 2.107 0 0 1 -.715.388 2.981 2.981 0 0 1 -.851.12zm-1.131-.526a4.193 4.193 0 0 0 1.124.171 2.035 2.035 0 0 0 1.34-.43 2.4 2.4 0 0 0 .732-1.938c0-.139-.007-.284-.018-.43a4.148 4.148 0 0 0 -1.12-.171 2.042 2.042 0 0 0 -1.34.43 2.418 2.418 0 0 0 -.736 1.959c.001.131.005.266.015.408z" transform="translate(-353.974 -278.284)"/><path d="m367.2 171.084a4.666 4.666 0 0 1 -1.344-.22.175.175 0 0 1 -.124-.153c-.018-.2-.028-.384-.028-.565a3.738 3.738 0 0 1 .206-1.284 2.229 2.229 0 0 1 .658-.949 2.107 2.107 0 0 1 .715-.388 2.821 2.821 0 0 1 .85-.124 4.62 4.62 0 0 1 1.337.22.18.18 0 0 1 .124.153 5.608 5.608 0 0 1 .032.587 3.7 3.7 0 0 1 -.206 1.273 2.22 2.22 0 0 1 -.654.942 2.107 2.107 0 0 1 -.715.388 2.981 2.981 0 0 1 -.851.12zm-1.131-.526a4.192 4.192 0 0 0 1.124.171 2.035 2.035 0 0 0 1.34-.43 2.4 2.4 0 0 0 .732-1.938c0-.139-.007-.284-.018-.43a4.147 4.147 0 0 0 -1.12-.171 2.042 2.042 0 0 0 -1.34.43 2.418 2.418 0 0 0 -.736 1.959c.001.131.005.266.015.408z" transform="translate(-353.974 -162.55)"/><path d="m367.2 51.084a4.665 4.665 0 0 1 -1.344-.22.175.175 0 0 1 -.124-.153c-.018-.2-.028-.384-.028-.565a3.738 3.738 0 0 1 .206-1.284 2.229 2.229 0 0 1 .658-.949 2.107 2.107 0 0 1 .715-.388 2.82 2.82 0 0 1 .85-.124 4.62 4.62 0 0 1 1.337.22.18.18 0 0 1 .124.153 5.608 5.608 0 0 1 .032.587 3.7 3.7 0 0 1 -.206 1.273 2.22 2.22 0 0 1 -.654.942 2.107 2.107 0 0 1 -.715.388 2.981 2.981 0 0 1 -.851.12zm-1.131-.526a4.172 4.172 0 0 0 1.124.171 2.035 2.035 0 0 0 1.34-.43 2.4 2.4 0 0 0 .732-1.938c0-.139-.007-.284-.018-.43a4.147 4.147 0 0 0 -1.12-.171 2.042 2.042 0 0 0 -1.34.43 2.418 2.418 0 0 0 -.736 1.959c.001.131.005.266.015.408z" transform="translate(-353.974 -46.817)"/><path d="m267.628 290.987a2.81 2.81 0 0 1 -.853-.124 2.107 2.107 0 0 1 -.715-.388 2.252 2.252 0 0 1 -.654-.942 3.594 3.594 0 0 1 -.206-1.273 5.66 5.66 0 0 1 .032-.587.18.18 0 0 1 .124-.153 4.62 4.62 0 0 1 1.337-.22 2.82 2.82 0 0 1 .85.124 2.141 2.141 0 0 1 .715.388 2.229 2.229 0 0 1 .658.949 3.655 3.655 0 0 1 .206 1.284c0 .181-.011.37-.028.565a.18.18 0 0 1 -.124.153 4.6 4.6 0 0 1 -1.342.224zm-2.055-3.157c-.014.149-.018.292-.018.43a2.379 2.379 0 0 0 .732 1.938 2.042 2.042 0 0 0 1.34.43 4.171 4.171 0 0 0 1.124-.171c.011-.142.018-.277.018-.409a2.418 2.418 0 0 0 -.736-1.959 2.035 2.035 0 0 0 -1.34-.43 4.292 4.292 0 0 0 -1.12.171z" transform="translate(-257.047 -278.187)"/><path d="m267.628 170.987a2.81 2.81 0 0 1 -.853-.124 2.141 2.141 0 0 1 -.715-.388 2.252 2.252 0 0 1 -.654-.942 3.594 3.594 0 0 1 -.206-1.273 5.608 5.608 0 0 1 .032-.587.18.18 0 0 1 .124-.153 4.62 4.62 0 0 1 1.337-.22 2.82 2.82 0 0 1 .85.124 2.141 2.141 0 0 1 .715.388 2.229 2.229 0 0 1 .658.949 3.655 3.655 0 0 1 .206 1.284c0 .181-.011.37-.028.565a.18.18 0 0 1 -.124.153 4.6 4.6 0 0 1 -1.342.224zm-2.055-3.157c-.014.149-.018.292-.018.43a2.379 2.379 0 0 0 .732 1.938 2.042 2.042 0 0 0 1.34.43 4.172 4.172 0 0 0 1.124-.171c.011-.139.018-.277.018-.409a2.418 2.418 0 0 0 -.736-1.959 2.035 2.035 0 0 0 -1.34-.43 4.292 4.292 0 0 0 -1.12.171z" transform="translate(-257.047 -162.454)"/><path d="m267.628 51.084a2.811 2.811 0 0 1 -.853-.124 2.141 2.141 0 0 1 -.715-.388 2.252 2.252 0 0 1 -.654-.942 3.587 3.587 0 0 1 -.206-1.269 5.608 5.608 0 0 1 .032-.587.18.18 0 0 1 .124-.153 4.62 4.62 0 0 1 1.337-.22 2.821 2.821 0 0 1 .85.124 2.141 2.141 0 0 1 .715.388 2.229 2.229 0 0 1 .658.949 3.655 3.655 0 0 1 .206 1.284c0 .181-.011.37-.028.565a.18.18 0 0 1 -.124.153 4.7 4.7 0 0 1 -1.342.22zm-2.055-3.157c-.014.149-.018.292-.018.43a2.384 2.384 0 0 0 .732 1.938 2.042 2.042 0 0 0 1.34.43 4.172 4.172 0 0 0 1.124-.171c.011-.139.018-.277.018-.409a2.418 2.418 0 0 0 -.736-1.959 2.035 2.035 0 0 0 -1.34-.43 4.271 4.271 0 0 0 -1.12.17z" transform="translate(-257.047 -46.817)"/><path d="m365.778 44.867a.176.176 0 0 1 -.178-.178v-13.511a.178.178 0 0 1 .356 0v13.511a.178.178 0 0 1 -.178.178z" transform="translate(-353.877 -31)"/><path d="m138 351.084a4.666 4.666 0 0 1 -1.344-.22.18.18 0 0 1 -.124-.153c-.018-.2-.028-.384-.028-.565a3.655 3.655 0 0 1 .206-1.284 2.229 2.229 0 0 1 .658-.949 2.141 2.141 0 0 1 .715-.388 2.82 2.82 0 0 1 .85-.124 4.62 4.62 0 0 1 1.337.22.18.18 0 0 1 .124.153 5.608 5.608 0 0 1 .032.587 3.621 3.621 0 0 1 -.206 1.273 2.22 2.22 0 0 1 -.654.942 2.141 2.141 0 0 1 -.715.388 2.963 2.963 0 0 1 -.851.12zm-1.127-.526a4.172 4.172 0 0 0 1.124.171 2.035 2.035 0 0 0 1.34-.43 2.4 2.4 0 0 0 .732-1.938c0-.139-.007-.284-.018-.43a4.148 4.148 0 0 0 -1.12-.171 2.042 2.042 0 0 0 -1.34.43 2.418 2.418 0 0 0 -.736 1.959c-.003.131.004.27.015.408z" transform="translate(-132.923 -336.15)"/><path d="m138 231.084a4.662 4.662 0 0 1 -1.34-.22.18.18 0 0 1 -.124-.153c-.018-.2-.028-.384-.028-.565a3.655 3.655 0 0 1 .206-1.284 2.229 2.229 0 0 1 .658-.949 2.107 2.107 0 0 1 .715-.388 2.82 2.82 0 0 1 .85-.124 4.62 4.62 0 0 1 1.337.22.18.18 0 0 1 .124.153 5.608 5.608 0 0 1 .032.587 3.587 3.587 0 0 1 -.206 1.269 2.22 2.22 0 0 1 -.654.942 2.141 2.141 0 0 1 -.715.388 2.844 2.844 0 0 1 -.855.124zm-1.127-.526a4.172 4.172 0 0 0 1.124.171 2.052 2.052 0 0 0 1.344-.43 2.4 2.4 0 0 0 .732-1.938c0-.139-.007-.284-.018-.43a4.147 4.147 0 0 0 -1.12-.171 2.035 2.035 0 0 0 -1.34.43 2.418 2.418 0 0 0 -.736 1.959 4.032 4.032 0 0 0 .011.408z" transform="translate(-132.923 -220.417)"/><path d="m138 111.084a4.665 4.665 0 0 1 -1.344-.22.18.18 0 0 1 -.124-.153 5.145 5.145 0 0 1 -.028-.565 3.655 3.655 0 0 1 .206-1.284 2.229 2.229 0 0 1 .658-.949 2.107 2.107 0 0 1 .715-.388 2.82 2.82 0 0 1 .85-.124 4.62 4.62 0 0 1 1.337.22.18.18 0 0 1 .124.153 5.608 5.608 0 0 1 .032.587 3.621 3.621 0 0 1 -.206 1.273 2.22 2.22 0 0 1 -.654.942 2.141 2.141 0 0 1 -.715.388 2.963 2.963 0 0 1 -.851.12zm-1.127-.526a4.172 4.172 0 0 0 1.124.171 2.035 2.035 0 0 0 1.34-.43 2.4 2.4 0 0 0 .732-1.938c0-.139-.007-.284-.018-.43a4.148 4.148 0 0 0 -1.12-.171 2.035 2.035 0 0 0 -1.34.43 2.418 2.418 0 0 0 -.736 1.959c-.003.131.004.266.015.408z" transform="translate(-132.923 -104.684)"/><path d="m38.332 350.987a2.851 2.851 0 0 1 -.857-.124 2.141 2.141 0 0 1 -.715-.388 2.252 2.252 0 0 1 -.654-.942 3.593 3.593 0 0 1 -.206-1.273 5.608 5.608 0 0 1 .032-.587.18.18 0 0 1 .124-.153 4.621 4.621 0 0 1 1.337-.22 2.8 2.8 0 0 1 .85.124 2.107 2.107 0 0 1 .715.388 2.229 2.229 0 0 1 .658.949 3.575 3.575 0 0 1 .206 1.284c0 .181-.011.37-.028.565a.18.18 0 0 1 -.124.153 4.518 4.518 0 0 1 -1.338.224zm-2.055-3.157c-.011.149-.018.292-.018.43a2.39 2.39 0 0 0 .732 1.938 2.042 2.042 0 0 0 1.34.43 4.171 4.171 0 0 0 1.124-.171c.011-.142.018-.277.018-.409a2.418 2.418 0 0 0 -.736-1.959 2.042 2.042 0 0 0 -1.34-.43 4.292 4.292 0 0 0 -1.12.171z" transform="translate(-35.9 -336.054)"/><path d="m38.332 230.987a2.851 2.851 0 0 1 -.857-.124 2.141 2.141 0 0 1 -.715-.388 2.252 2.252 0 0 1 -.654-.942 3.594 3.594 0 0 1 -.206-1.273 5.608 5.608 0 0 1 .032-.587.18.18 0 0 1 .124-.153 4.62 4.62 0 0 1 1.337-.22 2.8 2.8 0 0 1 .85.124 2.141 2.141 0 0 1 .715.388 2.229 2.229 0 0 1 .658.949 3.575 3.575 0 0 1 .206 1.284c0 .181-.011.37-.028.565a.18.18 0 0 1 -.124.153 4.517 4.517 0 0 1 -1.338.224zm-2.055-3.157c-.011.149-.018.292-.018.43a2.39 2.39 0 0 0 .732 1.938 2.042 2.042 0 0 0 1.34.43 4.172 4.172 0 0 0 1.124-.171c.011-.142.018-.277.018-.409a2.418 2.418 0 0 0 -.736-1.959 2.042 2.042 0 0 0 -1.34-.43 4.292 4.292 0 0 0 -1.12.171z" transform="translate(-35.9 -220.32)"/><path d="m38.428 111.084a2.81 2.81 0 0 1 -.853-.124 2.107 2.107 0 0 1 -.715-.388 2.252 2.252 0 0 1 -.654-.942 3.669 3.669 0 0 1 -.206-1.27 5.608 5.608 0 0 1 .032-.587.18.18 0 0 1 .124-.153 4.62 4.62 0 0 1 1.337-.22 2.8 2.8 0 0 1 .85.124 2.141 2.141 0 0 1 .715.388 2.229 2.229 0 0 1 .658.949 3.575 3.575 0 0 1 .206 1.284c0 .181-.011.37-.028.565a.18.18 0 0 1 -.124.153 4.665 4.665 0 0 1 -1.342.221zm-2.055-3.157c-.011.149-.018.292-.018.43a2.39 2.39 0 0 0 .732 1.938 2.042 2.042 0 0 0 1.34.43 4.172 4.172 0 0 0 1.124-.171c.011-.139.018-.277.018-.409a2.418 2.418 0 0 0 -.736-1.959 2.042 2.042 0 0 0 -1.34-.43 4.292 4.292 0 0 0 -1.12.17z" transform="translate(-35.996 -104.684)"/><path d="m136.578 104.867a.176.176 0 0 1 -.178-.178v-13.511a.178.178 0 0 1 .356 0v13.511a.176.176 0 0 1 -.178.178z" transform="translate(-132.827 -88.867)"/></svg>