<svg height="21.55" viewBox="0 0 12.003 21.55" width="12.003" xmlns="http://www.w3.org/2000/svg"><g fill="#154308" stroke="#000" stroke-width=".75"><path d="m138.745 352.925a7 7 0 0 1 -2.016-.331.27.27 0 0 1 -.187-.229c-.027-.293-.043-.576-.043-.848a5.482 5.482 0 0 1 .309-1.925 3.343 3.343 0 0 1 .987-1.424 3.211 3.211 0 0 1 1.072-.581 4.23 4.23 0 0 1 1.275-.187h.005a6.931 6.931 0 0 1 2.005.331.27.27 0 0 1 .187.229 8.41 8.41 0 0 1 .048.88 5.432 5.432 0 0 1 -.309 1.909 3.33 3.33 0 0 1 -.981 1.413 3.212 3.212 0 0 1 -1.072.581 4.445 4.445 0 0 1 -1.28.182zm-1.691-.789a6.258 6.258 0 0 0 1.685.256 3.053 3.053 0 0 0 2.011-.645 3.593 3.593 0 0 0 1.1-2.907c0-.208-.011-.427-.027-.645a6.222 6.222 0 0 0 -1.68-.256 3.063 3.063 0 0 0 -2.011.645 3.627 3.627 0 0 0 -1.1 2.939c-.004.197.007.405.023.613z" transform="translate(-130.76 -333.35)"/><path d="m138.745 232.925h-.005a6.992 6.992 0 0 1 -2.011-.331.27.27 0 0 1 -.187-.229c-.027-.293-.043-.576-.043-.848a5.482 5.482 0 0 1 .309-1.925 3.343 3.343 0 0 1 .987-1.424 3.161 3.161 0 0 1 1.072-.581 4.231 4.231 0 0 1 1.275-.187h.005a6.931 6.931 0 0 1 2.005.331.27.27 0 0 1 .187.229 8.411 8.411 0 0 1 .048.88 5.381 5.381 0 0 1 -.309 1.9 3.331 3.331 0 0 1 -.981 1.413 3.212 3.212 0 0 1 -1.072.581 4.265 4.265 0 0 1 -1.28.191zm-1.691-.789a6.257 6.257 0 0 0 1.685.256 3.078 3.078 0 0 0 2.016-.645 3.593 3.593 0 0 0 1.1-2.907c0-.208-.011-.427-.027-.645a6.221 6.221 0 0 0 -1.68-.256 3.053 3.053 0 0 0 -2.011.645 3.627 3.627 0 0 0 -1.1 2.939 6.047 6.047 0 0 0 .018.613z" transform="translate(-130.76 -219.75)"/><path d="m138.745 112.925a7 7 0 0 1 -2.016-.331.27.27 0 0 1 -.187-.229 7.718 7.718 0 0 1 -.043-.848 5.482 5.482 0 0 1 .309-1.925 3.343 3.343 0 0 1 .987-1.424 3.161 3.161 0 0 1 1.072-.581 4.23 4.23 0 0 1 1.275-.187h.005a6.93 6.93 0 0 1 2.005.331.27.27 0 0 1 .187.229 8.412 8.412 0 0 1 .048.88 5.432 5.432 0 0 1 -.309 1.909 3.331 3.331 0 0 1 -.981 1.413 3.212 3.212 0 0 1 -1.072.581 4.444 4.444 0 0 1 -1.28.182zm-1.691-.789a6.258 6.258 0 0 0 1.685.256 3.053 3.053 0 0 0 2.011-.645 3.593 3.593 0 0 0 1.1-2.907c0-.208-.011-.427-.027-.645a6.221 6.221 0 0 0 -1.68-.256 3.053 3.053 0 0 0 -2.011.645 3.627 3.627 0 0 0 -1.1 2.939c-.004.197.007.4.023.613z" transform="translate(-130.76 -106.15)"/><path d="m39.548 352.831a4.276 4.276 0 0 1 -1.285-.187 3.212 3.212 0 0 1 -1.072-.581 3.378 3.378 0 0 1 -.981-1.413 5.39 5.39 0 0 1 -.309-1.909 8.412 8.412 0 0 1 .048-.88.27.27 0 0 1 .187-.229 6.931 6.931 0 0 1 2.005-.331h.005a4.2 4.2 0 0 1 1.275.187 3.161 3.161 0 0 1 1.072.581 3.343 3.343 0 0 1 .987 1.424 5.363 5.363 0 0 1 .309 1.925c0 .272-.016.555-.043.848a.27.27 0 0 1 -.187.229 6.776 6.776 0 0 1 -2.011.336zm-3.083-4.736c-.016.224-.027.437-.027.645a3.586 3.586 0 0 0 1.1 2.907 3.062 3.062 0 0 0 2.011.645 6.258 6.258 0 0 0 1.685-.256c.016-.213.027-.416.027-.613a3.627 3.627 0 0 0 -1.1-2.939 3.062 3.062 0 0 0 -2.011-.645 6.438 6.438 0 0 0 -1.685.256z" transform="translate(-35.525 -333.256)"/><path d="m39.548 232.831a4.276 4.276 0 0 1 -1.285-.187 3.212 3.212 0 0 1 -1.072-.581 3.378 3.378 0 0 1 -.981-1.413 5.39 5.39 0 0 1 -.309-1.909 8.412 8.412 0 0 1 .048-.88.27.27 0 0 1 .187-.229 6.93 6.93 0 0 1 2.005-.331h.005a4.206 4.206 0 0 1 1.275.187 3.211 3.211 0 0 1 1.072.581 3.343 3.343 0 0 1 .987 1.424 5.363 5.363 0 0 1 .309 1.925c0 .272-.016.555-.043.848a.27.27 0 0 1 -.187.229 6.776 6.776 0 0 1 -2.011.336zm-3.083-4.736c-.016.224-.027.437-.027.645a3.586 3.586 0 0 0 1.1 2.907 3.063 3.063 0 0 0 2.011.645 6.257 6.257 0 0 0 1.685-.256c.016-.213.027-.416.027-.613a3.627 3.627 0 0 0 -1.1-2.939 3.063 3.063 0 0 0 -2.011-.645 6.438 6.438 0 0 0 -1.685.256z" transform="translate(-35.525 -219.656)"/><path d="m39.643 112.925a4.216 4.216 0 0 1 -1.28-.187 3.161 3.161 0 0 1 -1.072-.581 3.378 3.378 0 0 1 -.981-1.413 5.5 5.5 0 0 1 -.309-1.9 8.411 8.411 0 0 1 .048-.88.27.27 0 0 1 .187-.229 6.93 6.93 0 0 1 2.005-.331h.005a4.206 4.206 0 0 1 1.275.187 3.212 3.212 0 0 1 1.072.581 3.343 3.343 0 0 1 .987 1.424 5.363 5.363 0 0 1 .309 1.925c0 .272-.016.555-.043.848a.27.27 0 0 1 -.187.229 7 7 0 0 1 -2.016.327zm-3.083-4.736c-.016.224-.027.437-.027.645a3.586 3.586 0 0 0 1.1 2.907 3.063 3.063 0 0 0 2.011.645 6.258 6.258 0 0 0 1.685-.256c.016-.208.027-.416.027-.613a3.627 3.627 0 0 0 -1.1-2.939 3.063 3.063 0 0 0 -2.011-.645 6.439 6.439 0 0 0 -1.685.256z" transform="translate(-35.62 -106.15)"/><path d="m136.667 111.8a.264.264 0 0 1 -.267-.267v-20.266a.267.267 0 0 1 .533 0v20.267a.264.264 0 0 1 -.266.266z" transform="translate(-130.665 -90.625)"/></g></svg>