<svg height="16.856" viewBox="0 0 21.292 16.856" width="21.292" xmlns="http://www.w3.org/2000/svg"><path d="m141.768 47.671-12.42-7.541a.887.887 0 0 0 -1.348.758v7.541a.887.887 0 1 0 1.774 0v-5.964l9.823 5.964-9.823 5.964v-2.415a.887.887 0 0 0 -1.774 0v3.992a.887.887 0 0 0 1.348.758l12.42-7.541a.887.887 0 0 0 0-1.516z" transform="translate(-120.903 -40.002)"/><path d="m4.879 280h-3.992a.887.887 0 0 0 0 1.774h3.992a.887.887 0 0 0 0-1.774z" transform="translate(0 -266.692)"/><path d="m3.105 72h-2.218a.887.887 0 0 0 0 1.774h2.218a.887.887 0 0 0 0-1.774z" transform="translate(0 -70.225)"/><path d="m65.331 136h-.444a.887.887 0 1 0 0 1.774h.444a.887.887 0 1 0 0-1.774z" transform="translate(-60.451 -130.677)"/><path d="m34.218 208h-1.331a.887.887 0 1 0 0 1.774h1.331a.887.887 0 0 0 0-1.774z" transform="translate(-30.226 -198.684)"/></svg>