<svg height="15.951" viewBox="0 0 16.003 15.951" width="16.003" xmlns="http://www.w3.org/2000/svg"><g transform="translate(-335.709 -480.058)"><path d="m348.547 492.608a6.769 6.769 0 0 1 -4.9 2.131h-.143a6.646 6.646 0 0 1 -6.526-6.763 7.02 7.02 0 0 1 5.8-6.609.65.65 0 0 0 .617-.738.64.64 0 0 0 -.733-.529 8.349 8.349 0 0 0 -6.952 7.87 7.9 7.9 0 0 0 7.759 8.039h.169a8.059 8.059 0 0 0 6.058-2.781c.365-.389-.146-.827-.146-.827a.8.8 0 0 0 -1.003.207z"/><path d="m344.51 480.625a.6.6 0 0 0 .547.742 6.522 6.522 0 0 1 5.383 6.558 5.052 5.052 0 0 1 -.593 2.164c-.235.4.241.806.241.806s.358.274.8-.167a4.392 4.392 0 0 0 .822-2.819 7.756 7.756 0 0 0 -6.632-7.839c-.454-.108-.568.555-.568.555z"/></g></svg>