<svg height="25.815" viewBox="0 0 24.184 25.815" width="24.184" xmlns="http://www.w3.org/2000/svg"><path d="m39.745 10.46-.638-.922a5.526 5.526 0 0 0 -4.371-2.377l-6.736-6.739a1.423 1.423 0 0 0 -2.368 1.418 10.281 10.281 0 0 0 2.628 4.335l-3.362-.9a1.423 1.423 0 0 0 -1.348 2.41 10.387 10.387 0 0 0 6.8 2.769 4.332 4.332 0 0 0 -.128 1.044v.072h-4.931a7.058 7.058 0 0 0 -3.078.7.5.5 0 1 0 .436.909 6.057 6.057 0 0 1 2.641-.6h5.071a4.346 4.346 0 0 0 4.2 3.258h2.269a8.421 8.421 0 0 1 -1.817 4.326v-.515a.5.5 0 1 0 -1.008 0v3.336a.5.5 0 0 0 .5.5 1.827 1.827 0 0 1 1.752 1.319h-2.929l-1.191-4.718a.5.5 0 0 0 -.978.247l.583 2.312a8.424 8.424 0 0 1 -1.486.48 2.823 2.823 0 0 0 -1.178-.579 3.871 3.871 0 0 0 .032-.976 3.816 3.816 0 0 0 -3.71-3.49 4.047 4.047 0 0 0 -2.8 1.1 3.764 3.764 0 0 0 -1.185 2.753 3.854 3.854 0 0 0 .452 1.815 6.116 6.116 0 0 1 -2.116-7.636.5.5 0 0 0 -.914-.426 7.141 7.141 0 0 0 -.485 4.585 2.806 2.806 0 1 0 2.948 4.316 7.082 7.082 0 0 0 3.987 1.228h5.5a.5.5 0 0 0 .5-.5 2.813 2.813 0 0 0 -.328-1.321 9.432 9.432 0 0 0 1.033-.355l.454 1.8a.5.5 0 0 0 .489.381h3.9a.5.5 0 0 0 .5-.5 2.836 2.836 0 0 0 -2.327-2.787v-.869a9.439 9.439 0 0 0 2.844-5.949 3.425 3.425 0 0 0 1.884-5.246zm-20.768 14.346a1.8 1.8 0 0 1 -.336-3.565 7.149 7.149 0 0 0 1.859 2.718 1.811 1.811 0 0 1 -1.523.847zm6.314 0h-.007a2.861 2.861 0 1 1 .114-5.719 2.8 2.8 0 0 1 2.709 2.578 2.849 2.849 0 0 1 -.13 1.16.5.5 0 0 0 .479.661 1.826 1.826 0 0 1 1.752 1.319h-4.917zm1.3-23.262a.4.4 0 0 1 .182-.471.4.4 0 0 1 .509.061l6.17 6.166a4.294 4.294 0 0 0 -.443.144l-2.225-.6a9.293 9.293 0 0 1 -4.192-5.307zm-2.354 5.4a.4.4 0 0 1 -.078-.5.4.4 0 0 1 .471-.2l7.158 1.918a4.368 4.368 0 0 0 -1.047 1.282 9.374 9.374 0 0 1 -6.5-2.5zm12.69 7.88h-2.363a3.33 3.33 0 1 1 0-6.661 4.517 4.517 0 0 1 3.713 1.945l.638.922a2.418 2.418 0 0 1 -1.987 3.794z" transform="translate(-16.17)"/><path d="m390.676 209.005a.5.5 0 1 0 .356.148.509.509 0 0 0 -.356-.148z" transform="translate(-371.315 -198.467)"/><path d="m94.226 269.462a.5.5 0 1 1 .356-.148.508.508 0 0 1 -.356.148z" transform="translate(-89.812 -254.919)"/></svg>