<svg height="16.025" viewBox="0 0 16.021 16.025" width="16.021" xmlns="http://www.w3.org/2000/svg"><g transform="translate(-279.422 -384.748)"><path d="m294.909 397.762-4.187-4.191a6 6 0 0 0 -5.163-8.823h-.137a6 6 0 0 0 0 12h.137a5.963 5.963 0 0 0 2.685-.7l4.19 4.19a1.75 1.75 0 1 0 2.518-2.431c-.014-.014-.028-.029-.043-.043zm-9.373-2.014h-.114a5 5 0 0 1 0-10h.115a5 5 0 0 1 0 10zm8.665 3.782a.749.749 0 0 1 -1.059 0l-4.04-4.04a6.024 6.024 0 0 0 1.061-1.062l4.04 4.041a.749.749 0 0 1 0 1.059z"/><path d="m285.422 386.748a4 4 0 1 0 4 4 4 4 0 0 0 -4-4zm0 7a3 3 0 1 1 3-3 3 3 0 0 1 -3 3z"/></g></svg>