<svg height="16" viewBox="0 0 16.001 16" width="16.001" xmlns="http://www.w3.org/2000/svg"><g fill="#111"><path d="m563.09 443.65a3.066 3.066 0 1 1 3.066-3.066 3.07 3.07 0 0 1 -3.066 3.066zm0-5.415a2.349 2.349 0 1 0 2.349 2.349 2.353 2.353 0 0 0 -2.349-2.348z" transform="translate(-555.089 -432.585)"/><path d="m564.231 448.354h-2.744l-.192-2.3a5.848 5.848 0 0 1 -1.362-.566l-1.761 1.49-1.941-1.94 1.491-1.761a5.84 5.84 0 0 1 -.566-1.363l-2.3-.191v-2.744l2.3-.191a5.84 5.84 0 0 1 .566-1.363l-1.491-1.761 1.941-1.94 1.761 1.49a5.846 5.846 0 0 1 1.362-.566l.192-2.3h2.744l.191 2.3a5.813 5.813 0 0 1 1.362.566l1.762-1.49 1.94 1.94-1.486 1.764a5.923 5.923 0 0 1 .566 1.363l2.3.191v2.744l-2.3.191a5.905 5.905 0 0 1 -.566 1.363l1.49 1.761-1.94 1.94-1.762-1.49a5.832 5.832 0 0 1 -1.362.566zm-2.085-.717h1.425l.18-2.158.256-.057a5.174 5.174 0 0 0 1.621-.673l.223-.14 1.655 1.4 1.007-1.009-1.4-1.655.141-.223a5.16 5.16 0 0 0 .674-1.621l.057-.256 2.158-.18v-1.425l-2.158-.18-.057-.256a5.155 5.155 0 0 0 -.674-1.621l-.141-.223 1.4-1.655-1.007-1.008-1.655 1.4-.223-.14a5.154 5.154 0 0 0 -1.621-.674l-.256-.057-.18-2.158h-1.425l-.181 2.158-.256.057a5.172 5.172 0 0 0 -1.621.674l-.222.14-1.655-1.4-1.008 1.008 1.4 1.655-.14.223a5.133 5.133 0 0 0 -.674 1.621l-.057.256-2.159.18v1.425l2.159.18.057.257a5.16 5.16 0 0 0 .674 1.62l.14.223-1.403 1.655 1.008 1.008 1.655-1.4.222.14a5.163 5.163 0 0 0 1.621.673l.256.057z" transform="translate(-554.858 -432.354)"/></g></svg>