<svg height="15.956" viewBox="0 0 16.003 15.956" width="16.003" xmlns="http://www.w3.org/2000/svg"><path d="m235.957 350.314a1.6 1.6 0 1 1 1.6-1.6 1.6 1.6 0 0 1 -1.6 1.6zm-9.6 4.9a1.6 1.6 0 0 1 -.017-3.2h.017a1.6 1.6 0 0 1 0 3.2m0-9.6a1.6 1.6 0 0 1 -.017-3.2h.017a1.6 1.6 0 0 1 0 3.2m9.6-.1a3.18 3.18 0 0 0 -2.427 1.137l-4.006-2.313a3.176 3.176 0 1 0 -.562 1.523l3.857 2.228a3.162 3.162 0 0 0 .007 1.289l-3.958 2.277a3.195 3.195 0 1 0 .638 1.479l4.045-2.327a3.195 3.195 0 1 0 2.4-5.292" fill="#111" fill-rule="evenodd" transform="translate(-223.153 -340.858)"/></svg>