<svg height="16" viewBox="0 0 10.133 16" width="10.133" xmlns="http://www.w3.org/2000/svg"><g transform="translate(-282.366 -297.474)"><path d="m291.166 297.474h-7.466a1.335 1.335 0 0 0 -1.333 1.333v13.334a1.335 1.335 0 0 0 1.333 1.333h7.467a1.335 1.335 0 0 0 1.333-1.333v-13.334a1.335 1.335 0 0 0 -1.334-1.333zm.8 14.667a.8.8 0 0 1 -.8.8h-7.466a.8.8 0 0 1 -.8-.8v-1.334h9.067zm0-1.867h-9.066v-10.667h9.067zm0-11.2h-9.066v-.267a.8.8 0 0 1 .8-.8h7.467a.8.8 0 0 1 .8.8z"/><path d="m287.433 311.074a.8.8 0 1 0 .8.8.8.8 0 0 0 -.8-.8zm0 1.067a.267.267 0 1 1 .267-.267.267.267 0 0 1 -.267.267z"/><path d="m287.7 298.274h-.533a.267.267 0 0 0 -.033.533.18.18 0 0 0 .033 0h.533a.267.267 0 0 0 .033-.533z"/></g></svg>