<svg height="16.002" viewBox="0 0 16.62 16.002" width="16.62" xmlns="http://www.w3.org/2000/svg"><path d="m399.983 298.36a4.131 4.131 0 0 1 4.091 4.094c0 .524.017 1.006.047 1.451a.51.51 0 0 0 .507.477.519.519 0 0 0 .117-.014l.7-.164a.393.393 0 0 1 .47.291.514.514 0 0 1 -.332.6l-1.061.429a.571.571 0 0 0 -.336.678c.851 3.146 3.228 2.819 3.228 3.229 0 .515-1.791.587-1.953.749s-.007.948-.369 1.1a.761.761 0 0 1 -.283.039c-.273 0-.658-.054-1.064-.054a2.481 2.481 0 0 0 -1.043.19c-.858.4-1.686 1.137-2.711 1.137s-1.853-.741-2.711-1.137a2.481 2.481 0 0 0 -1.043-.19c-.406 0-.791.054-1.064.054a.761.761 0 0 1 -.283-.039c-.362-.152-.207-.938-.369-1.1s-1.953-.234-1.953-.749c0-.41 2.377-.083 3.228-3.229a.571.571 0 0 0 -.336-.678l-1.061-.429a.514.514 0 0 1 -.332-.6.393.393 0 0 1 .47-.291l.7.164a.519.519 0 0 0 .117.014.51.51 0 0 0 .507-.477c.03-.445.046-.927.047-1.451a4.117 4.117 0 0 1 4.077-4.094m0-.887a4.852 4.852 0 0 0 -1.928.4 5.05 5.05 0 0 0 -2.64 2.653 4.889 4.889 0 0 0 -.395 1.929c0 .327-.008.645-.021.949l-.26-.061a1.237 1.237 0 0 0 -.291-.034 1.287 1.287 0 0 0 -.786.269 1.267 1.267 0 0 0 -.461.727 1.4 1.4 0 0 0 .88 1.617l.779.314a2.834 2.834 0 0 1 -2.107 2.09 3.264 3.264 0 0 0 -.456.17 1.026 1.026 0 0 0 -.616.933 1.155 1.155 0 0 0 .48.927 2.077 2.077 0 0 0 .585.3 7.334 7.334 0 0 0 1.011.24 2.262 2.262 0 0 0 .073.359 1.248 1.248 0 0 0 .716.843 1.614 1.614 0 0 0 .627.108c.156 0 .32-.012.494-.025s.38-.028.57-.028a1.641 1.641 0 0 1 .671.107c.216.1.444.234.686.376a3.829 3.829 0 0 0 4.794 0c.242-.142.47-.276.686-.376a1.641 1.641 0 0 1 .671-.107c.19 0 .383.014.57.028s.338.025.494.025a1.614 1.614 0 0 0 .627-.108 1.248 1.248 0 0 0 .716-.843 2.265 2.265 0 0 0 .073-.359 7.332 7.332 0 0 0 1.011-.24 2.057 2.057 0 0 0 .584-.3 1.153 1.153 0 0 0 .481-.927 1.026 1.026 0 0 0 -.616-.933 3.23 3.23 0 0 0 -.457-.17 2.835 2.835 0 0 1 -2.106-2.09l.779-.314a1.4 1.4 0 0 0 .88-1.617 1.267 1.267 0 0 0 -.461-.727 1.287 1.287 0 0 0 -.786-.269 1.237 1.237 0 0 0 -.291.034l-.26.061c-.013-.3-.02-.622-.021-.949a4.87 4.87 0 0 0 -.4-1.931 5.077 5.077 0 0 0 -2.651-2.652 4.873 4.873 0 0 0 -1.929-.4z" fill="#050505" transform="translate(-391.68 -297.473)"/></svg>