<svg height="14.934" viewBox="0 0 16 14.934" width="16" xmlns="http://www.w3.org/2000/svg"><g transform="translate(-223.155 -385.293)"><path d="m232.455 385.346a.533.533 0 0 0 -.564.064l-5.188 4.15h-2.481a1.068 1.068 0 0 0 -1.067 1.067v4.267a1.067 1.067 0 0 0 1.067 1.067h2.478l5.187 4.15a.533.533 0 0 0 .865-.417v-13.867a.537.537 0 0 0 -.297-.481z"/><path d="m235.455 388.989a.534.534 0 1 0 -.782.728c.01.011.021.021.032.031a4.254 4.254 0 0 1 .009 6.016l-.009.009a.533.533 0 1 0 .73.777l.02-.02a5.319 5.319 0 0 0 .017-7.523z"/><path d="m236.96 387.486a.534.534 0 0 0 -.784.725.327.327 0 0 0 .032.032 6.366 6.366 0 0 1 .033 9l-.033.032a.534.534 0 0 0 .752.757 7.432 7.432 0 0 0 .04-10.509z"/></g></svg>