<svg height="13.477" viewBox="0 0 16.001 13.477" width="16.001" xmlns="http://www.w3.org/2000/svg"><g transform="translate(-166.876 -386.022)"><path d="m174.207 386.228-4.213 2.564h-2.649a.469.469 0 0 0 -.469.469v7a.469.469 0 0 0 .469.469h2.65l4.213 2.564a1.406 1.406 0 0 0 2.137-1.2v-10.665a1.405 1.405 0 0 0 -2.138-1.2zm-6.394 3.5h1.844v6.062h-1.844zm7.594 8.363a.47.47 0 0 1 -.47.468.477.477 0 0 1 -.242-.068l-4.1-2.5v-6.466l4.1-2.5a.469.469 0 0 1 .712.4z"/><path d="m177.678 391.546a.469.469 0 0 0 0 .663.781.781 0 0 1 0 1.1.469.469 0 0 0 .644.682l.019-.019a1.721 1.721 0 0 0 0-2.431.468.468 0 0 0 -.663.005z"/><path d="m179.756 390.128a.469.469 0 0 0 -.663.663 2.785 2.785 0 0 1 0 3.933.469.469 0 0 0 .663.663 3.723 3.723 0 0 0 0-5.259z"/><path d="m181.17 388.718a.469.469 0 0 0 -.682.644l.019.019a4.729 4.729 0 0 1 .073 6.688l-.073.074a.469.469 0 0 0 .644.682l.019-.019a5.645 5.645 0 0 0 .107-7.981c-.036-.037-.071-.072-.107-.107z"/></g></svg>