<svg xmlns="http://www.w3.org/2000/svg" width="16" height="13.098" viewBox="0 0 16 13.098"><path d="M70.33,300.676c-1.006.046-.984.043-1.1.052l.6-1.7s-1.861.684-2.332.807a3.733,3.733,0,0,0-4.4-.354,3.047,3.047,0,0,0-1.463,3.13,8.118,8.118,0,0,1-5.261-2.962l-.444-.53-.327.609a3.666,3.666,0,0,0-.39,2.464,3.564,3.564,0,0,0,.343.962l-.379-.15-.047.633a3.383,3.383,0,0,0,.573,2.007,3.576,3.576,0,0,0,.446.55l-.2-.03.239.725a3.529,3.529,0,0,0,1.812,2.1c-.845.359-1.527.587-2.649.956l-1.021.336.948.518a9.949,9.949,0,0,0,2.9,1.056c2.805.44,5.964.082,8.09-1.833a7.611,7.611,0,0,0,2.257-6.294,1.5,1.5,0,0,1,.279-.971C69.2,302.227,70.33,300.68,70.33,300.676Zm-2.276,1.517a2.432,2.432,0,0,0-.465,1.581,6.622,6.622,0,0,1-1.947,5.553c-1.654,1.487-4.321,2.072-7.318,1.6a7.288,7.288,0,0,1-1.568-.466,24.8,24.8,0,0,0,2.84-1.167l1.634-.773-1.8-.116a2.556,2.556,0,0,1-2.03-1.156,3.2,3.2,0,0,0,.688-.115l1.724-.48-1.743-.427a2.588,2.588,0,0,1-1.582-1.1,2.65,2.65,0,0,1-.343-.756,4.331,4.331,0,0,0,.7.113l1.609.159-1.274-.995a2.685,2.685,0,0,1-1.017-2.828,9.323,9.323,0,0,0,6.573,2.829,5.518,5.518,0,0,0-.1-.8,2.153,2.153,0,0,1,.95-2.572,2.8,2.8,0,0,1,3.3.274.838.838,0,0,0,.77.206,6.338,6.338,0,0,0,.634-.193l-.4,1.155h.516Z" transform="translate(-54.33 -298.925)"/></svg>