<svg height="16.182" viewBox="0 0 19.519 16.182" width="19.519" xmlns="http://www.w3.org/2000/svg"><path d="m2.313 10.213-2.147-2.075a.556.556 0 0 1 -.028-.763.5.5 0 0 1 .731-.029l1.179 1.14a8.254 8.254 0 0 1 1.8-5.594 7.608 7.608 0 0 1 5.272-2.86 7.9 7.9 0 0 1 8.392 7.168l1.872 2.13a.556.556 0 0 1 -.032.763.521.521 0 0 1 -.35.14.508.508 0 0 1 -.382-.175l-1.09-1.24a8.223 8.223 0 0 1 -1.785 4.473 7.6 7.6 0 0 1 -5.267 2.861c-.232.022-.46.031-.688.031a7.878 7.878 0 0 1 -7.477-5.97zm7.475 4.887c.2 0 .4-.008.595-.026a6.606 6.606 0 0 0 4.567-2.474 7.126 7.126 0 0 0 1.55-3.965l-1.33 1.248a.5.5 0 0 1 -.729-.041.555.555 0 0 1 .038-.762l1.99-1.861a6.871 6.871 0 0 0 -6.663-6.139q-.3 0-.6.027a6.6 6.6 0 0 0 -4.566 2.48 7.158 7.158 0 0 0 -1.555 5l1.235-1.359a.5.5 0 0 1 .731-.022.556.556 0 0 1 .021.763l-1.766 1.945a6.828 6.828 0 0 0 6.482 5.186z"/><path d="m8.953 5.176a3.777 3.777 0 1 1 -3.777 3.777 3.783 3.783 0 0 1 3.777-3.777m0-.176a3.953 3.953 0 1 0 3.953 3.953 3.948 3.948 0 0 0 -3.953-3.953z" transform="translate(1.034 -.941)"/><path d="m563.319 258.643c.013-.019.022-.039.033-.058s.033-.054.047-.082.029-.067.042-.1.019-.045.027-.069a1.245 1.245 0 0 0 .034-.142c0-.013.006-.025.008-.038a1.178 1.178 0 0 0 .015-.19v-.406a1.214 1.214 0 0 0 -1.154-1.211c-.021 0-.041-.006-.063-.006s-.041.005-.063.006a1.214 1.214 0 0 0 -1.154 1.211v.406a1.161 1.161 0 0 0 .015.19c0 .013.006.024.008.037a1.161 1.161 0 0 0 .034.143c.007.023.018.046.027.069s.026.068.042.1.031.055.047.082.021.04.034.059a2.026 2.026 0 0 0 -1.019 1.755v.2a.609.609 0 0 0 .609.609h2.839a.609.609 0 0 0 .609-.609v-.2a2.026 2.026 0 0 0 -1.017-1.756zm-1.821-1.084a.813.813 0 0 1 .019-.163c0-.006 0-.011.005-.016a.8.8 0 0 1 .044-.133c.006-.013.014-.025.021-.037a.75.75 0 0 1 .055-.1c.01-.015.023-.027.033-.04a.874.874 0 0 1 .066-.077c.014-.013.03-.024.045-.037a.809.809 0 0 1 .075-.059c.018-.012.037-.021.056-.031a.816.816 0 0 1 .08-.041c.022-.009.044-.014.067-.022a.494.494 0 0 1 .158-.033.529.529 0 0 1 .173 0 .494.494 0 0 1 .158.033c.022.007.045.013.067.022a.824.824 0 0 1 .08.041c.019.01.039.019.057.031a.813.813 0 0 1 .075.059c.015.013.031.024.045.037a.8.8 0 0 1 .066.077c.011.013.023.025.033.04a.818.818 0 0 1 .056.1c.006.013.015.024.021.037a.815.815 0 0 1 .044.133c0 .006 0 .011.005.016a.818.818 0 0 1 .02.163v.406a.808.808 0 0 1 -.015.124v.035a.856.856 0 0 1 -.031.095c-.006.018-.011.037-.018.055a.812.812 0 0 1 -.044.079c-.011.019-.02.039-.032.056a.81.81 0 0 1 -.053.064c-.016.018-.029.037-.046.054s-.04.034-.061.051-.038.032-.059.046-.045.025-.068.038-.045.025-.068.035a.734.734 0 0 1 -.074.024.745.745 0 0 1 -.077.022c-.025.005-.051.006-.077.009a.536.536 0 0 1 -.169 0c-.026 0-.052 0-.077-.009a2.8 2.8 0 0 1 -.153-.043c-.024-.01-.046-.023-.068-.035s-.047-.023-.068-.038-.039-.031-.059-.046-.042-.032-.061-.051-.031-.036-.046-.054a.825.825 0 0 1 -.053-.064c-.012-.018-.021-.037-.032-.056a.813.813 0 0 1 -.044-.079c-.007-.018-.012-.037-.018-.055a.844.844 0 0 1 -.031-.095c0-.012 0-.024 0-.035a.786.786 0 0 1 -.015-.124zm2.434 3.042a.2.2 0 0 1 -.2.2h-2.842a.2.2 0 0 1 -.2-.2v-.2a1.623 1.623 0 0 1 .9-1.454c.011.008.024.013.036.021a1.14 1.14 0 0 0 .134.08c.028.014.055.028.084.039a1.241 1.241 0 0 0 .128.045c.034.01.069.019.1.026a1.273 1.273 0 0 0 .469 0c.035-.007.069-.016.1-.026a1.245 1.245 0 0 0 .128-.045c.028-.012.056-.025.084-.039a1.159 1.159 0 0 0 .135-.08c.011-.008.024-.013.036-.021a1.623 1.623 0 0 1 .9 1.454z" stroke="#000" stroke-width=".5" transform="translate(-552.481 -250.923)"/></svg>