<svg height="16.001" viewBox="0 0 15.999 16.001" width="15.999" xmlns="http://www.w3.org/2000/svg"><g transform="translate(-335.711 -254.116)"><path d="m343.711 258.466a3.65 3.65 0 1 0 3.649 3.65 3.647 3.647 0 0 0 -3.649-3.65zm-2.392 5.589a3.086 3.086 0 0 0 .38.387 3.086 3.086 0 0 1 -.38-.387zm2.392 1.14a3.06 3.06 0 0 1 -1.978-.723 2 2 0 0 1 1.09-1.5c.015.011.03.017.045.027a1.521 1.521 0 0 0 .165.1c.035.017.069.034.1.048a1.267 1.267 0 0 0 .157.055c.043.012.085.023.128.032a1.463 1.463 0 0 0 .148.021c.047 0 .093.007.141.007s.093 0 .141-.007.1-.011.148-.021.085-.02.127-.032a1.283 1.283 0 0 0 .158-.055c.035-.014.069-.031.1-.048a1.635 1.635 0 0 0 .166-.1c.014-.01.03-.016.044-.027a2.007 2.007 0 0 1 1.091 1.5 3.168 3.168 0 0 0 .414-.421 2.5 2.5 0 0 0 -1.148-1.453c.015-.023.027-.048.041-.072s.04-.066.058-.1.035-.082.051-.124.024-.056.033-.084a1.536 1.536 0 0 0 .043-.175c0-.016.008-.031.01-.047a1.516 1.516 0 0 0 .019-.233v-.5a1.5 1.5 0 0 0 -1.422-1.492c-.026 0-.051-.008-.077-.008s-.051.006-.077.008a1.5 1.5 0 0 0 -1.422 1.492v.5a1.535 1.535 0 0 0 .019.234c0 .015.007.03.01.045a1.566 1.566 0 0 0 .043.176c.009.028.022.056.033.084s.032.084.052.125.038.067.057.1.026.049.041.072a2.492 2.492 0 0 0 -1.147 1.453 3.079 3.079 0 1 1 2.392 1.14zm-1-3.429v-.5a1.006 1.006 0 0 1 .024-.2l.006-.02a1.033 1.033 0 0 1 .055-.165c.007-.016.018-.03.026-.046a.951.951 0 0 1 .068-.12.635.635 0 0 1 .041-.05 1.027 1.027 0 0 1 .081-.094c.017-.017.037-.031.055-.046s.06-.051.092-.073.047-.025.07-.038a.91.91 0 0 1 .1-.051c.027-.011.055-.018.083-.027s.067-.022.1-.03.061-.007.092-.01a.634.634 0 0 1 .213 0c.031 0 .062 0 .092.01s.069.019.1.03.056.016.082.027a.91.91 0 0 1 .1.051.59.59 0 0 1 .07.038 1.09 1.09 0 0 1 .092.073c.018.015.038.029.055.046a.932.932 0 0 1 .082.095c.013.017.028.032.041.049a1.089 1.089 0 0 1 .068.12c.008.016.018.03.025.046a1.03 1.03 0 0 1 .055.165l.006.02a.935.935 0 0 1 .024.2v.5a.98.98 0 0 1 -.018.153v.043a.89.89 0 0 1 -.038.117c-.008.022-.013.046-.022.068a.919.919 0 0 1 -.054.1.763.763 0 0 1 -.039.069 1.015 1.015 0 0 1 -.066.079c-.019.023-.036.046-.057.067s-.05.041-.075.062-.046.04-.072.057-.056.031-.084.047-.055.031-.084.043-.061.02-.091.03-.062.02-.1.027-.063.008-.1.011a.611.611 0 0 1 -.209 0c-.032 0-.064-.005-.1-.011s-.063-.018-.094-.027-.062-.018-.091-.03-.057-.029-.085-.043-.057-.029-.084-.047-.048-.038-.072-.057-.052-.04-.075-.062-.038-.044-.057-.067a.826.826 0 0 1 -.065-.079c-.015-.021-.026-.046-.04-.069s-.039-.063-.054-.1-.014-.046-.022-.068a.89.89 0 0 1 -.038-.117c0-.014 0-.029-.005-.043a.983.983 0 0 1 -.007-.153z"/><path d="m350.565 264.885a3.921 3.921 0 0 0 0-5.539l-1.158-1.158a1.392 1.392 0 0 0 -1.76-1.76l-1.167-1.166a3.92 3.92 0 0 0 -5.539 0l-1.163 1.162a1.39 1.39 0 0 0 -1.817 1.343 1.378 1.378 0 0 0 .067.408l-1.171 1.171a3.92 3.92 0 0 0 0 5.539l1.171 1.172a1.378 1.378 0 0 0 -.067.408 1.391 1.391 0 0 0 1.818 1.343l1.162 1.162a3.917 3.917 0 0 0 5.539 0l1.167-1.167a1.374 1.374 0 0 0 .422.072 1.393 1.393 0 0 0 1.338-1.832zm-2.5-7.9a.782.782 0 1 1 -.782.782.782.782 0 0 1 .786-.782zm-6.6-1.195a3.175 3.175 0 0 1 4.484 0l1.007 1.007a6.2 6.2 0 0 0 -6.5 0zm-2.1 1.195a.782.782 0 1 1 -.781.782.781.781 0 0 1 .786-.782zm-1.985 7.373a3.173 3.173 0 0 1 0-4.484l1.007-1.007a6.2 6.2 0 0 0 0 6.5zm1.985 2.889a.782.782 0 1 1 .782-.782.781.781 0 0 1 -.777.782zm6.583 1.195a3.172 3.172 0 0 1 -4.484 0l-1.007-1.007a6.2 6.2 0 0 0 6.5 0zm.706-1.977a1.441 1.441 0 0 0 .032.3 5.5 5.5 0 0 1 -5.946.009 1.39 1.39 0 0 0 .035-.3 1.405 1.405 0 0 0 -1.717-1.374 5.5 5.5 0 0 1 0-5.951 1.427 1.427 0 0 0 .308.036 1.408 1.408 0 0 0 1.41-1.409 1.39 1.39 0 0 0 -.035-.3 5.5 5.5 0 0 1 5.947.009 1.37 1.37 0 0 0 -.033.3 1.409 1.409 0 0 0 1.7 1.378 5.5 5.5 0 0 1 0 5.942 1.409 1.409 0 0 0 -1.7 1.378zm1.41.782a.782.782 0 1 1 .782-.782.782.782 0 0 1 -.777.782zm.961-1.882a6.2 6.2 0 0 0 0-6.5l1.007 1.007a3.175 3.175 0 0 1 0 4.484z"/></g></svg>