<svg height="16" viewBox="0 0 13.797 16" width="13.797" xmlns="http://www.w3.org/2000/svg"><g transform="translate(-108.386 -540.251)"><path d="m114.787 541.585a2.593 2.593 0 0 1 .273.022c.079.009.159.013.236.028a2.626 2.626 0 0 1 .262.076c.071.022.143.04.211.068a2.616 2.616 0 0 1 .252.131c.059.033.121.061.178.1a2.55 2.55 0 0 1 .236.187c.046.039.1.074.141.117a2.568 2.568 0 0 1 .21.244c.034.042.073.081.1.126a2.531 2.531 0 0 1 .176.308c.02.04.046.076.065.117a2.536 2.536 0 0 1 .139.421c0 .018.013.034.017.051a2.617 2.617 0 0 1 .062.513v1.146h1.279v-1.146a3.831 3.831 0 0 0 -3.641-3.821c-.067 0-.13-.02-.2-.02-.068 0-.131.017-.2.02a3.831 3.831 0 0 0 -3.641 3.821v1.28a3.8 3.8 0 0 0 .049.6c.006.039.018.076.026.116a3.67 3.67 0 0 0 .109.45c.024.074.056.144.084.217.042.108.082.215.133.319.044.089.1.172.147.258.036.061.065.125.106.184a6.4 6.4 0 0 0 -3.215 5.54v.641a1.92 1.92 0 0 0 1.921 1.92h3.621a2.178 2.178 0 0 1 -.251-.969v-.31h-3.369a.641.641 0 0 1 -.64-.64v-.641a5.125 5.125 0 0 1 2.849-4.589c.036.027.076.042.113.067a3.738 3.738 0 0 0 .425.251c.087.045.175.087.264.125.118.048.238.088.359.124v-.7a2.2 2.2 0 0 1 .113-.658c-.07-.031-.136-.069-.2-.1s-.148-.074-.216-.119-.124-.1-.184-.146-.133-.1-.193-.16-.1-.113-.146-.169a2.562 2.562 0 0 1 -.167-.2c-.039-.056-.067-.118-.1-.177a2.492 2.492 0 0 1 -.138-.25c-.024-.055-.037-.116-.058-.173a2.563 2.563 0 0 1 -.1-.3c-.008-.035-.007-.075-.013-.111a2.566 2.566 0 0 1 -.046-.392v-1.28a2.557 2.557 0 0 1 .061-.513c0-.017.012-.033.017-.05a2.542 2.542 0 0 1 .139-.422c.018-.042.045-.078.065-.118a2.556 2.556 0 0 1 .174-.307c.032-.046.072-.084.106-.128a2.667 2.667 0 0 1 .209-.243c.043-.042.094-.077.14-.117a2.56 2.56 0 0 1 .236-.187c.056-.038.118-.065.177-.1a2.629 2.629 0 0 1 .253-.131c.068-.028.14-.046.211-.068a2.566 2.566 0 0 1 .262-.076c.076-.015.157-.019.236-.028a2.593 2.593 0 0 1 .276-.029z"/><path d="m123.431 547.489h-7.211a.342.342 0 0 0 -.343.342v9.613a.343.343 0 0 0 .343.343h2.148 5.062a.342.342 0 0 0 .342-.343v-9.611a.342.342 0 0 0 -.341-.344zm-.337 9.613h-2.094-2.341-2.092v-8.925h6.528z" transform="translate(-1.59 -1.536)"/><path d="m122.388 556.135h-4.254a.353.353 0 0 0 0 .706h4.254a.353.353 0 0 0 0-.706z" transform="translate(-1.994 -3.371)"/><path d="m118.129 555.037h4.258a.353.353 0 0 0 0-.706h-4.254a.353.353 0 1 0 0 .707z" transform="translate(-1.993 -2.988)"/><path d="m118.129 553.24h4.258a.353.353 0 0 0 0-.706h-4.254a.353.353 0 1 0 0 .707z" transform="translate(-1.993 -2.606)"/><path d="m118.129 551.44h2.84a.353.353 0 0 0 0-.706h-2.836a.353.353 0 0 0 0 .707z" transform="translate(-1.993 -2.224)"/></g></svg>