<svg height="15.999" viewBox="0 0 15.999 15.999" width="15.999" xmlns="http://www.w3.org/2000/svg"><path d="m512.489 254.117a8 8 0 1 0 8 8 8 8 0 0 0 -8-8zm0 14.749a6.731 6.731 0 0 1 -5.242-2.5 6.764 6.764 0 0 0 .907.923 4.386 4.386 0 0 1 2.391-3.289c.031.023.065.036.1.058a3.092 3.092 0 0 0 .363.215c.075.039.149.074.226.106a3.359 3.359 0 0 0 .345.12c.093.027.185.052.28.07a3.191 3.191 0 0 0 .324.045c.1.01.206.017.309.017s.206-.007.309-.017a3.248 3.248 0 0 0 .325-.045c.094-.018.186-.043.279-.07a3.278 3.278 0 0 0 .345-.12c.077-.032.151-.067.226-.106a3.188 3.188 0 0 0 .364-.215c.031-.022.066-.035.1-.058a4.387 4.387 0 0 1 2.39 3.293 6.827 6.827 0 0 0 .908-.923 5.468 5.468 0 0 0 -2.516-3.183c.034-.05.059-.106.09-.157.043-.074.089-.146.126-.222s.079-.18.114-.272c.024-.062.052-.122.072-.186a3.287 3.287 0 0 0 .093-.383c.007-.034.018-.067.023-.1a3.25 3.25 0 0 0 .042-.513v-1.1a3.279 3.279 0 0 0 -3.117-3.27c-.057 0-.111-.018-.169-.018s-.112.015-.169.018a3.278 3.278 0 0 0 -3.116 3.27v1.1a3.246 3.246 0 0 0 .041.513c.005.033.016.066.023.1a3.176 3.176 0 0 0 .093.385c.02.064.048.124.072.185a2.86 2.86 0 0 0 .114.273c.037.076.083.148.126.221.031.052.056.107.09.158a5.469 5.469 0 0 0 -2.516 3.183 6.749 6.749 0 1 1 5.243 2.5zm-2.191-7.517v-1.1a2.177 2.177 0 0 1 .053-.439c0-.015.01-.029.014-.044a2.3 2.3 0 0 1 .119-.36c.016-.035.039-.067.057-.1a1.988 1.988 0 0 1 .149-.262c.027-.039.061-.072.09-.109a2.218 2.218 0 0 1 .178-.208c.038-.036.081-.066.121-.1a2.256 2.256 0 0 1 .2-.16c.048-.032.1-.056.152-.084a2.32 2.32 0 0 1 .216-.112c.058-.024.12-.039.18-.058a2.21 2.21 0 0 1 .225-.065c.066-.013.134-.017.2-.024a2.234 2.234 0 0 1 .233-.019 2.211 2.211 0 0 1 .233.019c.068.007.137.011.2.024a2.072 2.072 0 0 1 .225.065c.06.019.122.034.181.058.075.032.144.073.215.112.051.028.1.052.152.084a2.092 2.092 0 0 1 .2.16c.04.034.083.064.121.1a2.231 2.231 0 0 1 .179.209c.029.037.063.069.089.108a2.124 2.124 0 0 1 .15.263c.018.035.04.066.056.1a2.2 2.2 0 0 1 .119.36c0 .015.011.029.014.044a2.179 2.179 0 0 1 .053.439v1.1a2.164 2.164 0 0 1 -.039.335c-.006.032-.005.065-.012.1a2.093 2.093 0 0 1 -.083.257c-.017.048-.028.1-.049.147a2.128 2.128 0 0 1 -.118.214c-.029.051-.053.1-.086.152s-.1.116-.143.173-.08.1-.125.145-.109.092-.165.137-.1.088-.158.125a2.056 2.056 0 0 1 -.184.1c-.061.032-.12.068-.185.1s-.133.044-.2.065-.136.045-.207.06a2.007 2.007 0 0 1 -.208.024 1.391 1.391 0 0 1 -.458 0 2.071 2.071 0 0 1 -.208-.024c-.071-.015-.138-.039-.207-.06s-.136-.038-.2-.065-.123-.063-.184-.1a2.069 2.069 0 0 1 -.185-.1c-.056-.037-.106-.083-.158-.125s-.114-.087-.165-.137-.083-.1-.124-.145a2.161 2.161 0 0 1 -.144-.173c-.033-.048-.057-.1-.086-.152a2.122 2.122 0 0 1 -.118-.214c-.021-.047-.032-.1-.049-.147a2.263 2.263 0 0 1 -.083-.257c-.007-.031-.006-.064-.011-.1a2.041 2.041 0 0 1 -.03-.336z" transform="translate(-504.49 -254.117)"/></svg>