<svg height="15.987" viewBox="0 0 15.999 15.987" width="15.999" xmlns="http://www.w3.org/2000/svg"><g transform="translate(-555.756 -254.123)"><path d="m560.829 262.08c.113.022.225.036.34.047.1.009.191.014.287.016-.028-.111-.06-.221-.081-.334a1.042 1.042 0 0 1 -.03-.143 4.715 4.715 0 0 1 -.059-.724h-.033c-.073-.007-.147-.011-.218-.025s-.145-.041-.217-.063-.142-.04-.209-.068a1.979 1.979 0 0 1 -.194-.1 2.146 2.146 0 0 1 -.193-.106c-.059-.039-.11-.087-.165-.131s-.119-.091-.173-.143-.087-.1-.13-.152-.106-.117-.151-.182c-.034-.05-.059-.106-.09-.158a2.329 2.329 0 0 1 -.123-.225c-.022-.049-.034-.1-.052-.154a2.267 2.267 0 0 1 -.086-.269c-.008-.032-.007-.067-.013-.1a2.243 2.243 0 0 1 -.041-.351v-1.147a2.322 2.322 0 0 1 .055-.46c0-.015.011-.029.015-.045a2.282 2.282 0 0 1 .125-.377c.017-.038.041-.07.059-.107a2.4 2.4 0 0 1 .156-.275c.029-.04.064-.075.1-.114a2.035 2.035 0 0 1 .187-.217c.039-.039.084-.07.126-.1a2.281 2.281 0 0 1 .211-.168c.051-.033.106-.058.159-.087a2.109 2.109 0 0 1 .226-.118c.061-.025.126-.041.189-.061s.155-.051.236-.068.14-.017.211-.025.161-.019.244-.02.164.012.245.02.142.011.211.025.157.044.235.068c.063.02.129.036.189.061a2.3 2.3 0 0 1 .226.117c.053.03.109.055.16.088a2.419 2.419 0 0 1 .211.168c.042.035.087.066.126.1.022.021.039.046.059.068a4.725 4.725 0 0 1 1.027-.59 3.43 3.43 0 0 0 -2.511-1.307c-.059 0-.116-.018-.177-.018s-.118.015-.178.018a3.433 3.433 0 0 0 -3.263 3.424v1.147a3.438 3.438 0 0 0 .044.537c.005.035.016.069.023.1a3.482 3.482 0 0 0 .1.4c.021.066.05.129.075.194a2.977 2.977 0 0 0 .12.286c.039.079.086.155.132.231.032.055.058.112.094.165a5.73 5.73 0 0 0 -2.881 4.965v.574a1.721 1.721 0 0 0 1.721 1.721h1.513v-.077a6.921 6.921 0 0 1 .1-1.07h-1.608a.574.574 0 0 1 -.574-.574v-.567a4.593 4.593 0 0 1 2.553-4.113c.033.024.069.038.1.06a3.494 3.494 0 0 0 .38.226c.079.04.157.077.237.111a3.373 3.373 0 0 0 .362.125c.086.026.182.051.281.071z"/><path d="m568.873 262.851c.036-.053.062-.111.1-.165.045-.077.093-.152.132-.232s.082-.189.119-.285c.025-.065.055-.128.076-.194a3.5 3.5 0 0 0 .1-.4c.006-.036.018-.071.024-.107a3.313 3.313 0 0 0 .043-.536v-1.147a3.434 3.434 0 0 0 -3.263-3.425c-.06 0-.116-.018-.177-.018s-.117.015-.177.018a3.434 3.434 0 0 0 -3.263 3.425v1.147a3.3 3.3 0 0 0 .043.536c.006.036.017.069.024.1a3.294 3.294 0 0 0 .1.4c.021.066.051.129.076.194.037.1.073.193.119.285s.087.155.132.231c.033.055.059.113.1.166a5.731 5.731 0 0 0 -2.882 4.964v.574a1.721 1.721 0 0 0 1.701 1.728h8.03a1.721 1.721 0 0 0 1.722-1.721v-.574a5.731 5.731 0 0 0 -2.879-4.964zm-5.149-3.067a2.313 2.313 0 0 1 .055-.46c0-.016.011-.03.015-.046a2.283 2.283 0 0 1 .125-.377c.016-.037.04-.07.059-.106a2.118 2.118 0 0 1 .156-.275c.028-.041.064-.076.094-.114a2.441 2.441 0 0 1 .187-.218c.039-.038.084-.069.126-.1a2.258 2.258 0 0 1 .212-.168c.05-.034.106-.059.159-.088a2.3 2.3 0 0 1 .226-.117c.061-.025.126-.041.189-.061a1.4 1.4 0 0 1 .447-.093 1.5 1.5 0 0 1 .488 0 1.4 1.4 0 0 1 .447.093c.063.02.128.036.189.061a2.275 2.275 0 0 1 .225.117 1.767 1.767 0 0 1 .16.088 2.282 2.282 0 0 1 .211.167c.042.036.088.067.127.1a2.305 2.305 0 0 1 .188.219c.03.038.065.072.093.113a2.266 2.266 0 0 1 .157.276c.018.036.042.068.058.105a2.283 2.283 0 0 1 .125.377c0 .016.011.03.015.046a2.317 2.317 0 0 1 .055.46v1.147a2.258 2.258 0 0 1 -.041.351c-.006.032-.005.067-.012.1a2.391 2.391 0 0 1 -.087.268c-.018.051-.03.105-.051.155a2.321 2.321 0 0 1 -.124.224c-.03.053-.056.109-.09.159-.045.065-.1.121-.15.181s-.083.105-.131.152-.114.1-.172.143-.107.092-.166.131-.128.072-.193.107-.126.072-.193.1a2.118 2.118 0 0 1 -.209.067 2.063 2.063 0 0 1 -.217.063c-.071.015-.145.018-.219.026a1.512 1.512 0 0 1 -.478 0c-.074-.008-.148-.011-.219-.026a2.059 2.059 0 0 1 -.217-.063 2.124 2.124 0 0 1 -.209-.067c-.067-.028-.129-.066-.193-.1s-.132-.066-.193-.107-.111-.087-.166-.131-.119-.091-.172-.143-.087-.1-.131-.152-.1-.116-.15-.181c-.034-.05-.06-.106-.09-.159a2.322 2.322 0 0 1 -.124-.224c-.021-.05-.033-.1-.051-.155a2.392 2.392 0 0 1 -.087-.268c-.007-.033-.006-.068-.012-.1a2.258 2.258 0 0 1 -.041-.351zm6.883 8.605a.574.574 0 0 1 -.574.574h-8.033a.574.574 0 0 1 -.574-.574v-.574a4.592 4.592 0 0 1 2.553-4.112c.032.024.069.037.1.06a3.243 3.243 0 0 0 .38.225c.078.04.156.078.237.111a3.5 3.5 0 0 0 .361.126c.1.028.194.054.293.073a3.6 3.6 0 0 0 1.326 0c.1-.019.2-.045.293-.073a3.508 3.508 0 0 0 .361-.126c.08-.033.159-.071.237-.111a3.26 3.26 0 0 0 .381-.225c.032-.023.069-.037.1-.06a4.592 4.592 0 0 1 2.553 4.112z"/></g></svg>