<svg xmlns="http://www.w3.org/2000/svg" width="16" height="14.22" viewBox="0 0 16 14.22"><g transform="translate(-444.813 -255.007)"><path d="M459.666,255.007H445.96a1.15,1.15,0,0,0-1.147,1.15v12.119a.95.95,0,0,0,.947.951h14.106a.95.95,0,0,0,.947-.951V256.157A1.15,1.15,0,0,0,459.666,255.007Zm.522,13.269a.325.325,0,0,1-.322.326H445.76a.325.325,0,0,1-.322-.326V257.639h14.75Zm0-11.262h-14.75v-.857a.523.523,0,0,1,.522-.524h13.706a.523.523,0,0,1,.522.524Z"/><path d="M452.813,267.553a4.426,4.426,0,1,0-4.426-4.427A4.424,4.424,0,0,0,452.813,267.553Zm-2.4-1.575a2.426,2.426,0,0,1,1.32-1.811c.017.012.036.02.054.031a1.772,1.772,0,0,0,.2.12c.041.021.082.04.125.058a1.875,1.875,0,0,0,.191.067c.051.015.1.028.154.038a1.554,1.554,0,0,0,.18.025,1.47,1.47,0,0,0,.342,0,1.537,1.537,0,0,0,.179-.025,1.582,1.582,0,0,0,.155-.038,1.875,1.875,0,0,0,.191-.067c.042-.018.084-.037.125-.058a1.772,1.772,0,0,0,.2-.12c.018-.012.037-.019.054-.031a2.425,2.425,0,0,1,1.318,1.8,3.68,3.68,0,0,1-4.79.006ZM451.6,262.7V262.1a1.136,1.136,0,0,1,.029-.243l.008-.024a1.231,1.231,0,0,1,.066-.2c.008-.019.021-.037.031-.056a1.211,1.211,0,0,1,.082-.145c.015-.022.034-.04.05-.06a1.216,1.216,0,0,1,.1-.115c.021-.021.044-.037.067-.056a1.341,1.341,0,0,1,.111-.088c.027-.018.056-.031.084-.047s.078-.044.12-.062.066-.021.1-.032a1.266,1.266,0,0,1,.124-.036c.036-.007.074-.009.112-.013a.836.836,0,0,1,.258,0c.037,0,.075.006.112.013s.083.023.124.036.068.019.1.032.08.04.119.062.058.029.085.047a1.336,1.336,0,0,1,.111.088c.022.019.046.035.067.056a1.221,1.221,0,0,1,.1.115c.016.02.035.039.05.06a1.3,1.3,0,0,1,.082.146c.01.019.023.036.031.055a1.231,1.231,0,0,1,.066.2c0,.008.006.015.008.024a1.138,1.138,0,0,1,.029.243v.606a1.125,1.125,0,0,1-.022.185c0,.018,0,.036-.006.053a1.178,1.178,0,0,1-.046.142.788.788,0,0,1-.027.082c-.018.041-.043.079-.065.118s-.03.058-.048.084-.052.064-.079.1-.044.056-.069.08-.061.051-.091.076-.057.048-.088.069a1.013,1.013,0,0,1-.1.056.984.984,0,0,1-.1.053.955.955,0,0,1-.111.036,1.14,1.14,0,0,1-.114.033,1.113,1.113,0,0,1-.116.014c-.042,0-.083.01-.126.01s-.085-.006-.127-.01a1.094,1.094,0,0,1-.115-.014,1.068,1.068,0,0,1-.114-.033.955.955,0,0,1-.111-.036.988.988,0,0,1-.1-.053,1.013,1.013,0,0,1-.1-.056c-.031-.021-.059-.046-.088-.069s-.063-.048-.091-.076-.046-.053-.069-.08a1.186,1.186,0,0,1-.079-.1c-.018-.026-.032-.056-.048-.084s-.047-.077-.065-.118a.788.788,0,0,1-.027-.082,1.178,1.178,0,0,1-.046-.142c0-.017,0-.035-.007-.053A1.242,1.242,0,0,1,451.6,262.7Zm3.717,3.178a3.674,3.674,0,0,0,.27-.274A3.674,3.674,0,0,1,455.318,265.88Zm-2.505-6.488a3.715,3.715,0,0,1,2.894,6.069,3.03,3.03,0,0,0-1.385-1.745c.019-.027.032-.058.05-.087s.049-.08.07-.122.043-.1.062-.151c.014-.034.029-.067.04-.1a1.714,1.714,0,0,0,.052-.211c0-.019.009-.038.012-.057a1.783,1.783,0,0,0,.024-.283V262.1a1.814,1.814,0,0,0-1.725-1.81c-.032,0-.062-.009-.094-.009h0c-.032,0-.062.008-.093.009a1.814,1.814,0,0,0-1.725,1.81v.606a1.905,1.905,0,0,0,.023.283c0,.019.009.037.013.055a1.752,1.752,0,0,0,.051.214c.011.035.027.068.04.1.02.051.039.1.063.151s.046.082.07.122.031.059.05.087a3.026,3.026,0,0,0-1.392,1.762,3.734,3.734,0,0,1,2.9-6.086Z"/></g></svg>