<svg xmlns="http://www.w3.org/2000/svg" width="14.578" height="16" viewBox="0 0 14.578 16"><g transform="translate(-9 -5)"><path d="M23.507,15.169c0-.018.018-.018.018-.036s.018-.018.018-.036.018-.018.018-.036,0-.018.018-.036v-.089h0v-.071c0-.018,0-.018-.018-.036,0-.018,0-.018-.018-.036l-.018-.018c0-.018-.018-.018-.018-.036h0L21.8,12.36V11.4A6.4,6.4,0,1,0,9.569,14.031a6.455,6.455,0,0,0,1.067,1.547,5.784,5.784,0,0,1,.409.516,5.991,5.991,0,0,1,1.049,1.991,9.492,9.492,0,0,1,.284,2.56.357.357,0,0,0,.356.356h4.978a.357.357,0,0,0,.356-.356,1.783,1.783,0,0,1,1.778-1.778h1.6a.357.357,0,0,0,.356-.356v-3.2h1.422a.133.133,0,0,0,.089-.018h.018c.036-.018.053-.018.089-.036h0l.018-.018c.018,0,.018-.018.036-.018A.137.137,0,0,1,23.507,15.169ZM21.444,14.6a.357.357,0,0,0-.356.356v1.422H18.956a.356.356,0,1,0,0,.711h2.133v1.067H19.844a2.474,2.474,0,0,0-2.453,2.133h-4.3a9.209,9.209,0,0,0-.32-2.4,6.5,6.5,0,0,0-1.156-2.222l-.427-.533a6.052,6.052,0,0,1-.96-1.387A5.639,5.639,0,0,1,9.711,11.4a5.689,5.689,0,0,1,11.378,0v1.067a.342.342,0,0,0,.071.213l1.369,1.92Zm-5.1-4.3A1.738,1.738,0,0,0,17,8.911a1.778,1.778,0,1,0-3.556,0A1.848,1.848,0,0,0,14.1,10.3a2.136,2.136,0,0,0-1.013,1.813v1.422a.357.357,0,0,0,.356.356H17a.357.357,0,0,0,.356-.356V12.111A2.136,2.136,0,0,0,16.342,10.3ZM14.156,8.911a1.067,1.067,0,1,1,1.067,1.067A1.07,1.07,0,0,1,14.156,8.911Zm2.489,4.267H13.8V12.111a1.422,1.422,0,0,1,2.844,0Z"/></g></svg>