<svg height="15.999" viewBox="0 0 17.836 15.999" width="17.836" xmlns="http://www.w3.org/2000/svg"><g transform="translate(-500.506 -473.44)"><path d="m510.434 485.609a1.941 1.941 0 0 1 -1.2-.416h-6.606a.708.708 0 0 1 -.708-.708v-8.922a.707.707 0 0 1 .708-.707h8.263a3.344 3.344 0 0 1 2.017-1.416h-10.994a1.423 1.423 0 0 0 -1.408 1.43v1.012 9.34-.015a1.4 1.4 0 0 0 1.4 1.4h4.26a.729.729 0 0 1 .717.719.708.708 0 0 1 -.715.7h-2.126a.708.708 0 0 0 -.7.715.693.693 0 0 0 .686.7h7.089a.709.709 0 0 0 .717-.693v-.007a.722.722 0 0 0 -.717-.715h-2.123a.687.687 0 0 1 -.7-.678.086.086 0 0 1 0-.016v-.007a.709.709 0 0 1 .7-.715h4.246l.006.015a1.406 1.406 0 0 0 1.359-1.014z"/><path d="m516.006 479.168c.028-.042.05-.089.076-.133.037-.063.075-.124.107-.188a2.467 2.467 0 0 0 .1-.231c.02-.053.044-.1.061-.158a2.8 2.8 0 0 0 .079-.325c.005-.029.015-.057.019-.087a2.734 2.734 0 0 0 .036-.435v-.93a2.785 2.785 0 0 0 -2.647-2.777c-.048 0-.094-.014-.143-.014s-.1.012-.143.014a2.785 2.785 0 0 0 -2.647 2.777v.93a2.757 2.757 0 0 0 .036.436c0 .028.013.055.019.084a2.83 2.83 0 0 0 .079.327c.017.054.041.1.061.157.03.078.06.157.1.232s.07.125.107.187c.026.045.048.091.077.134a4.646 4.646 0 0 0 -2.337 4.026v.466a1.4 1.4 0 0 0 1.4 1.395h6.512a1.4 1.4 0 0 0 1.4-1.395v-.466a4.647 4.647 0 0 0 -2.352-4.026zm-4.176-2.487a1.912 1.912 0 0 1 .044-.373c0-.012.009-.024.012-.037a1.85 1.85 0 0 1 .1-.3c.013-.031.033-.057.047-.087a2.043 2.043 0 0 1 .127-.223c.023-.033.052-.061.077-.092a1.829 1.829 0 0 1 .151-.177c.032-.031.069-.056.1-.084a1.879 1.879 0 0 1 .172-.137c.041-.027.086-.047.129-.071a1.879 1.879 0 0 1 .184-.1c.049-.02.1-.033.153-.049a1.747 1.747 0 0 1 .191-.055 1.6 1.6 0 0 1 .171-.021 1.867 1.867 0 0 1 .2-.016 1.826 1.826 0 0 1 .2.016 1.62 1.62 0 0 1 .172.021 1.8 1.8 0 0 1 .19.055c.052.016.1.029.154.049s.122.062.182.1c.044.024.089.044.13.071a1.9 1.9 0 0 1 .171.136c.034.029.071.054.1.085a1.831 1.831 0 0 1 .152.178c.025.031.053.059.076.091a1.812 1.812 0 0 1 .127.224c.015.029.034.056.047.086a1.853 1.853 0 0 1 .1.3c0 .013.009.024.012.037a1.913 1.913 0 0 1 .045.373v.93a1.9 1.9 0 0 1 -.034.285c-.005.026 0 .055-.01.081a1.792 1.792 0 0 1 -.07.218c-.015.041-.024.085-.042.125a1.785 1.785 0 0 1 -.1.182c-.025.043-.045.088-.073.129s-.081.1-.122.147-.067.085-.106.123-.093.078-.14.116a1.511 1.511 0 0 1 -.134.106 1.682 1.682 0 0 1 -.157.087 1.754 1.754 0 0 1 -.156.081c-.055.023-.113.037-.17.055s-.115.038-.176.051-.117.014-.177.02a1.183 1.183 0 0 1 -.388 0c-.059-.006-.12-.009-.177-.02s-.118-.033-.176-.051-.115-.032-.17-.055-.1-.053-.156-.081-.107-.054-.157-.087a1.519 1.519 0 0 1 -.134-.106c-.047-.038-.1-.074-.14-.116s-.071-.082-.106-.123-.085-.1-.122-.147-.048-.086-.073-.129a2.011 2.011 0 0 1 -.1-.182c-.018-.04-.027-.084-.042-.125a1.986 1.986 0 0 1 -.07-.218c-.006-.026 0-.055-.01-.081a1.774 1.774 0 0 1 -.033-.285zm5.582 6.979a.466.466 0 0 1 -.466.465h-6.512a.466.466 0 0 1 -.466-.465v-.466a3.727 3.727 0 0 1 2.071-3.335c.026.02.056.031.082.049a2.759 2.759 0 0 0 .309.183c.063.032.127.063.192.09a2.742 2.742 0 0 0 .293.1c.079.023.157.043.237.059a2.586 2.586 0 0 0 .276.038 2.937 2.937 0 0 0 .8-.038c.08-.016.158-.036.237-.059a2.742 2.742 0 0 0 .293-.1c.065-.027.129-.058.192-.09a2.753 2.753 0 0 0 .309-.183c.027-.018.056-.03.082-.049a3.725 3.725 0 0 1 2.071 3.335z"/></g></svg>