<svg height="30" viewBox="0 0 30 30" width="30" xmlns="http://www.w3.org/2000/svg"><path d="m30 21.261a3.283 3.283 0 0 0 -.969-2.336l-4.731-4.731-.016-.018-.018-.016-1.58-1.58a.586.586 0 1 0 -.829.829l1.183 1.183-1.957 1.957a.586.586 0 0 0 -.171.379 4.261 4.261 0 0 1 -3.986 3.986.586.586 0 0 0 -.379.171l-1.957 1.957-5.677-5.679 1.956-1.956a.586.586 0 0 0 .171-.379 4.267 4.267 0 0 1 3.988-3.988.586.586 0 0 0 .379-.171l1.956-1.956.742.742a.586.586 0 1 0 .829-.829l-1.157-1.155-1.417-1.418a6.561 6.561 0 0 0 -5.745-1.953c-.894.055-1.415.071-1.719-.233l-.75-.75.046-.046a.586.586 0 0 0 0-.829l-1.821-1.821a2.135 2.135 0 0 0 -3.011 0l-2.739 2.739a2.135 2.135 0 0 0 0 3.011l1.819 1.82a.586.586 0 0 0 .414.172.586.586 0 0 0 .414-.172l.046-.046.75.75c.3.3.288.825.233 1.719a6.561 6.561 0 0 0 1.956 5.746l1.417 1.417 6.49 6.49.015.017.017.015 4.732 4.732a3.3 3.3 0 0 0 5.594-1.8 3.31 3.31 0 0 0 2.717-2.717 3.309 3.309 0 0 0 2.765-3.253zm-28.55-15.718a.963.963 0 0 1 0-1.354l2.739-2.739a.963.963 0 0 1 1.354 0l1.406 1.4-4.094 4.098zm4.018 5.144a3.144 3.144 0 0 0 -.574-2.619l-.75-.75 3.173-3.175.75.75a3.145 3.145 0 0 0 2.619.574 5.42 5.42 0 0 1 4.845 1.615l1 1-1.8 1.8a5.441 5.441 0 0 0 -4.843 4.848l-1.8 1.8-1-1a5.42 5.42 0 0 1 -1.615-4.845zm21.75 12.641a3.29 3.29 0 0 0 -.9-1.685.586.586 0 1 0 -.83.827 2.132 2.132 0 1 1 -3.015 3.015.586.586 0 0 0 -.827.83 3.29 3.29 0 0 0 1.685.9 2.13 2.13 0 0 1 -3.574.985l-4.337-4.331 1.8-1.8a5.434 5.434 0 0 0 4.84-4.84l1.8-1.8 4.34 4.324a2.13 2.13 0 0 1 -.985 3.574z"/><path d="m215.9 210.1a.586.586 0 0 0 -.829 0l-3.843 3.843a.586.586 0 1 0 .829.829l3.843-3.843a.586.586 0 0 0 0-.829z" transform="translate(-198.693 -197.626)"/><path d="m249.09 244.114-3.843 3.843a.586.586 0 0 0 .829.829l3.843-3.843a.586.586 0 0 0 -.829-.829z" transform="translate(-230.715 -229.648)"/><path d="m337.517 180.912a.584.584 0 0 0 .827 0 .587.587 0 1 0 -.83 0z" transform="translate(-317.576 -169.366)"/></svg>