<svg xmlns="http://www.w3.org/2000/svg" width="16" height="14.157" viewBox="0 0 16 14.157"><path d="M125.878,258.336h-2.49l-.27-1.323a2.477,2.477,0,0,0-2.421-1.975h-4.2a2.477,2.477,0,0,0-2.421,1.975l-.27,1.323h-2.49a.72.72,0,0,0-.719.718v9.422a.719.719,0,0,0,.719.719h14.562a.72.72,0,0,0,.719-.718v-9.423A.721.721,0,0,0,125.878,258.336ZM114.5,257.1a2.038,2.038,0,0,1,1.992-1.625h4.2a2.039,2.039,0,0,1,1.99,1.625l.253,1.236h-.574l-.229-1.123a1.475,1.475,0,0,0-1.44-1.175h-4.2a1.474,1.474,0,0,0-1.441,1.175l-.229,1.123h-.575Zm7.416,1.236h-6.648l.211-1.036a1.034,1.034,0,0,1,1.013-.825h4.2a1.036,1.036,0,0,1,1.01.825Zm-10.887.718a.282.282,0,0,1,.278-.286h14.566a.283.283,0,0,1,.281.281v2.419a2.034,2.034,0,0,1-2.031,2.031H113.066a2.033,2.033,0,0,1-2.032-2.031Zm10.663,4.881h1.156v1.275a.156.156,0,0,1-.156.156h-.844a.156.156,0,0,1-.156-.156h0Zm-7.359,0H115.5v1.275a.156.156,0,0,1-.156.156H114.5a.156.156,0,0,1-.156-.156h0Zm11.82,4.541a.282.282,0,0,1-.281.281H111.316a.281.281,0,0,1-.281-.281v-5.608a2.465,2.465,0,0,0,2.031,1.069h.831v1.275a.594.594,0,0,0,.594.594h.844a.594.594,0,0,0,.594-.594v-1.277h5.328v1.275a.594.594,0,0,0,.594.594h.846a.594.594,0,0,0,.594-.594v-1.275h.836a2.465,2.465,0,0,0,2.033-1.067Z" transform="translate(-110.597 -255.038)"/></svg>