<svg height="12.124" viewBox="0 0 15.997 12.124" width="15.997" xmlns="http://www.w3.org/2000/svg"><g transform="translate(-166.878 -299.412)"><path d="m177.341 304.755-3.535-1.934a.649.649 0 0 0 -.881.257.637.637 0 0 0 -.08.313v3.835a.649.649 0 0 0 .957.572l3.535-1.9a.649.649 0 0 0 0-1.141zm-3.558 1.988v-2.866l2.642 1.446z"/><path d="m182.76 302.272v-.007a3.669 3.669 0 0 0 -.706-1.853 2.6 2.6 0 0 0 -1.724-.813l-.079-.01h-.028c-2.116-.156-5.31-.177-5.345-.177s-3.229.021-5.364.175h-.028l-.075.012a2.534 2.534 0 0 0 -1.714.833 3.83 3.83 0 0 0 -.7 1.823v.016c-.006.055-.119 1.331-.119 2.611v1.2c0 1.281.113 2.556.118 2.61v.008a3.618 3.618 0 0 0 .7 1.834 2.66 2.66 0 0 0 1.782.8c.065.007.121.014.159.021h.037c1.221.116 5.05.173 5.213.176h.01c.032 0 3.226-.021 5.342-.175h.028l.09-.01a2.483 2.483 0 0 0 1.7-.813 3.841 3.841 0 0 0 .7-1.823v-.01c0-.054.118-1.329.118-2.61v-1.207c.003-1.283-.11-2.557-.115-2.611zm-.82 3.807c0 1.185-.1 2.406-.113 2.518a2.983 2.983 0 0 1 -.46 1.3 1.542 1.542 0 0 1 -1.107.515l-.1.011c-2.046.148-5.12.171-5.261.172-.159 0-3.932-.06-5.116-.17-.061-.01-.126-.017-.2-.025a1.754 1.754 0 0 1 -1.2-.5v-.013a2.693 2.693 0 0 1 -.449-1.285c-.007-.09-.113-1.32-.113-2.522v-1.2c0-1.184.1-2.4.113-2.518a2.913 2.913 0 0 1 .46-1.3 1.616 1.616 0 0 1 1.13-.535l.076-.009c2.076-.147 5.172-.17 5.283-.17s3.206.023 5.263.172l.083.01a1.681 1.681 0 0 1 1.148.52 2.751 2.751 0 0 1 .451 1.3c.007.08.114 1.318.114 2.522z"/></g></svg>