<svg height="32.39" viewBox="0 0 32.393 32.39" width="32.393" xmlns="http://www.w3.org/2000/svg" xmlns:xlink="http://www.w3.org/1999/xlink"><clipPath id="a"><path d="m0 0h32.392v32.39h-32.392z"/></clipPath><g clip-path="url(#a)"><g fill-rule="evenodd"><path d="m86.342 61.359q-.067-.78-.2-1.559h-.842a21.409 21.409 0 0 0 -15.8 6.928l1 1.181a19.872 19.872 0 0 1 14.8-6.572h1.047" fill="#1a632d" transform="translate(-54.017 -46.478)"/><path d="m76.6 76.971 1 1.181a17.466 17.466 0 0 1 13.211-6.015l1.069.045c.022-.356.045-.735.045-1.114v-.423l-1.112-.045a19 19 0 0 0 -14.213 6.371" fill="#1a632d" transform="translate(-59.535 -54.872)"/><path d="m96.332 81.4a16.6 16.6 0 0 0 -12.632 5.815l1 1.181a15.06 15.06 0 0 1 11.629-5.458h.735q.156-.757.267-1.515h-.98" fill="#1a632d" transform="translate(-65.053 -63.266)"/><path d="m1.347 61.337a19.939 19.939 0 0 1 19.694 16.863q.757-.223 1.47-.512a21.476 21.476 0 0 0 -21.164-17.888h-.847q-.134.757-.2 1.559h1.047" fill="#1a632d" transform="translate(-.233 -46.478)"/><path d="m18.446 87.108q.757-.111 1.515-.29a19.048 19.048 0 0 0 -18.847-16.218l-1.114.045v.423c0 .134.022.735.045 1.114l1.069-.045a17.511 17.511 0 0 1 17.332 14.971" fill="#1a632d" transform="translate(0 -54.872)"/><path d="m1.58 81.4h-.98a12.4 12.4 0 0 0 .267 1.515h.713a15.1 15.1 0 0 1 14.9 12.7h.178l1.381-.067a16.642 16.642 0 0 0 -16.459-14.148" fill="#1a632d" transform="translate(-.466 -63.266)"/><path d="m105.637 93.3h-1.292c-2.072 0-6.973 1.582-9.245 4.121a20.808 20.808 0 0 1 1.983 5.926 16.241 16.241 0 0 0 8.532-10.025" fill="#5fb030" transform="translate(-73.914 -72.515)"/><path d="m2.7 92.3a16.2 16.2 0 0 0 14.525 11.785 14.213 14.213 0 0 0 -14.013-11.785z" fill="#5fb030" transform="translate(-2.098 -71.737)"/><path d="m16.2 0a16.2 16.2 0 1 1 -16.2 16.2 16.2 16.2 0 0 1 16.2-16.2m0 1.136a15.06 15.06 0 1 0 15.056 15.064 15.06 15.06 0 0 0 -15.056-15.064" fill="#008d36"/><path d="m95.055 19.89c0 2.651-.913 4.79-2.027 4.79s-2.028-2.139-2.028-4.79a7.892 7.892 0 0 1 2.027-4.79 7.892 7.892 0 0 1 2.027 4.79" fill="#5fb030" transform="translate(-70.727 -11.736)"/></g><path d="m0 0h.602v3.063h-.602z" fill="#1a632d" transform="translate(22.078 12.81)"/><path d="m81.8 43.808c0 1.782-.6 3.208-1.359 3.208s-1.341-1.426-1.341-3.208a5.26 5.26 0 0 1 1.359-3.208 5.3 5.3 0 0 1 1.341 3.208" fill="#5fb030" fill-rule="evenodd" transform="translate(-61.478 -31.555)"/><path d="m0 0h.401v2.054h-.401z" fill="#1a632d" transform="translate(18.825 15.372)"/><path d="m30.018 32.108c0 1.782-.6 3.208-1.359 3.208s-1.359-1.448-1.359-3.208a5.34 5.34 0 0 1 1.359-3.208 5.34 5.34 0 0 1 1.359 3.208" fill="#5fb030" fill-rule="evenodd" transform="translate(-21.218 -22.462)"/><path d="m0 0h.401v2.054h-.401z" fill="#1a632d" transform="translate(7.307 12.765)"/></g></svg>