<svg height="46.059" viewBox="0 0 153.329 46.059" width="153.329" xmlns="http://www.w3.org/2000/svg" xmlns:xlink="http://www.w3.org/1999/xlink"><clipPath id="a"><path d="m0 0h153.329v46.059h-153.329z"/></clipPath><g clip-path="url(#a)"><g fill-rule="evenodd"><path d="m93.45 62.018q-.1-1.109-.285-2.218h-1.2a30.444 30.444 0 0 0 -22.465 9.852l1.426 1.679a28.258 28.258 0 0 1 21.035-9.345h1.489" fill="#1a632d" transform="translate(-47.483 -40.856)"/><path d="m76.6 79.66 1.426 1.679a24.837 24.837 0 0 1 18.786-8.553l1.521.063c.032-.507.063-1.045.063-1.584v-.6l-1.584-.065a27.023 27.023 0 0 0 -20.212 9.06" fill="#1a632d" transform="translate(-52.333 -48.234)"/><path d="m101.662 81.4a23.6 23.6 0 0 0 -17.962 8.268l1.426 1.679a21.415 21.415 0 0 1 16.537-7.761h1.045q.222-1.077.38-2.154h-1.394" fill="#1a632d" transform="translate(-57.184 -55.613)"/><path d="m1.789 61.986a28.353 28.353 0 0 1 28 23.981q1.077-.317 2.091-.729a30.539 30.539 0 0 0 -30.091-25.438h-1.204q-.185 1.077-.285 2.218h1.489" fill="#1a632d" transform="translate(-.205 -40.856)"/><path d="m26.231 94.075q1.077-.158 2.154-.412a27.086 27.086 0 0 0 -26.801-23.063l-1.584.063v.6c0 .19.032 1.045.063 1.584l1.521-.063a24.9 24.9 0 0 1 24.647 21.291" fill="#1a632d" transform="translate(0 -48.234)"/><path d="m1.994 81.4h-1.394a17.633 17.633 0 0 0 .38 2.154h1.014a21.479 21.479 0 0 1 21.194 18.057h.253l1.964-.1a23.665 23.665 0 0 0 -23.411-20.111" fill="#1a632d" transform="translate(-.41 -55.613)"/><path d="m110.084 93.3h-1.837c-2.946 0-9.916 2.249-13.147 5.861a29.589 29.589 0 0 1 2.819 8.427 23.1 23.1 0 0 0 12.133-14.256" fill="#5fb030" transform="translate(-64.973 -63.743)"/><path d="m2.7 92.3a23.031 23.031 0 0 0 20.655 16.758 20.212 20.212 0 0 0 -19.926-16.758z" fill="#5fb030" transform="translate(-1.845 -63.06)"/><path d="m23.031 0a23.031 23.031 0 1 1 -23.031 23.031 23.031 23.031 0 0 1 23.031-23.031m0 1.616a21.415 21.415 0 1 0 21.415 21.415 21.415 21.415 0 0 0 -21.415-21.415" fill="#008d36"/><path d="m96.766 21.911c0 3.77-1.3 6.811-2.883 6.811s-2.883-3.041-2.883-6.811 2.883-6.811 2.883-6.811 2.883 3.041 2.883 6.811" fill="#5fb030" transform="translate(-62.172 -10.316)"/></g><path d="m0 0h.855v4.356h-.855z" fill="#1a632d" transform="translate(31.394 18.216)"/><path d="m82.933 45.162c0 2.534-.855 4.562-1.932 4.562s-1.9-2.027-1.9-4.562a7.48 7.48 0 0 1 1.931-4.562 7.533 7.533 0 0 1 1.9 4.562" fill="#5fb030" fill-rule="evenodd" transform="translate(-54.041 -27.738)"/><path d="m0 0h.57v2.921h-.57z" fill="#1a632d" transform="translate(26.769 21.859)"/><path d="m31.165 33.462c0 2.534-.855 4.562-1.932 4.562s-1.933-2.059-1.933-4.562a7.594 7.594 0 0 1 1.932-4.562 7.594 7.594 0 0 1 1.932 4.562" fill="#5fb030" fill-rule="evenodd" transform="translate(-18.651 -19.745)"/><path d="m0 0h.57v2.921h-.57z" fill="#1a632d" transform="translate(10.391 18.152)"/><path d="m166.5 56.6h3.675l1.426 8.173 1.932-8.173h3.77l1.869 8.11 1.428-8.11h3.7l-3.01 11.943h-4.213l-1.677-7.318-1.742 7.318h-4.182z" fill="#5fb030" transform="translate(-113.754 -38.669)"/><path d="m227.413 63.9a3.184 3.184 0 0 1 2.883 1.457v-1.33h3.422v9.5h-3.453v-1.3a3.184 3.184 0 0 1 -2.883 1.457c-2.313 0-4.182-1.837-4.182-4.879s1.837-4.879 4.182-4.879m1.109 2.915a1.753 1.753 0 0 0 -1.774 1.964 1.783 1.783 0 1 0 1.774-1.964" fill="#5fb030" transform="translate(-152.491 -43.657)"/><path d="m264.882 57.615a3.259 3.259 0 0 1 2.851 1.426v-4.341h3.421v12.545h-3.421v-1.3a3.166 3.166 0 0 1 -2.851 1.457c-2.313 0-4.182-1.837-4.182-4.879s1.837-4.879 4.182-4.879m1.077 2.915a1.753 1.753 0 0 0 -1.774 1.964 1.783 1.783 0 1 0 1.774-1.964" fill="#5fb030" transform="translate(-178.111 -37.371)"/><path d="m299 52.342a2.014 2.014 0 0 1 3.992 0 1.787 1.787 0 0 1 -2 1.711 1.805 1.805 0 0 1 -2-1.711m.285 2.566h3.421v9.5h-3.421z" fill="#5fb030" transform="translate(-204.278 -34.57)"/><path d="m363.221 73.6h-3.421v-9.5h3.421v1.679a3.9 3.9 0 0 1 3.168-1.779v3.548h-.951c-1.425 0-2.186.444-2.186 1.9z" fill="#5fb030" transform="translate(-245.817 -43.725)"/><path d="m387.574 73.657a4.88 4.88 0 1 1 0-9.757c2.946 0 4.942 1.806 4.942 4.784a5.911 5.911 0 0 1 -.063.792h-6.463c.063 1.109.665 1.552 1.457 1.552a1.267 1.267 0 0 0 1.235-.76h3.643a4.609 4.609 0 0 1 -4.72 3.421m-1.584-5.829h3.01a1.308 1.308 0 0 0 -1.457-1.3 1.457 1.457 0 0 0 -1.552 1.3" fill="#5fb030" transform="translate(-261.394 -43.657)"/><path d="m421.474 73.657a4.88 4.88 0 1 1 0-9.757c2.946 0 4.942 1.806 4.942 4.784a5.88 5.88 0 0 1 -.063.792h-6.463c.063 1.109.665 1.552 1.457 1.552a1.267 1.267 0 0 0 1.236-.76h3.643a4.609 4.609 0 0 1 -4.72 3.421m-1.584-5.829h3.01a1.308 1.308 0 0 0 -1.457-1.3 1.457 1.457 0 0 0 -1.552 1.3" fill="#5fb030" transform="translate(-284.555 -43.657)"/><path d="m458.853 68.495a1.551 1.551 0 0 0 -1.615-1.742 1.574 1.574 0 0 0 -1.648 1.742v5.1h-3.39v-9.5h3.421v1.362a3.548 3.548 0 0 1 2.979-1.457c2.281 0 3.675 1.552 3.675 4.055v5.545h-3.422z" fill="#5fb030" transform="translate(-308.945 -43.721)"/><path d="m322.434 61.459v2.408h3.421a2.661 2.661 0 0 1 -2.566 1.584c-2.027 0-3.1-1.109-3.1-3.168s1.046-3.01 2.756-3.01a2.209 2.209 0 0 1 2.028.982h3.675c-.475-2.5-2.629-4.055-5.734-4.055a5.821 5.821 0 0 0 -6.209 6.082 5.709 5.709 0 0 0 2.693 5.132 1.394 1.394 0 0 1 -.665-1.2 1.727 1.727 0 0 1 3.421 0 1.528 1.528 0 0 1 -1.711 1.457 2.027 2.027 0 0 1 -.95-.222 6.716 6.716 0 0 0 3.453.887 6.118 6.118 0 0 0 5.829-3.675v-3.2z" fill="#5fb030" transform="translate(-216.371 -38.396)"/></g></svg>